<svg xmlns="http://www.w3.org/2000/svg" xmlns:xlink="http://www.w3.org/1999/xlink" width="544" height="247pt" viewBox="0 0 408 246.8"><g id="graph0" class="graph" transform="scale(1 1) rotate(0) translate(4 242.8)"><title>dependencies</title><polygon fill="#fff" stroke="transparent" points="-4 4 -4 -242.8 404 -242.8 404 4 -4 4"/><text x="200" y="-8.2" font-family="sans-serif" font-size="14" text-anchor="middle">dependencies</text><g id="clust1" class="cluster"><title>cluster_UsersModule</title><polygon fill="none" stroke="#000" stroke-dasharray="1 5" points="8 -32.8 8 -230.8 392 -230.8 392 -32.8 8 -32.8"/></g><g id="clust3" class="cluster"><title>cluster_UsersModule_imports</title><polygon fill="none" stroke="#000" points="164 -40.8 164 -92.8 384 -92.8 384 -40.8 164 -40.8"/></g><g id="clust4" class="cluster"><title>cluster_UsersModule_exports</title><polygon fill="none" stroke="#000" points="166 -170.8 166 -222.8 276 -222.8 276 -170.8 166 -170.8"/></g><g id="clust6" class="cluster"><title>cluster_UsersModule_providers</title><polygon fill="none" stroke="#000" points="16 -40.8 16 -92.8 156 -92.8 156 -40.8 16 -40.8"/></g><g id="node1" class="node"><title>AuthModule</title><polygon fill="#8dd3c7" stroke="#000" points="375.55 -84.8 372.55 -88.8 351.55 -88.8 348.55 -84.8 288.45 -84.8 288.45 -48.8 375.55 -48.8 375.55 -84.8"/><text x="332" y="-62.6" font-family="Times,serif" font-size="14" text-anchor="middle">AuthModule</text></g><g id="node3" class="node"><title>UsersModule</title><polygon fill="#8dd3c7" stroke="#000" points="266.94 -149.8 263.94 -153.8 242.94 -153.8 239.94 -149.8 175.06 -149.8 175.06 -113.8 266.94 -113.8 266.94 -149.8"/><text x="221" y="-127.6" font-family="Times,serif" font-size="14" text-anchor="middle">UsersModule</text></g><g id="edge1" class="edge"><title>AuthModule-&gt;UsersModule</title><path fill="none" stroke="#000" d="M332,-84.91C332,-104.14 332,-131.8 332,-131.8 332,-131.8 276.79,-131.8 276.79,-131.8"/><polygon fill="#000" stroke="#000" points="276.79 -128.3 266.79 -131.8 276.79 -135.3 276.79 -128.3"/></g><g id="node2" class="node"><title>PrismaModule</title><polygon fill="#8dd3c7" stroke="#000" points="270.44 -84.8 267.44 -88.8 246.44 -88.8 243.44 -84.8 171.56 -84.8 171.56 -48.8 270.44 -48.8 270.44 -84.8"/><text x="221" y="-62.6" font-family="Times,serif" font-size="14" text-anchor="middle">PrismaModule</text></g><g id="edge2" class="edge"><title>PrismaModule-&gt;UsersModule</title><path fill="none" stroke="#000" d="M221,-84.91C221,-84.91 221,-103.79 221,-103.79"/><polygon fill="#000" stroke="#000" points="217.5 -103.79 221 -113.79 224.5 -103.79 217.5 -103.79"/></g><g id="node4" class="node"><title>UsersService</title><polygon fill="#fb8072" stroke="#000" points="267.86 -214.8 174.14 -214.8 174.14 -178.8 267.86 -178.8 267.86 -214.8"/><text x="221" y="-192.6" font-family="Times,serif" font-size="14" text-anchor="middle">UsersService</text></g><g id="edge3" class="edge"><title>UsersModule-&gt;UsersService</title><path fill="none" stroke="#000" stroke-dasharray="5 2" d="M221,-149.91C221,-149.91 221,-168.79 221,-168.79"/><polygon fill="#000" stroke="#000" points="217.5 -168.79 221 -178.79 224.5 -168.79 217.5 -168.79"/></g><g id="node5" class="node"><title>UsersService</title><ellipse cx="86" cy="-66.8" fill="#fdb462" stroke="#000" rx="61.97" ry="18"/><text x="86" y="-62.6" font-family="Times,serif" font-size="14" text-anchor="middle">UsersService</text></g><g id="edge4" class="edge"><title>UsersService-&gt;UsersModule</title><path fill="none" stroke="#000" d="M86,-84.91C86,-104.14 86,-131.8 86,-131.8 86,-131.8 164.92,-131.8 164.92,-131.8"/><polygon fill="#000" stroke="#000" points="164.92 -135.3 174.92 -131.8 164.92 -128.3 164.92 -135.3"/></g></g></svg>