<?xml version="1.0" encoding="UTF-8" standalone="no"?>
<!DOCTYPE svg PUBLIC "-//W3C//DTD SVG 1.1//EN"
 "http://www.w3.org/Graphics/SVG/1.1/DTD/svg11.dtd">
<!-- Generated by graphviz version 5.0.0 (20220707.1540)
 -->
<!-- Title: dependencies Pages: 1 -->
<svg width="543pt" height="174pt"
 viewBox="0.00 0.00 543.00 173.80" xmlns="http://www.w3.org/2000/svg" xmlns:xlink="http://www.w3.org/1999/xlink">
<g id="graph0" class="graph" transform="scale(1 1) rotate(0) translate(4 169.8)">
<title>dependencies</title>
<polygon fill="white" stroke="transparent" points="-4,4 -4,-169.8 539,-169.8 539,4 -4,4"/>
<text text-anchor="middle" x="267.5" y="-8.2" font-family="sans-serif" font-size="14.00">dependencies</text>
<g id="clust1" class="cluster">
<title>cluster_AuthModule</title>
<polygon fill="none" stroke="black" stroke-dasharray="1,5" points="8,-32.8 8,-157.8 527,-157.8 527,-32.8 8,-32.8"/>
</g>
<g id="clust3" class="cluster">
<title>cluster_AuthModule_imports</title>
<polygon fill="none" stroke="black" points="405,-40.8 405,-92.8 519,-92.8 519,-40.8 405,-40.8"/>
</g>
<g id="clust6" class="cluster">
<title>cluster_AuthModule_providers</title>
<polygon fill="none" stroke="black" points="16,-40.8 16,-92.8 397,-92.8 397,-40.8 16,-40.8"/>
</g>
<!-- PrismaModule -->
<g id="node1" class="node">
<title>PrismaModule</title>
<polygon fill="#8dd3c7" stroke="black" points="511.44,-84.8 508.44,-88.8 487.44,-88.8 484.44,-84.8 412.56,-84.8 412.56,-48.8 511.44,-48.8 511.44,-84.8"/>
<text text-anchor="middle" x="462" y="-62.6" font-family="Times,serif" font-size="14.00">PrismaModule</text>
</g>
<!-- AuthModule -->
<g id="node2" class="node">
<title>AuthModule</title>
<polygon fill="#8dd3c7" stroke="black" points="314.55,-149.8 311.55,-153.8 290.55,-153.8 287.55,-149.8 227.45,-149.8 227.45,-113.8 314.55,-113.8 314.55,-149.8"/>
<text text-anchor="middle" x="271" y="-127.6" font-family="Times,serif" font-size="14.00">AuthModule</text>
</g>
<!-- PrismaModule&#45;&gt;AuthModule -->
<g id="edge1" class="edge">
<title>PrismaModule&#45;&gt;AuthModule</title>
<path fill="none" stroke="black" d="M462,-84.91C462,-104.14 462,-131.8 462,-131.8 462,-131.8 324.82,-131.8 324.82,-131.8"/>
<polygon fill="black" stroke="black" points="324.82,-128.3 314.82,-131.8 324.82,-135.3 324.82,-128.3"/>
</g>
<!-- AtStrategy -->
<g id="node3" class="node">
<title>AtStrategy</title>
<ellipse fill="#fdb462" stroke="black" cx="336" cy="-66.8" rx="52.75" ry="18"/>
<text text-anchor="middle" x="336" y="-62.6" font-family="Times,serif" font-size="14.00">AtStrategy</text>
</g>
<!-- AtStrategy&#45;&gt;AuthModule -->
<g id="edge2" class="edge">
<title>AtStrategy&#45;&gt;AuthModule</title>
<path fill="none" stroke="black" d="M298.95,-79.95C298.95,-79.95 298.95,-103.49 298.95,-103.49"/>
<polygon fill="black" stroke="black" points="295.45,-103.49 298.95,-113.49 302.45,-103.49 295.45,-103.49"/>
</g>
<!-- AuthService -->
<g id="node4" class="node">
<title>AuthService</title>
<ellipse fill="#fdb462" stroke="black" cx="206" cy="-66.8" rx="59.11" ry="18"/>
<text text-anchor="middle" x="206" y="-62.6" font-family="Times,serif" font-size="14.00">AuthService</text>
</g>
<!-- AuthService&#45;&gt;AuthModule -->
<g id="edge3" class="edge">
<title>AuthService&#45;&gt;AuthModule</title>
<path fill="none" stroke="black" d="M246.27,-80.27C246.27,-80.27 246.27,-103.66 246.27,-103.66"/>
<polygon fill="black" stroke="black" points="242.77,-103.66 246.27,-113.66 249.77,-103.66 242.77,-103.66"/>
</g>
<!-- RtStrategy -->
<g id="node5" class="node">
<title>RtStrategy</title>
<ellipse fill="#fdb462" stroke="black" cx="76" cy="-66.8" rx="52.19" ry="18"/>
<text text-anchor="middle" x="76" y="-62.6" font-family="Times,serif" font-size="14.00">RtStrategy</text>
</g>
<!-- RtStrategy&#45;&gt;AuthModule -->
<g id="edge4" class="edge">
<title>RtStrategy&#45;&gt;AuthModule</title>
<path fill="none" stroke="black" d="M76,-84.91C76,-104.14 76,-131.8 76,-131.8 76,-131.8 217.24,-131.8 217.24,-131.8"/>
<polygon fill="black" stroke="black" points="217.24,-135.3 227.24,-131.8 217.24,-128.3 217.24,-135.3"/>
</g>
</g>
</svg>
