<?xml version="1.0" encoding="UTF-8" standalone="no"?>
<!DOCTYPE svg PUBLIC "-//W3C//DTD SVG 1.1//EN"
 "http://www.w3.org/Graphics/SVG/1.1/DTD/svg11.dtd">
<!-- Generated by graphviz version 5.0.0 (20220707.1540)
 -->
<!-- Title: dependencies Pages: 1 -->
<svg width="457pt" height="247pt"
 viewBox="0.00 0.00 457.00 246.80" xmlns="http://www.w3.org/2000/svg" xmlns:xlink="http://www.w3.org/1999/xlink">
<g id="graph0" class="graph" transform="scale(1 1) rotate(0) translate(4 242.8)">
<title>dependencies</title>
<polygon fill="white" stroke="transparent" points="-4,4 -4,-242.8 453,-242.8 453,4 -4,4"/>
<text text-anchor="middle" x="224.5" y="-8.2" font-family="sans-serif" font-size="14.00">dependencies</text>
<g id="clust1" class="cluster">
<title>cluster_OauthModule</title>
<polygon fill="none" stroke="black" stroke-dasharray="1,5" points="8,-32.8 8,-230.8 441,-230.8 441,-32.8 8,-32.8"/>
</g>
<g id="clust6" class="cluster">
<title>cluster_OauthModule_providers</title>
<polygon fill="none" stroke="black" points="128,-40.8 128,-92.8 433,-92.8 433,-40.8 128,-40.8"/>
</g>
<g id="clust3" class="cluster">
<title>cluster_OauthModule_imports</title>
<polygon fill="none" stroke="black" points="16,-40.8 16,-92.8 120,-92.8 120,-40.8 16,-40.8"/>
</g>
<g id="clust4" class="cluster">
<title>cluster_OauthModule_exports</title>
<polygon fill="none" stroke="black" points="144,-170.8 144,-222.8 256,-222.8 256,-170.8 144,-170.8"/>
</g>
<!-- AuthModule -->
<g id="node1" class="node">
<title>AuthModule</title>
<polygon fill="#8dd3c7" stroke="black" points="111.55,-84.8 108.55,-88.8 87.55,-88.8 84.55,-84.8 24.45,-84.8 24.45,-48.8 111.55,-48.8 111.55,-84.8"/>
<text text-anchor="middle" x="68" y="-62.6" font-family="Times,serif" font-size="14.00">AuthModule</text>
</g>
<!-- OauthModule -->
<g id="node2" class="node">
<title>OauthModule</title>
<polygon fill="#8dd3c7" stroke="black" points="246.77,-149.8 243.77,-153.8 222.77,-153.8 219.77,-149.8 153.23,-149.8 153.23,-113.8 246.77,-113.8 246.77,-149.8"/>
<text text-anchor="middle" x="200" y="-127.6" font-family="Times,serif" font-size="14.00">OauthModule</text>
</g>
<!-- AuthModule&#45;&gt;OauthModule -->
<g id="edge1" class="edge">
<title>AuthModule&#45;&gt;OauthModule</title>
<path fill="none" stroke="black" d="M68,-84.91C68,-104.14 68,-131.8 68,-131.8 68,-131.8 143.09,-131.8 143.09,-131.8"/>
<polygon fill="black" stroke="black" points="143.09,-135.3 153.09,-131.8 143.09,-128.3 143.09,-135.3"/>
</g>
<!-- OauthService  -->
<g id="node3" class="node">
<title>OauthService </title>
<polygon fill="#fb8072" stroke="black" points="247.69,-214.8 152.31,-214.8 152.31,-178.8 247.69,-178.8 247.69,-214.8"/>
<text text-anchor="middle" x="200" y="-192.6" font-family="Times,serif" font-size="14.00">OauthService </text>
</g>
<!-- OauthModule&#45;&gt;OauthService  -->
<g id="edge2" class="edge">
<title>OauthModule&#45;&gt;OauthService </title>
<path fill="none" stroke="black" stroke-dasharray="5,2" d="M200,-149.91C200,-149.91 200,-168.79 200,-168.79"/>
<polygon fill="black" stroke="black" points="196.5,-168.79 200,-178.79 203.5,-168.79 196.5,-168.79"/>
</g>
<!-- GoogleStrategy -->
<g id="node4" class="node">
<title>GoogleStrategy</title>
<ellipse fill="#fdb462" stroke="black" cx="353" cy="-66.8" rx="71.79" ry="18"/>
<text text-anchor="middle" x="353" y="-62.6" font-family="Times,serif" font-size="14.00">GoogleStrategy</text>
</g>
<!-- GoogleStrategy&#45;&gt;OauthModule -->
<g id="edge3" class="edge">
<title>GoogleStrategy&#45;&gt;OauthModule</title>
<path fill="none" stroke="black" d="M353,-84.91C353,-104.14 353,-131.8 353,-131.8 353,-131.8 257.15,-131.8 257.15,-131.8"/>
<polygon fill="black" stroke="black" points="257.15,-128.3 247.15,-131.8 257.15,-135.3 257.15,-128.3"/>
</g>
<!-- OauthService -->
<g id="node5" class="node">
<title>OauthService</title>
<ellipse fill="#fdb462" stroke="black" cx="200" cy="-66.8" rx="63.69" ry="18"/>
<text text-anchor="middle" x="200" y="-62.6" font-family="Times,serif" font-size="14.00">OauthService</text>
</g>
<!-- OauthService&#45;&gt;OauthModule -->
<g id="edge4" class="edge">
<title>OauthService&#45;&gt;OauthModule</title>
<path fill="none" stroke="black" d="M200,-84.91C200,-84.91 200,-103.79 200,-103.79"/>
<polygon fill="black" stroke="black" points="196.5,-103.79 200,-113.79 203.5,-103.79 196.5,-103.79"/>
</g>
</g>
</svg>
