<?xml version="1.0" encoding="UTF-8" standalone="no"?>
<!DOCTYPE svg PUBLIC "-//W3C//DTD SVG 1.1//EN"
 "http://www.w3.org/Graphics/SVG/1.1/DTD/svg11.dtd">
<!-- Generated by graphviz version 5.0.0 (20220707.1540)
 -->
<!-- Title: dependencies Pages: 1 -->
<svg width="745pt" height="247pt"
 viewBox="0.00 0.00 745.00 246.80" xmlns="http://www.w3.org/2000/svg" xmlns:xlink="http://www.w3.org/1999/xlink">
<g id="graph0" class="graph" transform="scale(1 1) rotate(0) translate(4 242.8)">
<title>dependencies</title>
<polygon fill="white" stroke="transparent" points="-4,4 -4,-242.8 741,-242.8 741,4 -4,4"/>
<text text-anchor="middle" x="368.5" y="-8.2" font-family="sans-serif" font-size="14.00">dependencies</text>
<g id="clust1" class="cluster">
<title>cluster_OauthModule</title>
<polygon fill="none" stroke="black" stroke-dasharray="1,5" points="8,-32.8 8,-230.8 729,-230.8 729,-32.8 8,-32.8"/>
</g>
<g id="clust6" class="cluster">
<title>cluster_OauthModule_providers</title>
<polygon fill="none" stroke="black" points="237,-40.8 237,-92.8 721,-92.8 721,-40.8 237,-40.8"/>
</g>
<g id="clust4" class="cluster">
<title>cluster_OauthModule_exports</title>
<polygon fill="none" stroke="black" points="253,-170.8 253,-222.8 365,-222.8 365,-170.8 253,-170.8"/>
</g>
<g id="clust3" class="cluster">
<title>cluster_OauthModule_imports</title>
<polygon fill="none" stroke="black" points="16,-40.8 16,-92.8 229,-92.8 229,-40.8 16,-40.8"/>
</g>
<!-- AuthModule -->
<g id="node1" class="node">
<title>AuthModule</title>
<polygon fill="#8dd3c7" stroke="black" points="220.55,-84.8 217.55,-88.8 196.55,-88.8 193.55,-84.8 133.45,-84.8 133.45,-48.8 220.55,-48.8 220.55,-84.8"/>
<text text-anchor="middle" x="177" y="-62.6" font-family="Times,serif" font-size="14.00">AuthModule</text>
</g>
<!-- OauthModule -->
<g id="node3" class="node">
<title>OauthModule</title>
<polygon fill="#8dd3c7" stroke="black" points="355.77,-149.8 352.77,-153.8 331.77,-153.8 328.77,-149.8 262.23,-149.8 262.23,-113.8 355.77,-113.8 355.77,-149.8"/>
<text text-anchor="middle" x="309" y="-127.6" font-family="Times,serif" font-size="14.00">OauthModule</text>
</g>
<!-- AuthModule&#45;&gt;OauthModule -->
<g id="edge1" class="edge">
<title>AuthModule&#45;&gt;OauthModule</title>
<path fill="none" stroke="black" d="M177,-84.82C177,-102.17 177,-125.8 177,-125.8 177,-125.8 252.09,-125.8 252.09,-125.8"/>
<polygon fill="black" stroke="black" points="252.09,-129.3 262.09,-125.8 252.09,-122.3 252.09,-129.3"/>
</g>
<!-- UsersModule -->
<g id="node2" class="node">
<title>UsersModule</title>
<polygon fill="#8dd3c7" stroke="black" points="115.94,-84.8 112.94,-88.8 91.94,-88.8 88.94,-84.8 24.06,-84.8 24.06,-48.8 115.94,-48.8 115.94,-84.8"/>
<text text-anchor="middle" x="70" y="-62.6" font-family="Times,serif" font-size="14.00">UsersModule</text>
</g>
<!-- UsersModule&#45;&gt;OauthModule -->
<g id="edge2" class="edge">
<title>UsersModule&#45;&gt;OauthModule</title>
<path fill="none" stroke="black" d="M70,-85.08C70,-106.12 70,-137.8 70,-137.8 70,-137.8 252.07,-137.8 252.07,-137.8"/>
<polygon fill="black" stroke="black" points="252.07,-141.3 262.07,-137.8 252.07,-134.3 252.07,-141.3"/>
</g>
<!-- OauthService  -->
<g id="node4" class="node">
<title>OauthService </title>
<polygon fill="#fb8072" stroke="black" points="356.69,-214.8 261.31,-214.8 261.31,-178.8 356.69,-178.8 356.69,-214.8"/>
<text text-anchor="middle" x="309" y="-192.6" font-family="Times,serif" font-size="14.00">OauthService </text>
</g>
<!-- OauthModule&#45;&gt;OauthService  -->
<g id="edge3" class="edge">
<title>OauthModule&#45;&gt;OauthService </title>
<path fill="none" stroke="black" stroke-dasharray="5,2" d="M309,-149.91C309,-149.91 309,-168.79 309,-168.79"/>
<polygon fill="black" stroke="black" points="305.5,-168.79 309,-178.79 312.5,-168.79 305.5,-168.79"/>
</g>
<!-- FacebookStrategy -->
<g id="node5" class="node">
<title>FacebookStrategy</title>
<ellipse fill="#fdb462" stroke="black" cx="632" cy="-66.8" rx="80.52" ry="18"/>
<text text-anchor="middle" x="632" y="-62.6" font-family="Times,serif" font-size="14.00">FacebookStrategy</text>
</g>
<!-- FacebookStrategy&#45;&gt;OauthModule -->
<g id="edge4" class="edge">
<title>FacebookStrategy&#45;&gt;OauthModule</title>
<path fill="none" stroke="black" d="M632,-85.08C632,-106.12 632,-137.8 632,-137.8 632,-137.8 365.97,-137.8 365.97,-137.8"/>
<polygon fill="black" stroke="black" points="365.97,-134.3 355.97,-137.8 365.97,-141.3 365.97,-134.3"/>
</g>
<!-- GoogleStrategy -->
<g id="node6" class="node">
<title>GoogleStrategy</title>
<ellipse fill="#fdb462" stroke="black" cx="462" cy="-66.8" rx="71.79" ry="18"/>
<text text-anchor="middle" x="462" y="-62.6" font-family="Times,serif" font-size="14.00">GoogleStrategy</text>
</g>
<!-- GoogleStrategy&#45;&gt;OauthModule -->
<g id="edge5" class="edge">
<title>GoogleStrategy&#45;&gt;OauthModule</title>
<path fill="none" stroke="black" d="M462,-84.82C462,-102.17 462,-125.8 462,-125.8 462,-125.8 366.15,-125.8 366.15,-125.8"/>
<polygon fill="black" stroke="black" points="366.15,-122.3 356.15,-125.8 366.15,-129.3 366.15,-122.3"/>
</g>
<!-- OauthService -->
<g id="node7" class="node">
<title>OauthService</title>
<ellipse fill="#fdb462" stroke="black" cx="309" cy="-66.8" rx="63.69" ry="18"/>
<text text-anchor="middle" x="309" y="-62.6" font-family="Times,serif" font-size="14.00">OauthService</text>
</g>
<!-- OauthService&#45;&gt;OauthModule -->
<g id="edge6" class="edge">
<title>OauthService&#45;&gt;OauthModule</title>
<path fill="none" stroke="black" d="M309,-84.91C309,-84.91 309,-103.79 309,-103.79"/>
<polygon fill="black" stroke="black" points="305.5,-103.79 309,-113.79 312.5,-103.79 305.5,-103.79"/>
</g>
</g>
</svg>
