<?xml version="1.0" encoding="UTF-8" standalone="no"?>
<!DOCTYPE svg PUBLIC "-//W3C//DTD SVG 1.1//EN"
 "http://www.w3.org/Graphics/SVG/1.1/DTD/svg11.dtd">
<!-- Generated by graphviz version 5.0.0 (20220707.1540)
 -->
<!-- Title: dependencies Pages: 1 -->
<svg width="636pt" height="247pt"
 viewBox="0.00 0.00 636.00 246.80" xmlns="http://www.w3.org/2000/svg" xmlns:xlink="http://www.w3.org/1999/xlink">
<g id="graph0" class="graph" transform="scale(1 1) rotate(0) translate(4 242.8)">
<title>dependencies</title>
<polygon fill="white" stroke="transparent" points="-4,4 -4,-242.8 632,-242.8 632,4 -4,4"/>
<text text-anchor="middle" x="314" y="-8.2" font-family="sans-serif" font-size="14.00">dependencies</text>
<g id="clust1" class="cluster">
<title>cluster_OauthModule</title>
<polygon fill="none" stroke="black" stroke-dasharray="1,5" points="8,-32.8 8,-230.8 620,-230.8 620,-32.8 8,-32.8"/>
</g>
<g id="clust4" class="cluster">
<title>cluster_OauthModule_exports</title>
<polygon fill="none" stroke="black" points="270,-170.8 270,-222.8 382,-222.8 382,-170.8 270,-170.8"/>
</g>
<g id="clust3" class="cluster">
<title>cluster_OauthModule_imports</title>
<polygon fill="none" stroke="black" points="508,-40.8 508,-92.8 612,-92.8 612,-40.8 508,-40.8"/>
</g>
<g id="clust6" class="cluster">
<title>cluster_OauthModule_providers</title>
<polygon fill="none" stroke="black" points="16,-40.8 16,-92.8 500,-92.8 500,-40.8 16,-40.8"/>
</g>
<!-- AuthModule -->
<g id="node1" class="node">
<title>AuthModule</title>
<polygon fill="#8dd3c7" stroke="black" points="603.55,-84.8 600.55,-88.8 579.55,-88.8 576.55,-84.8 516.45,-84.8 516.45,-48.8 603.55,-48.8 603.55,-84.8"/>
<text text-anchor="middle" x="560" y="-62.6" font-family="Times,serif" font-size="14.00">AuthModule</text>
</g>
<!-- OauthModule -->
<g id="node2" class="node">
<title>OauthModule</title>
<polygon fill="#8dd3c7" stroke="black" points="372.77,-149.8 369.77,-153.8 348.77,-153.8 345.77,-149.8 279.23,-149.8 279.23,-113.8 372.77,-113.8 372.77,-149.8"/>
<text text-anchor="middle" x="326" y="-127.6" font-family="Times,serif" font-size="14.00">OauthModule</text>
</g>
<!-- AuthModule&#45;&gt;OauthModule -->
<g id="edge1" class="edge">
<title>AuthModule&#45;&gt;OauthModule</title>
<path fill="none" stroke="black" d="M560,-84.91C560,-104.14 560,-131.8 560,-131.8 560,-131.8 382.79,-131.8 382.79,-131.8"/>
<polygon fill="black" stroke="black" points="382.79,-128.3 372.79,-131.8 382.79,-135.3 382.79,-128.3"/>
</g>
<!-- OauthService  -->
<g id="node3" class="node">
<title>OauthService </title>
<polygon fill="#fb8072" stroke="black" points="373.69,-214.8 278.31,-214.8 278.31,-178.8 373.69,-178.8 373.69,-214.8"/>
<text text-anchor="middle" x="326" y="-192.6" font-family="Times,serif" font-size="14.00">OauthService </text>
</g>
<!-- OauthModule&#45;&gt;OauthService  -->
<g id="edge2" class="edge">
<title>OauthModule&#45;&gt;OauthService </title>
<path fill="none" stroke="black" stroke-dasharray="5,2" d="M326,-149.91C326,-149.91 326,-168.79 326,-168.79"/>
<polygon fill="black" stroke="black" points="322.5,-168.79 326,-178.79 329.5,-168.79 322.5,-168.79"/>
</g>
<!-- FacebookStrategy -->
<g id="node4" class="node">
<title>FacebookStrategy</title>
<ellipse fill="#fdb462" stroke="black" cx="411" cy="-66.8" rx="80.52" ry="18"/>
<text text-anchor="middle" x="411" y="-62.6" font-family="Times,serif" font-size="14.00">FacebookStrategy</text>
</g>
<!-- FacebookStrategy&#45;&gt;OauthModule -->
<g id="edge3" class="edge">
<title>FacebookStrategy&#45;&gt;OauthModule</title>
<path fill="none" stroke="black" d="M351.56,-79.03C351.56,-79.03 351.56,-103.48 351.56,-103.48"/>
<polygon fill="black" stroke="black" points="348.06,-103.48 351.56,-113.48 355.06,-103.48 348.06,-103.48"/>
</g>
<!-- GoogleStrategy -->
<g id="node5" class="node">
<title>GoogleStrategy</title>
<ellipse fill="#fdb462" stroke="black" cx="241" cy="-66.8" rx="71.79" ry="18"/>
<text text-anchor="middle" x="241" y="-62.6" font-family="Times,serif" font-size="14.00">GoogleStrategy</text>
</g>
<!-- GoogleStrategy&#45;&gt;OauthModule -->
<g id="edge4" class="edge">
<title>GoogleStrategy&#45;&gt;OauthModule</title>
<path fill="none" stroke="black" d="M295.88,-78.42C295.88,-78.42 295.88,-103.65 295.88,-103.65"/>
<polygon fill="black" stroke="black" points="292.38,-103.65 295.88,-113.65 299.38,-103.65 292.38,-103.65"/>
</g>
<!-- OauthService -->
<g id="node6" class="node">
<title>OauthService</title>
<ellipse fill="#fdb462" stroke="black" cx="88" cy="-66.8" rx="63.69" ry="18"/>
<text text-anchor="middle" x="88" y="-62.6" font-family="Times,serif" font-size="14.00">OauthService</text>
</g>
<!-- OauthService&#45;&gt;OauthModule -->
<g id="edge5" class="edge">
<title>OauthService&#45;&gt;OauthModule</title>
<path fill="none" stroke="black" d="M88,-84.91C88,-104.14 88,-131.8 88,-131.8 88,-131.8 268.98,-131.8 268.98,-131.8"/>
<polygon fill="black" stroke="black" points="268.98,-135.3 278.98,-131.8 268.98,-128.3 268.98,-135.3"/>
</g>
</g>
</svg>
