<?xml version="1.0" encoding="UTF-8" standalone="no"?>
<!DOCTYPE svg PUBLIC "-//W3C//DTD SVG 1.1//EN"
 "http://www.w3.org/Graphics/SVG/1.1/DTD/svg11.dtd">
<!-- Generated by graphviz version 5.0.0 (20220707.1540)
 -->
<!-- Title: dependencies Pages: 1 -->
<svg width="566pt" height="174pt"
 viewBox="0.00 0.00 566.00 173.80" xmlns="http://www.w3.org/2000/svg" xmlns:xlink="http://www.w3.org/1999/xlink">
<g id="graph0" class="graph" transform="scale(1 1) rotate(0) translate(4 169.8)">
<title>dependencies</title>
<polygon fill="white" stroke="transparent" points="-4,4 -4,-169.8 562,-169.8 562,4 -4,4"/>
<text text-anchor="middle" x="279" y="-8.2" font-family="sans-serif" font-size="14.00">dependencies</text>
<g id="clust1" class="cluster">
<title>cluster_OauthModule</title>
<polygon fill="none" stroke="black" stroke-dasharray="1,5" points="8,-32.8 8,-157.8 550,-157.8 550,-32.8 8,-32.8"/>
</g>
<g id="clust6" class="cluster">
<title>cluster_OauthModule_providers</title>
<polygon fill="none" stroke="black" points="237,-40.8 237,-92.8 542,-92.8 542,-40.8 237,-40.8"/>
</g>
<g id="clust3" class="cluster">
<title>cluster_OauthModule_imports</title>
<polygon fill="none" stroke="black" points="16,-40.8 16,-92.8 229,-92.8 229,-40.8 16,-40.8"/>
</g>
<!-- AuthModule -->
<g id="node1" class="node">
<title>AuthModule</title>
<polygon fill="#8dd3c7" stroke="black" points="220.55,-84.8 217.55,-88.8 196.55,-88.8 193.55,-84.8 133.45,-84.8 133.45,-48.8 220.55,-48.8 220.55,-84.8"/>
<text text-anchor="middle" x="177" y="-62.6" font-family="Times,serif" font-size="14.00">AuthModule</text>
</g>
<!-- OauthModule -->
<g id="node3" class="node">
<title>OauthModule</title>
<polygon fill="#8dd3c7" stroke="black" points="289.77,-149.8 286.77,-153.8 265.77,-153.8 262.77,-149.8 196.23,-149.8 196.23,-113.8 289.77,-113.8 289.77,-149.8"/>
<text text-anchor="middle" x="243" y="-127.6" font-family="Times,serif" font-size="14.00">OauthModule</text>
</g>
<!-- AuthModule&#45;&gt;OauthModule -->
<g id="edge1" class="edge">
<title>AuthModule&#45;&gt;OauthModule</title>
<path fill="none" stroke="black" d="M208.45,-84.91C208.45,-84.91 208.45,-103.79 208.45,-103.79"/>
<polygon fill="black" stroke="black" points="204.95,-103.79 208.45,-113.79 211.95,-103.79 204.95,-103.79"/>
</g>
<!-- UsersModule -->
<g id="node2" class="node">
<title>UsersModule</title>
<polygon fill="#8dd3c7" stroke="black" points="115.94,-84.8 112.94,-88.8 91.94,-88.8 88.94,-84.8 24.06,-84.8 24.06,-48.8 115.94,-48.8 115.94,-84.8"/>
<text text-anchor="middle" x="70" y="-62.6" font-family="Times,serif" font-size="14.00">UsersModule</text>
</g>
<!-- UsersModule&#45;&gt;OauthModule -->
<g id="edge2" class="edge">
<title>UsersModule&#45;&gt;OauthModule</title>
<path fill="none" stroke="black" d="M70,-84.91C70,-104.14 70,-131.8 70,-131.8 70,-131.8 186.18,-131.8 186.18,-131.8"/>
<polygon fill="black" stroke="black" points="186.18,-135.3 196.18,-131.8 186.18,-128.3 186.18,-135.3"/>
</g>
<!-- GoogleStrategy -->
<g id="node4" class="node">
<title>GoogleStrategy</title>
<ellipse fill="#fdb462" stroke="black" cx="462" cy="-66.8" rx="71.79" ry="18"/>
<text text-anchor="middle" x="462" y="-62.6" font-family="Times,serif" font-size="14.00">GoogleStrategy</text>
</g>
<!-- GoogleStrategy&#45;&gt;OauthModule -->
<g id="edge3" class="edge">
<title>GoogleStrategy&#45;&gt;OauthModule</title>
<path fill="none" stroke="black" d="M462,-84.91C462,-104.14 462,-131.8 462,-131.8 462,-131.8 299.98,-131.8 299.98,-131.8"/>
<polygon fill="black" stroke="black" points="299.98,-128.3 289.98,-131.8 299.98,-135.3 299.98,-128.3"/>
</g>
<!-- OauthService -->
<g id="node5" class="node">
<title>OauthService</title>
<ellipse fill="#fdb462" stroke="black" cx="309" cy="-66.8" rx="63.69" ry="18"/>
<text text-anchor="middle" x="309" y="-62.6" font-family="Times,serif" font-size="14.00">OauthService</text>
</g>
<!-- OauthService&#45;&gt;OauthModule -->
<g id="edge4" class="edge">
<title>OauthService&#45;&gt;OauthModule</title>
<path fill="none" stroke="black" d="M267.64,-80.58C267.64,-80.58 267.64,-103.35 267.64,-103.35"/>
<polygon fill="black" stroke="black" points="264.14,-103.35 267.64,-113.35 271.14,-103.35 264.14,-103.35"/>
</g>
</g>
</svg>
