<svg xmlns="http://www.w3.org/2000/svg" xmlns:xlink="http://www.w3.org/1999/xlink" width="544" height="232" viewBox="0 0 408 173.8"><g id="graph0" class="graph" transform="scale(1 1) rotate(0) translate(4 169.8)"><title>dependencies</title><polygon fill="#fff" stroke="transparent" points="-4 4 -4 -169.8 404 -169.8 404 4 -4 4"/><text x="200" y="-8.2" font-family="sans-serif" font-size="14" text-anchor="middle">dependencies</text><g id="clust1" class="cluster"><title>cluster_PostsModule</title><polygon fill="none" stroke="#000" stroke-dasharray="1 5" points="8 -32.8 8 -157.8 392 -157.8 392 -32.8 8 -32.8"/></g><g id="clust3" class="cluster"><title>cluster_PostsModule_imports</title><polygon fill="none" stroke="#000" points="160 -40.8 160 -92.8 384 -92.8 384 -40.8 160 -40.8"/></g><g id="clust6" class="cluster"><title>cluster_PostsModule_providers</title><polygon fill="none" stroke="#000" points="16 -40.8 16 -92.8 152 -92.8 152 -40.8 16 -40.8"/></g><g id="node1" class="node"><title>PrismaModule</title><polygon fill="#8dd3c7" stroke="#000" points="376.44 -84.8 373.44 -88.8 352.44 -88.8 349.44 -84.8 277.56 -84.8 277.56 -48.8 376.44 -48.8 376.44 -84.8"/><text x="327" y="-62.6" font-family="Times,serif" font-size="14" text-anchor="middle">PrismaModule</text></g><g id="node3" class="node"><title>PostsModule</title><polygon fill="#8dd3c7" stroke="#000" points="258.62 -149.8 255.62 -153.8 234.62 -153.8 231.62 -149.8 169.38 -149.8 169.38 -113.8 258.62 -113.8 258.62 -149.8"/><text x="214" y="-127.6" font-family="Times,serif" font-size="14" text-anchor="middle">PostsModule</text></g><g id="edge1" class="edge"><title>PrismaModule-&gt;PostsModule</title><path fill="none" stroke="#000" d="M327,-84.91C327,-104.14 327,-131.8 327,-131.8 327,-131.8 268.66,-131.8 268.66,-131.8"/><polygon fill="#000" stroke="#000" points="268.66 -128.3 258.66 -131.8 268.66 -135.3 268.66 -128.3"/></g><g id="node2" class="node"><title>UsersModule</title><polygon fill="#8dd3c7" stroke="#000" points="259.94 -84.8 256.94 -88.8 235.94 -88.8 232.94 -84.8 168.06 -84.8 168.06 -48.8 259.94 -48.8 259.94 -84.8"/><text x="214" y="-62.6" font-family="Times,serif" font-size="14" text-anchor="middle">UsersModule</text></g><g id="edge2" class="edge"><title>UsersModule-&gt;PostsModule</title><path fill="none" stroke="#000" d="M214,-84.91C214,-84.91 214,-103.79 214,-103.79"/><polygon fill="#000" stroke="#000" points="210.5 -103.79 214 -113.79 217.5 -103.79 210.5 -103.79"/></g><g id="node4" class="node"><title>PostsService</title><ellipse cx="84" cy="-66.8" fill="#fdb462" stroke="#000" rx="60.28" ry="18"/><text x="84" y="-62.6" font-family="Times,serif" font-size="14" text-anchor="middle">PostsService</text></g><g id="edge3" class="edge"><title>PostsService-&gt;PostsModule</title><path fill="none" stroke="#000" d="M84,-84.91C84,-104.14 84,-131.8 84,-131.8 84,-131.8 159.26,-131.8 159.26,-131.8"/><polygon fill="#000" stroke="#000" points="159.26 -135.3 169.26 -131.8 159.26 -128.3 159.26 -135.3"/></g></g></svg>