<svg xmlns="http://www.w3.org/2000/svg" xmlns:xlink="http://www.w3.org/1999/xlink" width="724" height="247pt" viewBox="0 0 543 246.8"><g id="graph0" class="graph" transform="scale(1 1) rotate(0) translate(4 242.8)"><title>dependencies</title><polygon fill="#fff" stroke="transparent" points="-4 4 -4 -242.8 539 -242.8 539 4 -4 4"/><text x="267.5" y="-8.2" font-family="sans-serif" font-size="14" text-anchor="middle">dependencies</text><g id="clust1" class="cluster"><title>cluster_AuthModule</title><polygon fill="none" stroke="#000" stroke-dasharray="1 5" points="8 -32.8 8 -230.8 527 -230.8 527 -32.8 8 -32.8"/></g><g id="clust3" class="cluster"><title>cluster_AuthModule_imports</title><polygon fill="none" stroke="#000" points="405 -40.8 405 -92.8 519 -92.8 519 -40.8 405 -40.8"/></g><g id="clust4" class="cluster"><title>cluster_AuthModule_exports</title><polygon fill="none" stroke="#000" points="218 -170.8 218 -222.8 324 -222.8 324 -170.8 218 -170.8"/></g><g id="clust6" class="cluster"><title>cluster_AuthModule_providers</title><polygon fill="none" stroke="#000" points="16 -40.8 16 -92.8 397 -92.8 397 -40.8 16 -40.8"/></g><g id="node1" class="node"><title>PrismaModule</title><polygon fill="#8dd3c7" stroke="#000" points="511.44 -84.8 508.44 -88.8 487.44 -88.8 484.44 -84.8 412.56 -84.8 412.56 -48.8 511.44 -48.8 511.44 -84.8"/><text x="462" y="-62.6" font-family="Times,serif" font-size="14" text-anchor="middle">PrismaModule</text></g><g id="node2" class="node"><title>AuthModule</title><polygon fill="#8dd3c7" stroke="#000" points="314.55 -149.8 311.55 -153.8 290.55 -153.8 287.55 -149.8 227.45 -149.8 227.45 -113.8 314.55 -113.8 314.55 -149.8"/><text x="271" y="-127.6" font-family="Times,serif" font-size="14" text-anchor="middle">AuthModule</text></g><g id="edge1" class="edge"><title>PrismaModule-&gt;AuthModule</title><path fill="none" stroke="#000" d="M462,-84.91C462,-104.14 462,-131.8 462,-131.8 462,-131.8 324.82,-131.8 324.82,-131.8"/><polygon fill="#000" stroke="#000" points="324.82 -128.3 314.82 -131.8 324.82 -135.3 324.82 -128.3"/></g><g id="node3" class="node"><title>AuthService</title><polygon fill="#fb8072" stroke="#000" points="315.98 -214.8 226.02 -214.8 226.02 -178.8 315.98 -178.8 315.98 -214.8"/><text x="271" y="-192.6" font-family="Times,serif" font-size="14" text-anchor="middle">AuthService</text></g><g id="edge2" class="edge"><title>AuthModule-&gt;AuthService</title><path fill="none" stroke="#000" stroke-dasharray="5 2" d="M271,-149.91C271,-149.91 271,-168.79 271,-168.79"/><polygon fill="#000" stroke="#000" points="267.5 -168.79 271 -178.79 274.5 -168.79 267.5 -168.79"/></g><g id="node4" class="node"><title>AtStrategy</title><ellipse cx="336" cy="-66.8" fill="#fdb462" stroke="#000" rx="52.75" ry="18"/><text x="336" y="-62.6" font-family="Times,serif" font-size="14" text-anchor="middle">AtStrategy</text></g><g id="edge3" class="edge"><title>AtStrategy-&gt;AuthModule</title><path fill="none" stroke="#000" d="M298.95,-79.95C298.95,-79.95 298.95,-103.49 298.95,-103.49"/><polygon fill="#000" stroke="#000" points="295.45 -103.49 298.95 -113.49 302.45 -103.49 295.45 -103.49"/></g><g id="node5" class="node"><title>AuthService</title><ellipse cx="206" cy="-66.8" fill="#fdb462" stroke="#000" rx="59.11" ry="18"/><text x="206" y="-62.6" font-family="Times,serif" font-size="14" text-anchor="middle">AuthService</text></g><g id="edge4" class="edge"><title>AuthService-&gt;AuthModule</title><path fill="none" stroke="#000" d="M246.27,-80.27C246.27,-80.27 246.27,-103.66 246.27,-103.66"/><polygon fill="#000" stroke="#000" points="242.77 -103.66 246.27 -113.66 249.77 -103.66 242.77 -103.66"/></g><g id="node6" class="node"><title>RtStrategy</title><ellipse cx="76" cy="-66.8" fill="#fdb462" stroke="#000" rx="52.19" ry="18"/><text x="76" y="-62.6" font-family="Times,serif" font-size="14" text-anchor="middle">RtStrategy</text></g><g id="edge5" class="edge"><title>RtStrategy-&gt;AuthModule</title><path fill="none" stroke="#000" d="M76,-84.91C76,-104.14 76,-131.8 76,-131.8 76,-131.8 217.24,-131.8 217.24,-131.8"/><polygon fill="#000" stroke="#000" points="217.24 -135.3 227.24 -131.8 217.24 -128.3 217.24 -135.3"/></g></g></svg>