<?xml version="1.0" encoding="UTF-8" standalone="no"?>
<!DOCTYPE svg PUBLIC "-//W3C//DTD SVG 1.1//EN"
 "http://www.w3.org/Graphics/SVG/1.1/DTD/svg11.dtd">
<!-- Generated by graphviz version 5.0.0 (20220707.1540)
 -->
<!-- Title: dependencies Pages: 1 -->
<svg width="543pt" height="247pt"
 viewBox="0.00 0.00 543.00 246.80" xmlns="http://www.w3.org/2000/svg" xmlns:xlink="http://www.w3.org/1999/xlink">
<g id="graph0" class="graph" transform="scale(1 1) rotate(0) translate(4 242.8)">
<title>dependencies</title>
<polygon fill="white" stroke="transparent" points="-4,4 -4,-242.8 539,-242.8 539,4 -4,4"/>
<text text-anchor="middle" x="267.5" y="-8.2" font-family="sans-serif" font-size="14.00">dependencies</text>
<g id="clust1" class="cluster">
<title>cluster_AuthModule</title>
<polygon fill="none" stroke="black" stroke-dasharray="1,5" points="8,-32.8 8,-230.8 527,-230.8 527,-32.8 8,-32.8"/>
</g>
<g id="clust4" class="cluster">
<title>cluster_AuthModule_exports</title>
<polygon fill="none" stroke="black" points="210,-170.8 210,-222.8 316,-222.8 316,-170.8 210,-170.8"/>
</g>
<g id="clust6" class="cluster">
<title>cluster_AuthModule_providers</title>
<polygon fill="none" stroke="black" points="138,-40.8 138,-92.8 519,-92.8 519,-40.8 138,-40.8"/>
</g>
<g id="clust3" class="cluster">
<title>cluster_AuthModule_imports</title>
<polygon fill="none" stroke="black" points="16,-40.8 16,-92.8 130,-92.8 130,-40.8 16,-40.8"/>
</g>
<!-- PrismaModule -->
<g id="node1" class="node">
<title>PrismaModule</title>
<polygon fill="#8dd3c7" stroke="black" points="122.44,-84.8 119.44,-88.8 98.44,-88.8 95.44,-84.8 23.56,-84.8 23.56,-48.8 122.44,-48.8 122.44,-84.8"/>
<text text-anchor="middle" x="73" y="-62.6" font-family="Times,serif" font-size="14.00">PrismaModule</text>
</g>
<!-- AuthModule -->
<g id="node2" class="node">
<title>AuthModule</title>
<polygon fill="#8dd3c7" stroke="black" points="306.55,-149.8 303.55,-153.8 282.55,-153.8 279.55,-149.8 219.45,-149.8 219.45,-113.8 306.55,-113.8 306.55,-149.8"/>
<text text-anchor="middle" x="263" y="-127.6" font-family="Times,serif" font-size="14.00">AuthModule</text>
</g>
<!-- PrismaModule&#45;&gt;AuthModule -->
<g id="edge1" class="edge">
<title>PrismaModule&#45;&gt;AuthModule</title>
<path fill="none" stroke="black" d="M73,-84.91C73,-104.14 73,-131.8 73,-131.8 73,-131.8 209.41,-131.8 209.41,-131.8"/>
<polygon fill="black" stroke="black" points="209.41,-135.3 219.41,-131.8 209.41,-128.3 209.41,-135.3"/>
</g>
<!-- AuthService  -->
<g id="node3" class="node">
<title>AuthService </title>
<polygon fill="#fb8072" stroke="black" points="307.98,-214.8 218.02,-214.8 218.02,-178.8 307.98,-178.8 307.98,-214.8"/>
<text text-anchor="middle" x="263" y="-192.6" font-family="Times,serif" font-size="14.00">AuthService </text>
</g>
<!-- AuthModule&#45;&gt;AuthService  -->
<g id="edge2" class="edge">
<title>AuthModule&#45;&gt;AuthService </title>
<path fill="none" stroke="black" stroke-dasharray="5,2" d="M263,-149.91C263,-149.91 263,-168.79 263,-168.79"/>
<polygon fill="black" stroke="black" points="259.5,-168.79 263,-178.79 266.5,-168.79 259.5,-168.79"/>
</g>
<!-- AtStrategy -->
<g id="node4" class="node">
<title>AtStrategy</title>
<ellipse fill="#fdb462" stroke="black" cx="458" cy="-66.8" rx="52.75" ry="18"/>
<text text-anchor="middle" x="458" y="-62.6" font-family="Times,serif" font-size="14.00">AtStrategy</text>
</g>
<!-- AtStrategy&#45;&gt;AuthModule -->
<g id="edge3" class="edge">
<title>AtStrategy&#45;&gt;AuthModule</title>
<path fill="none" stroke="black" d="M458,-84.91C458,-104.14 458,-131.8 458,-131.8 458,-131.8 316.76,-131.8 316.76,-131.8"/>
<polygon fill="black" stroke="black" points="316.76,-128.3 306.76,-131.8 316.76,-135.3 316.76,-128.3"/>
</g>
<!-- AuthService -->
<g id="node5" class="node">
<title>AuthService</title>
<ellipse fill="#fdb462" stroke="black" cx="328" cy="-66.8" rx="59.11" ry="18"/>
<text text-anchor="middle" x="328" y="-62.6" font-family="Times,serif" font-size="14.00">AuthService</text>
</g>
<!-- AuthService&#45;&gt;AuthModule -->
<g id="edge4" class="edge">
<title>AuthService&#45;&gt;AuthModule</title>
<path fill="none" stroke="black" d="M287.73,-80.27C287.73,-80.27 287.73,-103.66 287.73,-103.66"/>
<polygon fill="black" stroke="black" points="284.23,-103.66 287.73,-113.66 291.23,-103.66 284.23,-103.66"/>
</g>
<!-- RtStrategy -->
<g id="node6" class="node">
<title>RtStrategy</title>
<ellipse fill="#fdb462" stroke="black" cx="198" cy="-66.8" rx="52.19" ry="18"/>
<text text-anchor="middle" x="198" y="-62.6" font-family="Times,serif" font-size="14.00">RtStrategy</text>
</g>
<!-- RtStrategy&#45;&gt;AuthModule -->
<g id="edge5" class="edge">
<title>RtStrategy&#45;&gt;AuthModule</title>
<path fill="none" stroke="black" d="M234.78,-79.64C234.78,-79.64 234.78,-103.32 234.78,-103.32"/>
<polygon fill="black" stroke="black" points="231.28,-103.32 234.78,-113.32 238.28,-103.32 231.28,-103.32"/>
</g>
</g>
</svg>
