<svg xmlns="http://www.w3.org/2000/svg" xmlns:xlink="http://www.w3.org/1999/xlink" width="142pt" height="232" viewBox="0 0 142 173.8"><g id="graph0" class="graph" transform="scale(1 1) rotate(0) translate(4 169.8)"><title>dependencies</title><polygon fill="#fff" stroke="transparent" points="-4 4 -4 -169.8 138 -169.8 138 4 -4 4"/><text x="67" y="-8.2" font-family="sans-serif" font-size="14" text-anchor="middle">dependencies</text><g id="clust1" class="cluster"><title>cluster_FilesModule</title><polygon fill="none" stroke="#000" stroke-dasharray="1 5" points="8 -32.8 8 -157.8 126 -157.8 126 -32.8 8 -32.8"/></g><g id="clust3" class="cluster"><title>cluster_FilesModule_imports</title><polygon fill="none" stroke="#000" points="16 -40.8 16 -92.8 118 -92.8 118 -40.8 16 -40.8"/></g><g id="node1" class="node"><title>FilesService</title><polygon fill="#8dd3c7" stroke="#000" points="109.71 -84.8 106.71 -88.8 85.71 -88.8 82.71 -84.8 24.29 -84.8 24.29 -48.8 109.71 -48.8 109.71 -84.8"/><text x="67" y="-62.6" font-family="Times,serif" font-size="14" text-anchor="middle">FilesService</text></g><g id="node2" class="node"><title>FilesModule</title><polygon fill="#8dd3c7" stroke="#000" points="110.28 -149.8 107.28 -153.8 86.28 -153.8 83.28 -149.8 23.72 -149.8 23.72 -113.8 110.28 -113.8 110.28 -149.8"/><text x="67" y="-127.6" font-family="Times,serif" font-size="14" text-anchor="middle">FilesModule</text></g><g id="edge1" class="edge"><title>FilesService-&gt;FilesModule</title><path fill="none" stroke="#000" d="M67,-84.91C67,-84.91 67,-103.79 67,-103.79"/><polygon fill="#000" stroke="#000" points="63.5 -103.79 67 -113.79 70.5 -103.79 63.5 -103.79"/></g></g></svg>