<?xml version="1.0" encoding="UTF-8" standalone="no"?>
<!DOCTYPE svg PUBLIC "-//W3C//DTD SVG 1.1//EN"
 "http://www.w3.org/Graphics/SVG/1.1/DTD/svg11.dtd">
<!-- Generated by graphviz version 5.0.0 (20220707.1540)
 -->
<!-- Title: dependencies Pages: 1 -->
<svg width="2860pt" height="394pt"
 viewBox="0.00 0.00 2860.00 393.80" xmlns="http://www.w3.org/2000/svg" xmlns:xlink="http://www.w3.org/1999/xlink">
<g id="graph0" class="graph" transform="scale(1 1) rotate(0) translate(4 389.8)">
<title>dependencies</title>
<polygon fill="white" stroke="transparent" points="-4,4 -4,-389.8 2856,-389.8 2856,4 -4,4"/>
<text text-anchor="middle" x="1426" y="-8.2" font-family="sans-serif" font-size="14.00">dependencies</text>
<g id="clust1" class="cluster">
<title>cluster_AdminModule</title>
<polygon fill="none" stroke="black" stroke-dasharray="1,5" points="2495,-184.8 2495,-312.8 2777,-312.8 2777,-184.8 2495,-184.8"/>
</g>
<g id="clust3" class="cluster">
<title>cluster_AdminModule_imports</title>
<polygon fill="none" stroke="black" points="2661,-192.8 2661,-244.8 2769,-244.8 2769,-192.8 2661,-192.8"/>
</g>
<g id="clust6" class="cluster">
<title>cluster_AdminModule_providers</title>
<polygon fill="none" stroke="black" points="2503,-192.8 2503,-244.8 2653,-244.8 2653,-192.8 2503,-192.8"/>
</g>
<g id="clust7" class="cluster">
<title>cluster_AppModule</title>
<polygon fill="none" stroke="black" stroke-dasharray="1,5" points="917,-108.8 917,-377.8 1561,-377.8 1561,-108.8 917,-108.8"/>
</g>
<g id="clust9" class="cluster">
<title>cluster_AppModule_imports</title>
<polygon fill="none" stroke="black" points="1063,-116.8 1063,-312.8 1553,-312.8 1553,-116.8 1063,-116.8"/>
</g>
<g id="clust12" class="cluster">
<title>cluster_AppModule_providers</title>
<polygon fill="none" stroke="black" points="925,-260.8 925,-312.8 1055,-312.8 1055,-260.8 925,-260.8"/>
</g>
<g id="clust13" class="cluster">
<title>cluster_AuthModule</title>
<polygon fill="none" stroke="black" stroke-dasharray="1,5" points="8,-108.8 8,-176.8 519,-176.8 519,-108.8 8,-108.8"/>
</g>
<g id="clust16" class="cluster">
<title>cluster_AuthModule_exports</title>
<polygon fill="none" stroke="black" points="405,-116.8 405,-168.8 511,-168.8 511,-116.8 405,-116.8"/>
</g>
<g id="clust18" class="cluster">
<title>cluster_AuthModule_providers</title>
<polygon fill="none" stroke="black" points="16,-116.8 16,-168.8 397,-168.8 397,-116.8 16,-116.8"/>
</g>
<g id="clust19" class="cluster">
<title>cluster_ConversationsModule</title>
<polygon fill="none" stroke="black" stroke-dasharray="1,5" points="527,-108.8 527,-176.8 749,-176.8 749,-108.8 527,-108.8"/>
</g>
<g id="clust24" class="cluster">
<title>cluster_ConversationsModule_providers</title>
<polygon fill="none" stroke="black" points="535,-116.8 535,-168.8 741,-168.8 741,-116.8 535,-116.8"/>
</g>
<g id="clust25" class="cluster">
<title>cluster_FilesModule</title>
<polygon fill="none" stroke="black" stroke-dasharray="1,5" points="1055,-32.8 1055,-100.8 1173,-100.8 1173,-32.8 1055,-32.8"/>
</g>
<g id="clust27" class="cluster">
<title>cluster_FilesModule_imports</title>
<polygon fill="none" stroke="black" points="1063,-40.8 1063,-92.8 1165,-92.8 1165,-40.8 1063,-40.8"/>
</g>
<g id="clust37" class="cluster">
<title>cluster_MessagesModule</title>
<polygon fill="none" stroke="black" stroke-dasharray="1,5" points="1394,-32.8 1394,-100.8 1582,-100.8 1582,-32.8 1394,-32.8"/>
</g>
<g id="clust42" class="cluster">
<title>cluster_MessagesModule_providers</title>
<polygon fill="none" stroke="black" points="1402,-40.8 1402,-92.8 1574,-92.8 1574,-40.8 1402,-40.8"/>
</g>
<g id="clust43" class="cluster">
<title>cluster_OauthModule</title>
<polygon fill="none" stroke="black" stroke-dasharray="1,5" points="1867,-184.8 1867,-252.8 2487,-252.8 2487,-184.8 1867,-184.8"/>
</g>
<g id="clust46" class="cluster">
<title>cluster_OauthModule_exports</title>
<polygon fill="none" stroke="black" points="2367,-192.8 2367,-244.8 2479,-244.8 2479,-192.8 2367,-192.8"/>
</g>
<g id="clust48" class="cluster">
<title>cluster_OauthModule_providers</title>
<polygon fill="none" stroke="black" points="1875,-192.8 1875,-244.8 2359,-244.8 2359,-192.8 1875,-192.8"/>
</g>
<g id="clust49" class="cluster">
<title>cluster_PostsModule</title>
<polygon fill="none" stroke="black" stroke-dasharray="1,5" points="757,-108.8 757,-176.8 909,-176.8 909,-108.8 757,-108.8"/>
</g>
<g id="clust54" class="cluster">
<title>cluster_PostsModule_providers</title>
<polygon fill="none" stroke="black" points="765,-116.8 765,-168.8 901,-168.8 901,-116.8 765,-116.8"/>
</g>
<g id="clust55" class="cluster">
<title>cluster_PrismaModule</title>
<polygon fill="none" stroke="black" stroke-dasharray="1,5" points="1569,-184.8 1569,-252.8 1859,-252.8 1859,-184.8 1569,-184.8"/>
</g>
<g id="clust58" class="cluster">
<title>cluster_PrismaModule_exports</title>
<polygon fill="none" stroke="black" points="1735,-192.8 1735,-244.8 1851,-244.8 1851,-192.8 1735,-192.8"/>
</g>
<g id="clust60" class="cluster">
<title>cluster_PrismaModule_providers</title>
<polygon fill="none" stroke="black" points="1577,-192.8 1577,-244.8 1727,-244.8 1727,-192.8 1577,-192.8"/>
</g>
<g id="clust61" class="cluster">
<title>cluster_UsersModule</title>
<polygon fill="none" stroke="black" stroke-dasharray="1,5" points="2570,-108.8 2570,-176.8 2844,-176.8 2844,-108.8 2570,-108.8"/>
</g>
<g id="clust64" class="cluster">
<title>cluster_UsersModule_exports</title>
<polygon fill="none" stroke="black" points="2726,-116.8 2726,-168.8 2836,-168.8 2836,-116.8 2726,-116.8"/>
</g>
<g id="clust66" class="cluster">
<title>cluster_UsersModule_providers</title>
<polygon fill="none" stroke="black" points="2578,-116.8 2578,-168.8 2718,-168.8 2718,-116.8 2578,-116.8"/>
</g>
<!-- UsersModule -->
<g id="node1" class="node">
<title>UsersModule</title>
<polygon fill="#8dd3c7" stroke="black" points="2760.94,-236.8 2757.94,-240.8 2736.94,-240.8 2733.94,-236.8 2669.06,-236.8 2669.06,-200.8 2760.94,-200.8 2760.94,-236.8"/>
<text text-anchor="middle" x="2715" y="-214.6" font-family="Times,serif" font-size="14.00">UsersModule</text>
</g>
<!-- AdminModule -->
<g id="node2" class="node">
<title>AdminModule</title>
<polygon fill="#8dd3c7" stroke="black" points="2627.44,-304.8 2624.44,-308.8 2603.44,-308.8 2600.44,-304.8 2528.56,-304.8 2528.56,-268.8 2627.44,-268.8 2627.44,-304.8"/>
<text text-anchor="middle" x="2578" y="-282.6" font-family="Times,serif" font-size="14.00">AdminModule</text>
</g>
<!-- UsersModule&#45;&gt;AdminModule -->
<g id="edge1" class="edge">
<title>UsersModule&#45;&gt;AdminModule</title>
<path fill="none" stroke="black" d="M2715,-237.02C2715,-257.17 2715,-286.8 2715,-286.8 2715,-286.8 2637.46,-286.8 2637.46,-286.8"/>
<polygon fill="black" stroke="black" points="2637.46,-283.3 2627.46,-286.8 2637.46,-290.3 2637.46,-283.3"/>
</g>
<!-- ConversationsModule -->
<g id="node5" class="node">
<title>ConversationsModule</title>
<polygon fill="#8dd3c7" stroke="black" points="1398.66,-236.8 1395.66,-240.8 1374.66,-240.8 1371.66,-236.8 1259.34,-236.8 1259.34,-200.8 1398.66,-200.8 1398.66,-236.8"/>
<text text-anchor="middle" x="1329" y="-214.6" font-family="Times,serif" font-size="14.00">ConversationsModule</text>
</g>
<!-- UsersModule&#45;&gt;ConversationsModule -->
<g id="edge20" class="edge">
<title>UsersModule&#45;&gt;ConversationsModule</title>
<path fill="none" stroke="black" d="M2692.14,-236.99C2692.14,-245.08 2692.14,-252.8 2692.14,-252.8 2692.14,-252.8 1363.08,-252.8 1363.08,-252.8 1363.08,-252.8 1363.08,-246.99 1363.08,-246.99"/>
<polygon fill="black" stroke="black" points="1366.58,-246.99 1363.08,-236.99 1359.58,-246.99 1366.58,-246.99"/>
</g>
<!-- PostsModule -->
<g id="node10" class="node">
<title>PostsModule</title>
<polygon fill="#8dd3c7" stroke="black" points="1505.62,-236.8 1502.62,-240.8 1481.62,-240.8 1478.62,-236.8 1416.38,-236.8 1416.38,-200.8 1505.62,-200.8 1505.62,-236.8"/>
<text text-anchor="middle" x="1461" y="-214.6" font-family="Times,serif" font-size="14.00">PostsModule</text>
</g>
<!-- UsersModule&#45;&gt;PostsModule -->
<g id="edge30" class="edge">
<title>UsersModule&#45;&gt;PostsModule</title>
<path fill="none" stroke="black" d="M2693.7,-200.65C2693.7,-188.53 2693.7,-174.8 2693.7,-174.8 2693.7,-174.8 1468.28,-174.8 1468.28,-174.8 1468.28,-174.8 1468.28,-190.65 1468.28,-190.65"/>
<polygon fill="black" stroke="black" points="1464.78,-190.65 1468.28,-200.65 1471.78,-190.65 1464.78,-190.65"/>
</g>
<!-- AppModule -->
<g id="node12" class="node">
<title>AppModule</title>
<polygon fill="#8dd3c7" stroke="black" points="1434.66,-369.8 1431.66,-373.8 1410.66,-373.8 1407.66,-369.8 1351.34,-369.8 1351.34,-333.8 1434.66,-333.8 1434.66,-369.8"/>
<text text-anchor="middle" x="1393" y="-347.6" font-family="Times,serif" font-size="14.00">AppModule</text>
</g>
<!-- UsersModule&#45;&gt;AppModule -->
<g id="edge12" class="edge">
<title>UsersModule&#45;&gt;AppModule</title>
<path fill="none" stroke="black" d="M2737.86,-237.07C2737.86,-275.43 2737.86,-360.8 2737.86,-360.8 2737.86,-360.8 1444.72,-360.8 1444.72,-360.8"/>
<polygon fill="black" stroke="black" points="1444.72,-357.3 1434.72,-360.8 1444.72,-364.3 1444.72,-357.3"/>
</g>
<!-- UsersService  -->
<g id="node28" class="node">
<title>UsersService </title>
<polygon fill="#fb8072" stroke="black" points="2827.86,-160.8 2734.14,-160.8 2734.14,-124.8 2827.86,-124.8 2827.86,-160.8"/>
<text text-anchor="middle" x="2781" y="-138.6" font-family="Times,serif" font-size="14.00">UsersService </text>
</g>
<!-- UsersModule&#45;&gt;UsersService  -->
<g id="edge36" class="edge">
<title>UsersModule&#45;&gt;UsersService </title>
<path fill="none" stroke="black" stroke-dasharray="5,2" d="M2747.52,-200.79C2747.52,-200.79 2747.52,-170.95 2747.52,-170.95"/>
<polygon fill="black" stroke="black" points="2751.02,-170.95 2747.52,-160.95 2744.02,-170.95 2751.02,-170.95"/>
</g>
<!-- AdminModule&#45;&gt;AppModule -->
<g id="edge3" class="edge">
<title>AdminModule&#45;&gt;AppModule</title>
<path fill="none" stroke="black" d="M2578,-304.91C2578,-324.14 2578,-351.8 2578,-351.8 2578,-351.8 1444.83,-351.8 1444.83,-351.8"/>
<polygon fill="black" stroke="black" points="1444.83,-348.3 1434.83,-351.8 1444.83,-355.3 1444.83,-348.3"/>
</g>
<!-- AdminService -->
<g id="node3" class="node">
<title>AdminService</title>
<ellipse fill="#fdb462" stroke="black" cx="2578" cy="-218.8" rx="66.64" ry="18"/>
<text text-anchor="middle" x="2578" y="-214.6" font-family="Times,serif" font-size="14.00">AdminService</text>
</g>
<!-- AdminService&#45;&gt;AdminModule -->
<g id="edge2" class="edge">
<title>AdminService&#45;&gt;AdminModule</title>
<path fill="none" stroke="black" d="M2578,-237.02C2578,-237.02 2578,-258.53 2578,-258.53"/>
<polygon fill="black" stroke="black" points="2574.5,-258.53 2578,-268.53 2581.5,-258.53 2574.5,-258.53"/>
</g>
<!-- AuthModule -->
<g id="node4" class="node">
<title>AuthModule</title>
<polygon fill="#8dd3c7" stroke="black" points="1240.55,-236.8 1237.55,-240.8 1216.55,-240.8 1213.55,-236.8 1153.45,-236.8 1153.45,-200.8 1240.55,-200.8 1240.55,-236.8"/>
<text text-anchor="middle" x="1197" y="-214.6" font-family="Times,serif" font-size="14.00">AuthModule</text>
</g>
<!-- AuthModule&#45;&gt;UsersModule -->
<g id="edge34" class="edge">
<title>AuthModule&#45;&gt;UsersModule</title>
<path fill="none" stroke="black" d="M1219.11,-200.55C1219.11,-186.62 1219.11,-169.8 1219.11,-169.8 1219.11,-169.8 2677.42,-169.8 2677.42,-169.8 2677.42,-169.8 2677.42,-190.55 2677.42,-190.55"/>
<polygon fill="black" stroke="black" points="2673.92,-190.55 2677.42,-200.55 2680.92,-190.55 2673.92,-190.55"/>
</g>
<!-- OauthModule -->
<g id="node9" class="node">
<title>OauthModule</title>
<polygon fill="#8dd3c7" stroke="black" points="1505.77,-304.8 1502.77,-308.8 1481.77,-308.8 1478.77,-304.8 1412.23,-304.8 1412.23,-268.8 1505.77,-268.8 1505.77,-304.8"/>
<text text-anchor="middle" x="1459" y="-282.6" font-family="Times,serif" font-size="14.00">OauthModule</text>
</g>
<!-- AuthModule&#45;&gt;OauthModule -->
<g id="edge24" class="edge">
<title>AuthModule&#45;&gt;OauthModule</title>
<path fill="none" stroke="black" d="M1211.59,-237.07C1211.59,-255.36 1211.59,-280.8 1211.59,-280.8 1211.59,-280.8 1402.17,-280.8 1402.17,-280.8"/>
<polygon fill="black" stroke="black" points="1402.17,-284.3 1412.17,-280.8 1402.17,-277.3 1402.17,-284.3"/>
</g>
<!-- AuthModule&#45;&gt;AppModule -->
<g id="edge4" class="edge">
<title>AuthModule&#45;&gt;AppModule</title>
<path fill="none" stroke="black" d="M1182.41,-237.01C1182.41,-273.44 1182.41,-351.8 1182.41,-351.8 1182.41,-351.8 1341.14,-351.8 1341.14,-351.8"/>
<polygon fill="black" stroke="black" points="1341.14,-355.3 1351.14,-351.8 1341.14,-348.3 1341.14,-355.3"/>
</g>
<!-- AuthService  -->
<g id="node14" class="node">
<title>AuthService </title>
<polygon fill="#fb8072" stroke="black" points="502.98,-160.8 413.02,-160.8 413.02,-124.8 502.98,-124.8 502.98,-160.8"/>
<text text-anchor="middle" x="458" y="-138.6" font-family="Times,serif" font-size="14.00">AuthService </text>
</g>
<!-- AuthModule&#45;&gt;AuthService  -->
<g id="edge15" class="edge">
<title>AuthModule&#45;&gt;AuthService </title>
<path fill="none" stroke="black" stroke-dasharray="5,2" d="M1153.26,-208.8C994.51,-208.8 458,-208.8 458,-208.8 458,-208.8 458,-170.83 458,-170.83"/>
<polygon fill="black" stroke="black" points="461.5,-170.83 458,-160.83 454.5,-170.83 461.5,-170.83"/>
</g>
<!-- ConversationsModule&#45;&gt;AppModule -->
<g id="edge5" class="edge">
<title>ConversationsModule&#45;&gt;AppModule</title>
<path fill="none" stroke="black" d="M1386.91,-237.01C1386.91,-237.01 1386.91,-323.38 1386.91,-323.38"/>
<polygon fill="black" stroke="black" points="1383.41,-323.38 1386.91,-333.38 1390.41,-323.38 1383.41,-323.38"/>
</g>
<!-- FilesModule -->
<g id="node6" class="node">
<title>FilesModule</title>
<polygon fill="#8dd3c7" stroke="black" points="1157.28,-160.8 1154.28,-164.8 1133.28,-164.8 1130.28,-160.8 1070.72,-160.8 1070.72,-124.8 1157.28,-124.8 1157.28,-160.8"/>
<text text-anchor="middle" x="1114" y="-138.6" font-family="Times,serif" font-size="14.00">FilesModule</text>
</g>
<!-- FilesModule&#45;&gt;AppModule -->
<g id="edge6" class="edge">
<title>FilesModule&#45;&gt;AppModule</title>
<path fill="none" stroke="black" d="M1111.92,-161.01C1111.92,-213.41 1111.92,-360.8 1111.92,-360.8 1111.92,-360.8 1341.22,-360.8 1341.22,-360.8"/>
<polygon fill="black" stroke="black" points="1341.22,-364.3 1351.22,-360.8 1341.22,-357.3 1341.22,-364.3"/>
</g>
<!-- InterceptorModule -->
<g id="node7" class="node">
<title>InterceptorModule</title>
<polygon fill="#8dd3c7" stroke="black" points="1413.46,-160.8 1410.46,-164.8 1389.46,-164.8 1386.46,-160.8 1292.54,-160.8 1292.54,-124.8 1413.46,-124.8 1413.46,-160.8"/>
<text text-anchor="middle" x="1353" y="-138.6" font-family="Times,serif" font-size="14.00">InterceptorModule</text>
</g>
<!-- InterceptorModule&#45;&gt;AppModule -->
<g id="edge7" class="edge">
<title>InterceptorModule&#45;&gt;AppModule</title>
<path fill="none" stroke="black" d="M1403.26,-160.98C1403.26,-160.98 1403.26,-323.51 1403.26,-323.51"/>
<polygon fill="black" stroke="black" points="1399.76,-323.51 1403.26,-333.51 1406.76,-323.51 1399.76,-323.51"/>
</g>
<!-- MessagesModule -->
<g id="node8" class="node">
<title>MessagesModule</title>
<polygon fill="#8dd3c7" stroke="black" points="1544.99,-160.8 1541.99,-164.8 1520.99,-164.8 1517.99,-160.8 1431.01,-160.8 1431.01,-124.8 1544.99,-124.8 1544.99,-160.8"/>
<text text-anchor="middle" x="1488" y="-138.6" font-family="Times,serif" font-size="14.00">MessagesModule</text>
</g>
<!-- MessagesModule&#45;&gt;AppModule -->
<g id="edge8" class="edge">
<title>MessagesModule&#45;&gt;AppModule</title>
<path fill="none" stroke="black" d="M1525.44,-160.9C1525.44,-210.13 1525.44,-342.8 1525.44,-342.8 1525.44,-342.8 1444.9,-342.8 1444.9,-342.8"/>
<polygon fill="black" stroke="black" points="1444.9,-339.3 1434.9,-342.8 1444.9,-346.3 1444.9,-339.3"/>
</g>
<!-- OauthModule&#45;&gt;AppModule -->
<g id="edge9" class="edge">
<title>OauthModule&#45;&gt;AppModule</title>
<path fill="none" stroke="black" d="M1423.47,-304.91C1423.47,-304.91 1423.47,-323.79 1423.47,-323.79"/>
<polygon fill="black" stroke="black" points="1419.97,-323.79 1423.47,-333.79 1426.97,-323.79 1419.97,-323.79"/>
</g>
<!-- OauthService  -->
<g id="node21" class="node">
<title>OauthService </title>
<polygon fill="#fb8072" stroke="black" points="2470.69,-236.8 2375.31,-236.8 2375.31,-200.8 2470.69,-200.8 2470.69,-236.8"/>
<text text-anchor="middle" x="2423" y="-214.6" font-family="Times,serif" font-size="14.00">OauthService </text>
</g>
<!-- OauthModule&#45;&gt;OauthService  -->
<g id="edge25" class="edge">
<title>OauthModule&#45;&gt;OauthService </title>
<path fill="none" stroke="black" stroke-dasharray="5,2" d="M1505.82,-297.8C1698.87,-297.8 2423,-297.8 2423,-297.8 2423,-297.8 2423,-247.12 2423,-247.12"/>
<polygon fill="black" stroke="black" points="2426.5,-247.12 2423,-237.12 2419.5,-247.12 2426.5,-247.12"/>
</g>
<!-- PostsModule&#45;&gt;AppModule -->
<g id="edge10" class="edge">
<title>PostsModule&#45;&gt;AppModule</title>
<path fill="none" stroke="black" d="M1416.02,-218.8C1411.02,-218.8 1407.69,-218.8 1407.69,-218.8 1407.69,-218.8 1407.69,-323.59 1407.69,-323.59"/>
<polygon fill="black" stroke="black" points="1404.19,-323.59 1407.69,-333.59 1411.19,-323.59 1404.19,-323.59"/>
</g>
<!-- PrismaModule -->
<g id="node11" class="node">
<title>PrismaModule</title>
<polygon fill="#8dd3c7" stroke="black" points="1274.44,-160.8 1271.44,-164.8 1250.44,-164.8 1247.44,-160.8 1175.56,-160.8 1175.56,-124.8 1274.44,-124.8 1274.44,-160.8"/>
<text text-anchor="middle" x="1225" y="-138.6" font-family="Times,serif" font-size="14.00">PrismaModule</text>
</g>
<!-- PrismaModule&#45;&gt;UsersModule -->
<g id="edge35" class="edge">
<title>PrismaModule&#45;&gt;UsersModule</title>
<path fill="none" stroke="black" d="M1272.07,-160.92C1272.07,-163.77 1272.07,-165.8 1272.07,-165.8 1272.07,-165.8 2685.56,-165.8 2685.56,-165.8 2685.56,-165.8 2685.56,-190.56 2685.56,-190.56"/>
<polygon fill="black" stroke="black" points="2682.06,-190.56 2685.56,-200.56 2689.06,-190.56 2682.06,-190.56"/>
</g>
<!-- PrismaModule&#45;&gt;AuthModule -->
<g id="edge14" class="edge">
<title>PrismaModule&#45;&gt;AuthModule</title>
<path fill="none" stroke="black" d="M1197.44,-160.81C1197.44,-160.81 1197.44,-190.65 1197.44,-190.65"/>
<polygon fill="black" stroke="black" points="1193.94,-190.65 1197.44,-200.65 1200.94,-190.65 1193.94,-190.65"/>
</g>
<!-- PrismaModule&#45;&gt;ConversationsModule -->
<g id="edge19" class="edge">
<title>PrismaModule&#45;&gt;ConversationsModule</title>
<path fill="none" stroke="black" d="M1263.47,-160.81C1263.47,-160.81 1263.47,-190.65 1263.47,-190.65"/>
<polygon fill="black" stroke="black" points="1259.97,-190.65 1263.47,-200.65 1266.97,-190.65 1259.97,-190.65"/>
</g>
<!-- PrismaModule&#45;&gt;PostsModule -->
<g id="edge29" class="edge">
<title>PrismaModule&#45;&gt;PostsModule</title>
<path fill="none" stroke="black" d="M1267.77,-160.84C1267.77,-173.36 1267.77,-187.8 1267.77,-187.8 1267.77,-187.8 1426.15,-187.8 1426.15,-187.8 1426.15,-187.8 1426.15,-190.77 1426.15,-190.77"/>
<polygon fill="black" stroke="black" points="1422.65,-190.77 1426.15,-200.77 1429.65,-190.77 1422.65,-190.77"/>
</g>
<!-- PrismaModule&#45;&gt;AppModule -->
<g id="edge11" class="edge">
<title>PrismaModule&#45;&gt;AppModule</title>
<path fill="none" stroke="black" d="M1249.97,-160.9C1249.97,-210.13 1249.97,-342.8 1249.97,-342.8 1249.97,-342.8 1341.25,-342.8 1341.25,-342.8"/>
<polygon fill="black" stroke="black" points="1341.25,-346.3 1351.25,-342.8 1341.25,-339.3 1341.25,-346.3"/>
</g>
<!-- PrismaService  -->
<g id="node26" class="node">
<title>PrismaService </title>
<polygon fill="#fb8072" stroke="black" points="1843.37,-236.8 1742.63,-236.8 1742.63,-200.8 1843.37,-200.8 1843.37,-236.8"/>
<text text-anchor="middle" x="1793" y="-214.6" font-family="Times,serif" font-size="14.00">PrismaService </text>
</g>
<!-- PrismaModule&#45;&gt;PrismaService  -->
<g id="edge32" class="edge">
<title>PrismaModule&#45;&gt;PrismaService </title>
<path fill="none" stroke="black" stroke-dasharray="5,2" d="M1269.92,-161.22C1269.92,-170.08 1269.92,-178.8 1269.92,-178.8 1269.92,-178.8 1793,-178.8 1793,-178.8 1793,-178.8 1793,-190.67 1793,-190.67"/>
<polygon fill="black" stroke="black" points="1789.5,-190.67 1793,-200.67 1796.5,-190.67 1789.5,-190.67"/>
</g>
<!-- AppService -->
<g id="node13" class="node">
<title>AppService</title>
<ellipse fill="#fdb462" stroke="black" cx="990" cy="-286.8" rx="56.75" ry="18"/>
<text text-anchor="middle" x="990" y="-282.6" font-family="Times,serif" font-size="14.00">AppService</text>
</g>
<!-- AppService&#45;&gt;AppModule -->
<g id="edge13" class="edge">
<title>AppService&#45;&gt;AppModule</title>
<path fill="none" stroke="black" d="M1043.53,-292.8C1149.32,-292.8 1375,-292.8 1375,-292.8 1375,-292.8 1375,-323.78 1375,-323.78"/>
<polygon fill="black" stroke="black" points="1371.5,-323.78 1375,-333.78 1378.5,-323.78 1371.5,-323.78"/>
</g>
<!-- AtStrategy -->
<g id="node15" class="node">
<title>AtStrategy</title>
<ellipse fill="#fdb462" stroke="black" cx="336" cy="-142.8" rx="52.75" ry="18"/>
<text text-anchor="middle" x="336" y="-138.6" font-family="Times,serif" font-size="14.00">AtStrategy</text>
</g>
<!-- AtStrategy&#45;&gt;AuthModule -->
<g id="edge16" class="edge">
<title>AtStrategy&#45;&gt;AuthModule</title>
<path fill="none" stroke="black" d="M336,-160.84C336,-182.46 336,-215.8 336,-215.8 336,-215.8 1143.42,-215.8 1143.42,-215.8"/>
<polygon fill="black" stroke="black" points="1143.42,-219.3 1153.42,-215.8 1143.42,-212.3 1143.42,-219.3"/>
</g>
<!-- AuthService -->
<g id="node16" class="node">
<title>AuthService</title>
<ellipse fill="#fdb462" stroke="black" cx="206" cy="-142.8" rx="59.11" ry="18"/>
<text text-anchor="middle" x="206" y="-138.6" font-family="Times,serif" font-size="14.00">AuthService</text>
</g>
<!-- AuthService&#45;&gt;AuthModule -->
<g id="edge17" class="edge">
<title>AuthService&#45;&gt;AuthModule</title>
<path fill="none" stroke="black" d="M206,-160.95C206,-184.56 206,-222.8 206,-222.8 206,-222.8 1143.14,-222.8 1143.14,-222.8"/>
<polygon fill="black" stroke="black" points="1143.14,-226.3 1153.14,-222.8 1143.14,-219.3 1143.14,-226.3"/>
</g>
<!-- RtStrategy -->
<g id="node17" class="node">
<title>RtStrategy</title>
<ellipse fill="#fdb462" stroke="black" cx="76" cy="-142.8" rx="52.19" ry="18"/>
<text text-anchor="middle" x="76" y="-138.6" font-family="Times,serif" font-size="14.00">RtStrategy</text>
</g>
<!-- RtStrategy&#45;&gt;AuthModule -->
<g id="edge18" class="edge">
<title>RtStrategy&#45;&gt;AuthModule</title>
<path fill="none" stroke="black" d="M76,-160.83C76,-186.31 76,-229.8 76,-229.8 76,-229.8 1143.4,-229.8 1143.4,-229.8"/>
<polygon fill="black" stroke="black" points="1143.4,-233.3 1153.4,-229.8 1143.4,-226.3 1143.4,-233.3"/>
</g>
<!-- ConversationsService -->
<g id="node18" class="node">
<title>ConversationsService</title>
<ellipse fill="#fdb462" stroke="black" cx="638" cy="-142.8" rx="95.49" ry="18"/>
<text text-anchor="middle" x="638" y="-138.6" font-family="Times,serif" font-size="14.00">ConversationsService</text>
</g>
<!-- ConversationsService&#45;&gt;ConversationsModule -->
<g id="edge21" class="edge">
<title>ConversationsService&#45;&gt;ConversationsModule</title>
<path fill="none" stroke="black" d="M638,-161.08C638,-176.75 638,-196.8 638,-196.8 638,-196.8 1261.32,-196.8 1261.32,-196.8 1261.32,-196.8 1261.32,-197.18 1261.32,-197.18"/>
<polygon fill="black" stroke="black" points="1257.82,-190.63 1261.32,-200.63 1264.82,-190.63 1257.82,-190.63"/>
</g>
<!-- FilesService -->
<g id="node19" class="node">
<title>FilesService</title>
<polygon fill="#8dd3c7" stroke="black" points="1156.71,-84.8 1153.71,-88.8 1132.71,-88.8 1129.71,-84.8 1071.29,-84.8 1071.29,-48.8 1156.71,-48.8 1156.71,-84.8"/>
<text text-anchor="middle" x="1114" y="-62.6" font-family="Times,serif" font-size="14.00">FilesService</text>
</g>
<!-- FilesService&#45;&gt;FilesModule -->
<g id="edge22" class="edge">
<title>FilesService&#45;&gt;FilesModule</title>
<path fill="none" stroke="black" d="M1114,-84.81C1114,-84.81 1114,-114.65 1114,-114.65"/>
<polygon fill="black" stroke="black" points="1110.5,-114.65 1114,-124.65 1117.5,-114.65 1110.5,-114.65"/>
</g>
<!-- MessagesService -->
<g id="node20" class="node">
<title>MessagesService</title>
<ellipse fill="#fdb462" stroke="black" cx="1488" cy="-66.8" rx="77.58" ry="18"/>
<text text-anchor="middle" x="1488" y="-62.6" font-family="Times,serif" font-size="14.00">MessagesService</text>
</g>
<!-- MessagesService&#45;&gt;MessagesModule -->
<g id="edge23" class="edge">
<title>MessagesService&#45;&gt;MessagesModule</title>
<path fill="none" stroke="black" d="M1488,-84.81C1488,-84.81 1488,-114.65 1488,-114.65"/>
<polygon fill="black" stroke="black" points="1484.5,-114.65 1488,-124.65 1491.5,-114.65 1484.5,-114.65"/>
</g>
<!-- FacebookStrategy -->
<g id="node22" class="node">
<title>FacebookStrategy</title>
<ellipse fill="#fdb462" stroke="black" cx="2270" cy="-218.8" rx="80.52" ry="18"/>
<text text-anchor="middle" x="2270" y="-214.6" font-family="Times,serif" font-size="14.00">FacebookStrategy</text>
</g>
<!-- FacebookStrategy&#45;&gt;OauthModule -->
<g id="edge26" class="edge">
<title>FacebookStrategy&#45;&gt;OauthModule</title>
<path fill="none" stroke="black" d="M2270,-236.97C2270,-258.3 2270,-290.8 2270,-290.8 2270,-290.8 1515.81,-290.8 1515.81,-290.8"/>
<polygon fill="black" stroke="black" points="1515.81,-287.3 1505.81,-290.8 1515.81,-294.3 1515.81,-287.3"/>
</g>
<!-- GoogleStrategy -->
<g id="node23" class="node">
<title>GoogleStrategy</title>
<ellipse fill="#fdb462" stroke="black" cx="2100" cy="-218.8" rx="71.79" ry="18"/>
<text text-anchor="middle" x="2100" y="-214.6" font-family="Times,serif" font-size="14.00">GoogleStrategy</text>
</g>
<!-- GoogleStrategy&#45;&gt;OauthModule -->
<g id="edge27" class="edge">
<title>GoogleStrategy&#45;&gt;OauthModule</title>
<path fill="none" stroke="black" d="M2100,-236.91C2100,-256.14 2100,-283.8 2100,-283.8 2100,-283.8 1515.87,-283.8 1515.87,-283.8"/>
<polygon fill="black" stroke="black" points="1515.87,-280.3 1505.87,-283.8 1515.87,-287.3 1515.87,-280.3"/>
</g>
<!-- OauthService -->
<g id="node24" class="node">
<title>OauthService</title>
<ellipse fill="#fdb462" stroke="black" cx="1947" cy="-218.8" rx="63.69" ry="18"/>
<text text-anchor="middle" x="1947" y="-214.6" font-family="Times,serif" font-size="14.00">OauthService</text>
</g>
<!-- OauthService&#45;&gt;OauthModule -->
<g id="edge28" class="edge">
<title>OauthService&#45;&gt;OauthModule</title>
<path fill="none" stroke="black" d="M1947,-236.83C1947,-253.86 1947,-276.8 1947,-276.8 1947,-276.8 1515.79,-276.8 1515.79,-276.8"/>
<polygon fill="black" stroke="black" points="1515.79,-273.3 1505.79,-276.8 1515.79,-280.3 1515.79,-273.3"/>
</g>
<!-- PostsService -->
<g id="node25" class="node">
<title>PostsService</title>
<ellipse fill="#fdb462" stroke="black" cx="833" cy="-142.8" rx="60.28" ry="18"/>
<text text-anchor="middle" x="833" y="-138.6" font-family="Times,serif" font-size="14.00">PostsService</text>
</g>
<!-- PostsService&#45;&gt;PostsModule -->
<g id="edge31" class="edge">
<title>PostsService&#45;&gt;PostsModule</title>
<path fill="none" stroke="black" d="M833,-160.85C833,-175.17 833,-192.8 833,-192.8 833,-192.8 1421.29,-192.8 1421.29,-192.8 1421.29,-192.8 1421.29,-193.59 1421.29,-193.59"/>
<polygon fill="black" stroke="black" points="1417.79,-190.74 1421.29,-200.74 1424.79,-190.74 1417.79,-190.74"/>
</g>
<!-- PrismaService -->
<g id="node27" class="node">
<title>PrismaService</title>
<ellipse fill="#fdb462" stroke="black" cx="1652" cy="-218.8" rx="66.64" ry="18"/>
<text text-anchor="middle" x="1652" y="-214.6" font-family="Times,serif" font-size="14.00">PrismaService</text>
</g>
<!-- PrismaService&#45;&gt;PrismaModule -->
<g id="edge33" class="edge">
<title>PrismaService&#45;&gt;PrismaModule</title>
<path fill="none" stroke="black" d="M1652,-200.48C1652,-192.01 1652,-183.8 1652,-183.8 1652,-183.8 1265.62,-183.8 1265.62,-183.8 1265.62,-183.8 1265.62,-170.9 1265.62,-170.9"/>
<polygon fill="black" stroke="black" points="1269.12,-170.9 1265.62,-160.9 1262.12,-170.9 1269.12,-170.9"/>
</g>
<!-- UsersService -->
<g id="node29" class="node">
<title>UsersService</title>
<ellipse fill="#fdb462" stroke="black" cx="2648" cy="-142.8" rx="61.97" ry="18"/>
<text text-anchor="middle" x="2648" y="-138.6" font-family="Times,serif" font-size="14.00">UsersService</text>
</g>
<!-- UsersService&#45;&gt;UsersModule -->
<g id="edge37" class="edge">
<title>UsersService&#45;&gt;UsersModule</title>
<path fill="none" stroke="black" d="M2701.84,-151.82C2701.84,-151.82 2701.84,-190.54 2701.84,-190.54"/>
<polygon fill="black" stroke="black" points="2698.34,-190.54 2701.84,-200.54 2705.34,-190.54 2698.34,-190.54"/>
</g>
</g>
</svg>
