<?xml version="1.0" encoding="UTF-8" standalone="no"?>
<!DOCTYPE svg PUBLIC "-//W3C//DTD SVG 1.1//EN"
 "http://www.w3.org/Graphics/SVG/1.1/DTD/svg11.dtd">
<!-- Generated by graphviz version 5.0.0 (20220707.1540)
 -->
<!-- Title: dependencies Pages: 1 -->
<svg width="2898pt" height="402pt"
 viewBox="0.00 0.00 2898.00 401.80" xmlns="http://www.w3.org/2000/svg" xmlns:xlink="http://www.w3.org/1999/xlink">
<g id="graph0" class="graph" transform="scale(1 1) rotate(0) translate(4 397.8)">
<title>dependencies</title>
<polygon fill="white" stroke="transparent" points="-4,4 -4,-397.8 2894,-397.8 2894,4 -4,4"/>
<text text-anchor="middle" x="1445" y="-8.2" font-family="sans-serif" font-size="14.00">dependencies</text>
<g id="clust1" class="cluster">
<title>cluster_AdminModule</title>
<polygon fill="none" stroke="black" stroke-dasharray="1,5" points="2302,-184.8 2302,-320.8 2584,-320.8 2584,-184.8 2302,-184.8"/>
</g>
<g id="clust3" class="cluster">
<title>cluster_AdminModule_imports</title>
<polygon fill="none" stroke="black" points="2468,-192.8 2468,-244.8 2576,-244.8 2576,-192.8 2468,-192.8"/>
</g>
<g id="clust6" class="cluster">
<title>cluster_AdminModule_providers</title>
<polygon fill="none" stroke="black" points="2310,-192.8 2310,-244.8 2460,-244.8 2460,-192.8 2310,-192.8"/>
</g>
<g id="clust7" class="cluster">
<title>cluster_AppModule</title>
<polygon fill="none" stroke="black" stroke-dasharray="1,5" points="916,-108.8 916,-385.8 1666,-385.8 1666,-108.8 916,-108.8"/>
</g>
<g id="clust9" class="cluster">
<title>cluster_AppModule_imports</title>
<polygon fill="none" stroke="black" points="1062,-116.8 1062,-320.8 1658,-320.8 1658,-116.8 1062,-116.8"/>
</g>
<g id="clust12" class="cluster">
<title>cluster_AppModule_providers</title>
<polygon fill="none" stroke="black" points="924,-268.8 924,-320.8 1054,-320.8 1054,-268.8 924,-268.8"/>
</g>
<g id="clust13" class="cluster">
<title>cluster_AuthModule</title>
<polygon fill="none" stroke="black" stroke-dasharray="1,5" points="8,-108.8 8,-176.8 518,-176.8 518,-108.8 8,-108.8"/>
</g>
<g id="clust16" class="cluster">
<title>cluster_AuthModule_exports</title>
<polygon fill="none" stroke="black" points="404,-116.8 404,-168.8 510,-168.8 510,-116.8 404,-116.8"/>
</g>
<g id="clust18" class="cluster">
<title>cluster_AuthModule_providers</title>
<polygon fill="none" stroke="black" points="16,-116.8 16,-168.8 396,-168.8 396,-116.8 16,-116.8"/>
</g>
<g id="clust19" class="cluster">
<title>cluster_ConversationsModule</title>
<polygon fill="none" stroke="black" stroke-dasharray="1,5" points="526,-108.8 526,-176.8 748,-176.8 748,-108.8 526,-108.8"/>
</g>
<g id="clust24" class="cluster">
<title>cluster_ConversationsModule_providers</title>
<polygon fill="none" stroke="black" points="534,-116.8 534,-168.8 740,-168.8 740,-116.8 534,-116.8"/>
</g>
<g id="clust25" class="cluster">
<title>cluster_FilesModule</title>
<polygon fill="none" stroke="black" stroke-dasharray="1,5" points="1032,-32.8 1032,-100.8 1150,-100.8 1150,-32.8 1032,-32.8"/>
</g>
<g id="clust27" class="cluster">
<title>cluster_FilesModule_imports</title>
<polygon fill="none" stroke="black" points="1040,-40.8 1040,-92.8 1142,-92.8 1142,-40.8 1040,-40.8"/>
</g>
<g id="clust43" class="cluster">
<title>cluster_MessagesModule</title>
<polygon fill="none" stroke="black" stroke-dasharray="1,5" points="1158,-32.8 1158,-100.8 1346,-100.8 1346,-32.8 1158,-32.8"/>
</g>
<g id="clust48" class="cluster">
<title>cluster_MessagesModule_providers</title>
<polygon fill="none" stroke="black" points="1166,-40.8 1166,-92.8 1338,-92.8 1338,-40.8 1166,-40.8"/>
</g>
<g id="clust49" class="cluster">
<title>cluster_OauthModule</title>
<polygon fill="none" stroke="black" stroke-dasharray="1,5" points="1674,-184.8 1674,-252.8 2294,-252.8 2294,-184.8 1674,-184.8"/>
</g>
<g id="clust52" class="cluster">
<title>cluster_OauthModule_exports</title>
<polygon fill="none" stroke="black" points="2174,-192.8 2174,-244.8 2286,-244.8 2286,-192.8 2174,-192.8"/>
</g>
<g id="clust54" class="cluster">
<title>cluster_OauthModule_providers</title>
<polygon fill="none" stroke="black" points="1682,-192.8 1682,-244.8 2166,-244.8 2166,-192.8 1682,-192.8"/>
</g>
<g id="clust55" class="cluster">
<title>cluster_PostsModule</title>
<polygon fill="none" stroke="black" stroke-dasharray="1,5" points="756,-108.8 756,-176.8 908,-176.8 908,-108.8 756,-108.8"/>
</g>
<g id="clust60" class="cluster">
<title>cluster_PostsModule_providers</title>
<polygon fill="none" stroke="black" points="764,-116.8 764,-168.8 900,-168.8 900,-116.8 764,-116.8"/>
</g>
<g id="clust61" class="cluster">
<title>cluster_PrismaModule</title>
<polygon fill="none" stroke="black" stroke-dasharray="1,5" points="2592,-184.8 2592,-252.8 2882,-252.8 2882,-184.8 2592,-184.8"/>
</g>
<g id="clust64" class="cluster">
<title>cluster_PrismaModule_exports</title>
<polygon fill="none" stroke="black" points="2758,-192.8 2758,-244.8 2874,-244.8 2874,-192.8 2758,-192.8"/>
</g>
<g id="clust66" class="cluster">
<title>cluster_PrismaModule_providers</title>
<polygon fill="none" stroke="black" points="2600,-192.8 2600,-244.8 2750,-244.8 2750,-192.8 2600,-192.8"/>
</g>
<g id="clust67" class="cluster">
<title>cluster_UsersModule</title>
<polygon fill="none" stroke="black" stroke-dasharray="1,5" points="2592,-260.8 2592,-328.8 2866,-328.8 2866,-260.8 2592,-260.8"/>
</g>
<g id="clust70" class="cluster">
<title>cluster_UsersModule_exports</title>
<polygon fill="none" stroke="black" points="2748,-268.8 2748,-320.8 2858,-320.8 2858,-268.8 2748,-268.8"/>
</g>
<g id="clust72" class="cluster">
<title>cluster_UsersModule_providers</title>
<polygon fill="none" stroke="black" points="2600,-268.8 2600,-320.8 2740,-320.8 2740,-268.8 2600,-268.8"/>
</g>
<!-- UsersModule -->
<g id="node1" class="node">
<title>UsersModule</title>
<polygon fill="#8dd3c7" stroke="black" points="2567.94,-236.8 2564.94,-240.8 2543.94,-240.8 2540.94,-236.8 2476.06,-236.8 2476.06,-200.8 2567.94,-200.8 2567.94,-236.8"/>
<text text-anchor="middle" x="2522" y="-214.6" font-family="Times,serif" font-size="14.00">UsersModule</text>
</g>
<!-- AdminModule -->
<g id="node2" class="node">
<title>AdminModule</title>
<polygon fill="#8dd3c7" stroke="black" points="2434.44,-312.8 2431.44,-316.8 2410.44,-316.8 2407.44,-312.8 2335.56,-312.8 2335.56,-276.8 2434.44,-276.8 2434.44,-312.8"/>
<text text-anchor="middle" x="2385" y="-290.6" font-family="Times,serif" font-size="14.00">AdminModule</text>
</g>
<!-- UsersModule&#45;&gt;AdminModule -->
<g id="edge1" class="edge">
<title>UsersModule&#45;&gt;AdminModule</title>
<path fill="none" stroke="black" d="M2522,-237C2522,-261.16 2522,-300.8 2522,-300.8 2522,-300.8 2444.46,-300.8 2444.46,-300.8"/>
<polygon fill="black" stroke="black" points="2444.46,-297.3 2434.46,-300.8 2444.46,-304.3 2444.46,-297.3"/>
</g>
<!-- ConversationsModule -->
<g id="node5" class="node">
<title>ConversationsModule</title>
<polygon fill="#8dd3c7" stroke="black" points="1542.66,-236.8 1539.66,-240.8 1518.66,-240.8 1515.66,-236.8 1403.34,-236.8 1403.34,-200.8 1542.66,-200.8 1542.66,-236.8"/>
<text text-anchor="middle" x="1473" y="-214.6" font-family="Times,serif" font-size="14.00">ConversationsModule</text>
</g>
<!-- UsersModule&#45;&gt;ConversationsModule -->
<g id="edge21" class="edge">
<title>UsersModule&#45;&gt;ConversationsModule</title>
<path fill="none" stroke="black" d="M2537.24,-200.61C2537.24,-197.26 2537.24,-194.8 2537.24,-194.8 2537.24,-194.8 1539.74,-194.8 1539.74,-194.8 1539.74,-194.8 1539.74,-195.38 1539.74,-195.38"/>
<polygon fill="black" stroke="black" points="1536.24,-190.61 1539.74,-200.61 1543.24,-190.61 1536.24,-190.61"/>
</g>
<!-- OauthModule -->
<g id="node10" class="node">
<title>OauthModule</title>
<polygon fill="#8dd3c7" stroke="black" points="1649.77,-312.8 1646.77,-316.8 1625.77,-316.8 1622.77,-312.8 1556.23,-312.8 1556.23,-276.8 1649.77,-276.8 1649.77,-312.8"/>
<text text-anchor="middle" x="1603" y="-290.6" font-family="Times,serif" font-size="14.00">OauthModule</text>
</g>
<!-- UsersModule&#45;&gt;OauthModule -->
<g id="edge26" class="edge">
<title>UsersModule&#45;&gt;OauthModule</title>
<path fill="none" stroke="black" d="M2510.57,-236.86C2510.57,-248.24 2510.57,-260.8 2510.57,-260.8 2510.57,-260.8 1590.15,-260.8 1590.15,-260.8 1590.15,-260.8 1590.15,-266.61 1590.15,-266.61"/>
<polygon fill="black" stroke="black" points="1586.65,-266.61 1590.15,-276.61 1593.65,-266.61 1586.65,-266.61"/>
</g>
<!-- PostsModule -->
<g id="node11" class="node">
<title>PostsModule</title>
<polygon fill="#8dd3c7" stroke="black" points="1649.62,-236.8 1646.62,-240.8 1625.62,-240.8 1622.62,-236.8 1560.38,-236.8 1560.38,-200.8 1649.62,-200.8 1649.62,-236.8"/>
<text text-anchor="middle" x="1605" y="-214.6" font-family="Times,serif" font-size="14.00">PostsModule</text>
</g>
<!-- UsersModule&#45;&gt;PostsModule -->
<g id="edge32" class="edge">
<title>UsersModule&#45;&gt;PostsModule</title>
<path fill="none" stroke="black" d="M2499.14,-236.86C2499.14,-241.29 2499.14,-244.8 2499.14,-244.8 2499.14,-244.8 1619.85,-244.8 1619.85,-244.8 1619.85,-244.8 1619.85,-244.01 1619.85,-244.01"/>
<polygon fill="black" stroke="black" points="1623.35,-246.86 1619.85,-236.86 1616.35,-246.86 1623.35,-246.86"/>
</g>
<!-- AppModule -->
<g id="node13" class="node">
<title>AppModule</title>
<polygon fill="#8dd3c7" stroke="black" points="1340.66,-377.8 1337.66,-381.8 1316.66,-381.8 1313.66,-377.8 1257.34,-377.8 1257.34,-341.8 1340.66,-341.8 1340.66,-377.8"/>
<text text-anchor="middle" x="1299" y="-355.6" font-family="Times,serif" font-size="14.00">AppModule</text>
</g>
<!-- UsersModule&#45;&gt;AppModule -->
<g id="edge13" class="edge">
<title>UsersModule&#45;&gt;AppModule</title>
<path fill="none" stroke="black" d="M2533.43,-237.07C2533.43,-277.86 2533.43,-372.8 2533.43,-372.8 2533.43,-372.8 1350.78,-372.8 1350.78,-372.8"/>
<polygon fill="black" stroke="black" points="1350.78,-369.3 1340.78,-372.8 1350.78,-376.3 1350.78,-369.3"/>
</g>
<!-- UsersService  -->
<g id="node29" class="node">
<title>UsersService </title>
<polygon fill="#fb8072" stroke="black" points="2849.86,-312.8 2756.14,-312.8 2756.14,-276.8 2849.86,-276.8 2849.86,-312.8"/>
<text text-anchor="middle" x="2803" y="-290.6" font-family="Times,serif" font-size="14.00">UsersService </text>
</g>
<!-- UsersModule&#45;&gt;UsersService  -->
<g id="edge38" class="edge">
<title>UsersModule&#45;&gt;UsersService </title>
<path fill="none" stroke="black" stroke-dasharray="5,2" d="M2544.86,-236.85C2544.86,-251.17 2544.86,-268.8 2544.86,-268.8 2544.86,-268.8 2761.07,-268.8 2761.07,-268.8 2761.07,-268.8 2761.07,-269.59 2761.07,-269.59"/>
<polygon fill="black" stroke="black" points="2757.57,-266.74 2761.07,-276.74 2764.57,-266.74 2757.57,-266.74"/>
</g>
<!-- AdminModule&#45;&gt;AppModule -->
<g id="edge3" class="edge">
<title>AdminModule&#45;&gt;AppModule</title>
<path fill="none" stroke="black" d="M2385,-313.08C2385,-334.12 2385,-365.8 2385,-365.8 2385,-365.8 1350.91,-365.8 1350.91,-365.8"/>
<polygon fill="black" stroke="black" points="1350.91,-362.3 1340.91,-365.8 1350.91,-369.3 1350.91,-362.3"/>
</g>
<!-- AdminService -->
<g id="node3" class="node">
<title>AdminService</title>
<ellipse fill="#fdb462" stroke="black" cx="2385" cy="-218.8" rx="66.64" ry="18"/>
<text text-anchor="middle" x="2385" y="-214.6" font-family="Times,serif" font-size="14.00">AdminService</text>
</g>
<!-- AdminService&#45;&gt;AdminModule -->
<g id="edge2" class="edge">
<title>AdminService&#45;&gt;AdminModule</title>
<path fill="none" stroke="black" d="M2385,-236.81C2385,-236.81 2385,-266.65 2385,-266.65"/>
<polygon fill="black" stroke="black" points="2381.5,-266.65 2385,-276.65 2388.5,-266.65 2381.5,-266.65"/>
</g>
<!-- AuthModule -->
<g id="node4" class="node">
<title>AuthModule</title>
<polygon fill="#8dd3c7" stroke="black" points="1384.55,-236.8 1381.55,-240.8 1360.55,-240.8 1357.55,-236.8 1297.45,-236.8 1297.45,-200.8 1384.55,-200.8 1384.55,-236.8"/>
<text text-anchor="middle" x="1341" y="-214.6" font-family="Times,serif" font-size="14.00">AuthModule</text>
</g>
<!-- AuthModule&#45;&gt;UsersModule -->
<g id="edge36" class="edge">
<title>AuthModule&#45;&gt;UsersModule</title>
<path fill="none" stroke="black" d="M1355.48,-236.99C1355.48,-245.08 1355.48,-252.8 1355.48,-252.8 1355.48,-252.8 2487.71,-252.8 2487.71,-252.8 2487.71,-252.8 2487.71,-246.99 2487.71,-246.99"/>
<polygon fill="black" stroke="black" points="2491.21,-246.99 2487.71,-236.99 2484.21,-246.99 2491.21,-246.99"/>
</g>
<!-- AuthModule&#45;&gt;OauthModule -->
<g id="edge25" class="edge">
<title>AuthModule&#45;&gt;OauthModule</title>
<path fill="none" stroke="black" d="M1370.13,-236.81C1370.13,-259.29 1370.13,-294.8 1370.13,-294.8 1370.13,-294.8 1546.15,-294.8 1546.15,-294.8"/>
<polygon fill="black" stroke="black" points="1546.15,-298.3 1556.15,-294.8 1546.15,-291.3 1546.15,-298.3"/>
</g>
<!-- AuthModule&#45;&gt;AppModule -->
<g id="edge4" class="edge">
<title>AuthModule&#45;&gt;AppModule</title>
<path fill="none" stroke="black" d="M1311.76,-236.94C1311.76,-236.94 1311.76,-331.73 1311.76,-331.73"/>
<polygon fill="black" stroke="black" points="1308.26,-331.72 1311.76,-341.73 1315.26,-331.73 1308.26,-331.72"/>
</g>
<!-- AuthService  -->
<g id="node15" class="node">
<title>AuthService </title>
<polygon fill="#fb8072" stroke="black" points="501.98,-160.8 412.02,-160.8 412.02,-124.8 501.98,-124.8 501.98,-160.8"/>
<text text-anchor="middle" x="457" y="-138.6" font-family="Times,serif" font-size="14.00">AuthService </text>
</g>
<!-- AuthModule&#45;&gt;AuthService  -->
<g id="edge16" class="edge">
<title>AuthModule&#45;&gt;AuthService </title>
<path fill="none" stroke="black" stroke-dasharray="5,2" d="M1297.16,-208.8C1118.79,-208.8 457,-208.8 457,-208.8 457,-208.8 457,-170.83 457,-170.83"/>
<polygon fill="black" stroke="black" points="460.5,-170.83 457,-160.83 453.5,-170.83 460.5,-170.83"/>
</g>
<!-- ConversationsModule&#45;&gt;AppModule -->
<g id="edge5" class="edge">
<title>ConversationsModule&#45;&gt;AppModule</title>
<path fill="none" stroke="black" d="M1473,-237.01C1473,-272.57 1473,-347.8 1473,-347.8 1473,-347.8 1350.68,-347.8 1350.68,-347.8"/>
<polygon fill="black" stroke="black" points="1350.68,-344.3 1340.68,-347.8 1350.68,-351.3 1350.68,-344.3"/>
</g>
<!-- FilesModule -->
<g id="node6" class="node">
<title>FilesModule</title>
<polygon fill="#8dd3c7" stroke="black" points="1156.28,-160.8 1153.28,-164.8 1132.28,-164.8 1129.28,-160.8 1069.72,-160.8 1069.72,-124.8 1156.28,-124.8 1156.28,-160.8"/>
<text text-anchor="middle" x="1113" y="-138.6" font-family="Times,serif" font-size="14.00">FilesModule</text>
</g>
<!-- FilesModule&#45;&gt;AppModule -->
<g id="edge6" class="edge">
<title>FilesModule&#45;&gt;AppModule</title>
<path fill="none" stroke="black" d="M1113,-160.93C1113,-213.08 1113,-359.8 1113,-359.8 1113,-359.8 1247.26,-359.8 1247.26,-359.8"/>
<polygon fill="black" stroke="black" points="1247.26,-363.3 1257.26,-359.8 1247.26,-356.3 1247.26,-363.3"/>
</g>
<!-- InterceptorModule -->
<g id="node7" class="node">
<title>InterceptorModule</title>
<polygon fill="#8dd3c7" stroke="black" points="1426.46,-160.8 1423.46,-164.8 1402.46,-164.8 1399.46,-160.8 1305.54,-160.8 1305.54,-124.8 1426.46,-124.8 1426.46,-160.8"/>
<text text-anchor="middle" x="1366" y="-138.6" font-family="Times,serif" font-size="14.00">InterceptorModule</text>
</g>
<!-- InterceptorModule&#45;&gt;AppModule -->
<g id="edge7" class="edge">
<title>InterceptorModule&#45;&gt;AppModule</title>
<path fill="none" stroke="black" d="M1305.52,-142.8C1297,-142.8 1291.07,-142.8 1291.07,-142.8 1291.07,-142.8 1291.07,-331.67 1291.07,-331.67"/>
<polygon fill="black" stroke="black" points="1287.57,-331.67 1291.07,-341.67 1294.57,-331.67 1287.57,-331.67"/>
</g>
<!-- MathModule -->
<g id="node8" class="node">
<title>MathModule</title>
<polygon fill="#8dd3c7" stroke="black" points="1533.6,-160.8 1530.6,-164.8 1509.6,-164.8 1506.6,-160.8 1444.4,-160.8 1444.4,-124.8 1533.6,-124.8 1533.6,-160.8"/>
<text text-anchor="middle" x="1489" y="-138.6" font-family="Times,serif" font-size="14.00">MathModule</text>
</g>
<!-- MathModule&#45;&gt;AppModule -->
<g id="edge8" class="edge">
<title>MathModule&#45;&gt;AppModule</title>
<path fill="none" stroke="black" d="M1489,-160.91C1489,-170.7 1489,-180.8 1489,-180.8 1489,-180.8 1294.15,-180.8 1294.15,-180.8 1294.15,-180.8 1294.15,-331.65 1294.15,-331.65"/>
<polygon fill="black" stroke="black" points="1290.65,-331.65 1294.15,-341.65 1297.65,-331.65 1290.65,-331.65"/>
</g>
<!-- MessagesModule -->
<g id="node9" class="node">
<title>MessagesModule</title>
<polygon fill="#8dd3c7" stroke="black" points="1287.99,-160.8 1284.99,-164.8 1263.99,-164.8 1260.99,-160.8 1174.01,-160.8 1174.01,-124.8 1287.99,-124.8 1287.99,-160.8"/>
<text text-anchor="middle" x="1231" y="-138.6" font-family="Times,serif" font-size="14.00">MessagesModule</text>
</g>
<!-- MessagesModule&#45;&gt;AppModule -->
<g id="edge9" class="edge">
<title>MessagesModule&#45;&gt;AppModule</title>
<path fill="none" stroke="black" d="M1277.72,-160.93C1277.72,-160.93 1277.72,-331.57 1277.72,-331.57"/>
<polygon fill="black" stroke="black" points="1274.22,-331.57 1277.72,-341.57 1281.22,-331.57 1274.22,-331.57"/>
</g>
<!-- OauthModule&#45;&gt;AppModule -->
<g id="edge10" class="edge">
<title>OauthModule&#45;&gt;AppModule</title>
<path fill="none" stroke="black" d="M1556.06,-303.8C1477.12,-303.8 1326.3,-303.8 1326.3,-303.8 1326.3,-303.8 1326.3,-331.77 1326.3,-331.77"/>
<polygon fill="black" stroke="black" points="1322.8,-331.77 1326.3,-341.77 1329.8,-331.77 1322.8,-331.77"/>
</g>
<!-- OauthService  -->
<g id="node22" class="node">
<title>OauthService </title>
<polygon fill="#fb8072" stroke="black" points="2277.69,-236.8 2182.31,-236.8 2182.31,-200.8 2277.69,-200.8 2277.69,-236.8"/>
<text text-anchor="middle" x="2230" y="-214.6" font-family="Times,serif" font-size="14.00">OauthService </text>
</g>
<!-- OauthModule&#45;&gt;OauthService  -->
<g id="edge27" class="edge">
<title>OauthModule&#45;&gt;OauthService </title>
<path fill="none" stroke="black" stroke-dasharray="5,2" d="M1649.87,-305.8C1795.43,-305.8 2230,-305.8 2230,-305.8 2230,-305.8 2230,-246.83 2230,-246.83"/>
<polygon fill="black" stroke="black" points="2233.5,-246.83 2230,-236.83 2226.5,-246.83 2233.5,-246.83"/>
</g>
<!-- PostsModule&#45;&gt;AppModule -->
<g id="edge11" class="edge">
<title>PostsModule&#45;&gt;AppModule</title>
<path fill="none" stroke="black" d="M1560.17,-218.8C1553.49,-218.8 1548.8,-218.8 1548.8,-218.8 1548.8,-218.8 1548.8,-359.8 1548.8,-359.8 1548.8,-359.8 1350.81,-359.8 1350.81,-359.8"/>
<polygon fill="black" stroke="black" points="1350.81,-356.3 1340.81,-359.8 1350.81,-363.3 1350.81,-356.3"/>
</g>
<!-- PrismaModule -->
<g id="node12" class="node">
<title>PrismaModule</title>
<polygon fill="#8dd3c7" stroke="black" points="1650.44,-160.8 1647.44,-164.8 1626.44,-164.8 1623.44,-160.8 1551.56,-160.8 1551.56,-124.8 1650.44,-124.8 1650.44,-160.8"/>
<text text-anchor="middle" x="1601" y="-138.6" font-family="Times,serif" font-size="14.00">PrismaModule</text>
</g>
<!-- PrismaModule&#45;&gt;UsersModule -->
<g id="edge37" class="edge">
<title>PrismaModule&#45;&gt;UsersModule</title>
<path fill="none" stroke="black" d="M1650.34,-151.8C1839.35,-151.8 2506.76,-151.8 2506.76,-151.8 2506.76,-151.8 2506.76,-190.49 2506.76,-190.49"/>
<polygon fill="black" stroke="black" points="2503.26,-190.49 2506.76,-200.49 2510.26,-190.49 2503.26,-190.49"/>
</g>
<!-- PrismaModule&#45;&gt;AuthModule -->
<g id="edge15" class="edge">
<title>PrismaModule&#45;&gt;AuthModule</title>
<path fill="none" stroke="black" d="M1605,-160.84C1605,-173.36 1605,-187.8 1605,-187.8 1605,-187.8 1345.15,-187.8 1345.15,-187.8 1345.15,-187.8 1345.15,-190.77 1345.15,-190.77"/>
<polygon fill="black" stroke="black" points="1341.65,-190.77 1345.15,-200.77 1348.65,-190.77 1341.65,-190.77"/>
</g>
<!-- PrismaModule&#45;&gt;ConversationsModule -->
<g id="edge20" class="edge">
<title>PrismaModule&#45;&gt;ConversationsModule</title>
<path fill="none" stroke="black" d="M1551.57,-148.8C1542.93,-148.8 1536.64,-148.8 1536.64,-148.8 1536.64,-148.8 1536.64,-190.77 1536.64,-190.77"/>
<polygon fill="black" stroke="black" points="1533.14,-190.77 1536.64,-200.77 1540.14,-190.77 1533.14,-190.77"/>
</g>
<!-- PrismaModule&#45;&gt;PostsModule -->
<g id="edge31" class="edge">
<title>PrismaModule&#45;&gt;PostsModule</title>
<path fill="none" stroke="black" d="M1627.28,-160.81C1627.28,-160.81 1627.28,-190.65 1627.28,-190.65"/>
<polygon fill="black" stroke="black" points="1623.78,-190.65 1627.28,-200.65 1630.78,-190.65 1623.78,-190.65"/>
</g>
<!-- PrismaModule&#45;&gt;AppModule -->
<g id="edge12" class="edge">
<title>PrismaModule&#45;&gt;AppModule</title>
<path fill="none" stroke="black" d="M1551.72,-136.8C1548.09,-136.8 1545.81,-136.8 1545.81,-136.8 1545.81,-136.8 1545.81,-353.8 1545.81,-353.8 1545.81,-353.8 1350.87,-353.8 1350.87,-353.8"/>
<polygon fill="black" stroke="black" points="1350.87,-350.3 1340.87,-353.8 1350.87,-357.3 1350.87,-350.3"/>
</g>
<!-- PrismaService  -->
<g id="node27" class="node">
<title>PrismaService </title>
<polygon fill="#fb8072" stroke="black" points="2866.37,-236.8 2765.63,-236.8 2765.63,-200.8 2866.37,-200.8 2866.37,-236.8"/>
<text text-anchor="middle" x="2816" y="-214.6" font-family="Times,serif" font-size="14.00">PrismaService </text>
</g>
<!-- PrismaModule&#45;&gt;PrismaService  -->
<g id="edge34" class="edge">
<title>PrismaModule&#45;&gt;PrismaService </title>
<path fill="none" stroke="black" stroke-dasharray="5,2" d="M1650.51,-133.8C1878.48,-133.8 2816,-133.8 2816,-133.8 2816,-133.8 2816,-190.77 2816,-190.77"/>
<polygon fill="black" stroke="black" points="2812.5,-190.77 2816,-200.77 2819.5,-190.77 2812.5,-190.77"/>
</g>
<!-- AppService -->
<g id="node14" class="node">
<title>AppService</title>
<ellipse fill="#fdb462" stroke="black" cx="989" cy="-294.8" rx="56.75" ry="18"/>
<text text-anchor="middle" x="989" y="-290.6" font-family="Times,serif" font-size="14.00">AppService</text>
</g>
<!-- AppService&#45;&gt;AppModule -->
<g id="edge14" class="edge">
<title>AppService&#45;&gt;AppModule</title>
<path fill="none" stroke="black" d="M1038.14,-285.8C1118.07,-285.8 1267.44,-285.8 1267.44,-285.8 1267.44,-285.8 1267.44,-331.51 1267.44,-331.51"/>
<polygon fill="black" stroke="black" points="1263.94,-331.51 1267.44,-341.51 1270.94,-331.51 1263.94,-331.51"/>
</g>
<!-- AtStrategy -->
<g id="node16" class="node">
<title>AtStrategy</title>
<ellipse fill="#fdb462" stroke="black" cx="213" cy="-142.8" rx="52.75" ry="18"/>
<text text-anchor="middle" x="213" y="-138.6" font-family="Times,serif" font-size="14.00">AtStrategy</text>
</g>
<!-- AtStrategy&#45;&gt;AuthModule -->
<g id="edge17" class="edge">
<title>AtStrategy&#45;&gt;AuthModule</title>
<path fill="none" stroke="black" d="M213,-160.95C213,-184.56 213,-222.8 213,-222.8 213,-222.8 1287.13,-222.8 1287.13,-222.8"/>
<polygon fill="black" stroke="black" points="1287.13,-226.3 1297.13,-222.8 1287.13,-219.3 1287.13,-226.3"/>
</g>
<!-- AuthService -->
<g id="node17" class="node">
<title>AuthService</title>
<ellipse fill="#fdb462" stroke="black" cx="83" cy="-142.8" rx="59.11" ry="18"/>
<text text-anchor="middle" x="83" y="-138.6" font-family="Times,serif" font-size="14.00">AuthService</text>
</g>
<!-- AuthService&#45;&gt;AuthModule -->
<g id="edge18" class="edge">
<title>AuthService&#45;&gt;AuthModule</title>
<path fill="none" stroke="black" d="M83,-160.83C83,-186.31 83,-229.8 83,-229.8 83,-229.8 1287.33,-229.8 1287.33,-229.8"/>
<polygon fill="black" stroke="black" points="1287.33,-233.3 1297.33,-229.8 1287.33,-226.3 1287.33,-233.3"/>
</g>
<!-- RtStrategy -->
<g id="node18" class="node">
<title>RtStrategy</title>
<ellipse fill="#fdb462" stroke="black" cx="336" cy="-142.8" rx="52.19" ry="18"/>
<text text-anchor="middle" x="336" y="-138.6" font-family="Times,serif" font-size="14.00">RtStrategy</text>
</g>
<!-- RtStrategy&#45;&gt;AuthModule -->
<g id="edge19" class="edge">
<title>RtStrategy&#45;&gt;AuthModule</title>
<path fill="none" stroke="black" d="M336,-160.84C336,-182.46 336,-215.8 336,-215.8 336,-215.8 1287.17,-215.8 1287.17,-215.8"/>
<polygon fill="black" stroke="black" points="1287.17,-219.3 1297.17,-215.8 1287.17,-212.3 1287.17,-219.3"/>
</g>
<!-- ConversationsService -->
<g id="node19" class="node">
<title>ConversationsService</title>
<ellipse fill="#fdb462" stroke="black" cx="637" cy="-142.8" rx="95.49" ry="18"/>
<text text-anchor="middle" x="637" y="-138.6" font-family="Times,serif" font-size="14.00">ConversationsService</text>
</g>
<!-- ConversationsService&#45;&gt;ConversationsModule -->
<g id="edge22" class="edge">
<title>ConversationsService&#45;&gt;ConversationsModule</title>
<path fill="none" stroke="black" d="M637,-161.04C637,-168.23 637,-174.8 637,-174.8 637,-174.8 1414.83,-174.8 1414.83,-174.8 1414.83,-174.8 1414.83,-190.65 1414.83,-190.65"/>
<polygon fill="black" stroke="black" points="1411.33,-190.65 1414.83,-200.65 1418.33,-190.65 1411.33,-190.65"/>
</g>
<!-- FilesService -->
<g id="node20" class="node">
<title>FilesService</title>
<polygon fill="#8dd3c7" stroke="black" points="1133.71,-84.8 1130.71,-88.8 1109.71,-88.8 1106.71,-84.8 1048.29,-84.8 1048.29,-48.8 1133.71,-48.8 1133.71,-84.8"/>
<text text-anchor="middle" x="1091" y="-62.6" font-family="Times,serif" font-size="14.00">FilesService</text>
</g>
<!-- FilesService&#45;&gt;FilesModule -->
<g id="edge23" class="edge">
<title>FilesService&#45;&gt;FilesModule</title>
<path fill="none" stroke="black" d="M1101.61,-84.81C1101.61,-84.81 1101.61,-114.65 1101.61,-114.65"/>
<polygon fill="black" stroke="black" points="1098.11,-114.65 1101.61,-124.65 1105.11,-114.65 1098.11,-114.65"/>
</g>
<!-- MessagesService -->
<g id="node21" class="node">
<title>MessagesService</title>
<ellipse fill="#fdb462" stroke="black" cx="1252" cy="-66.8" rx="77.58" ry="18"/>
<text text-anchor="middle" x="1252" y="-62.6" font-family="Times,serif" font-size="14.00">MessagesService</text>
</g>
<!-- MessagesService&#45;&gt;MessagesModule -->
<g id="edge24" class="edge">
<title>MessagesService&#45;&gt;MessagesModule</title>
<path fill="none" stroke="black" d="M1231.23,-84.43C1231.23,-84.43 1231.23,-114.74 1231.23,-114.74"/>
<polygon fill="black" stroke="black" points="1227.73,-114.74 1231.23,-124.74 1234.73,-114.74 1227.73,-114.74"/>
</g>
<!-- FacebookStrategy -->
<g id="node23" class="node">
<title>FacebookStrategy</title>
<ellipse fill="#fdb462" stroke="black" cx="1771" cy="-218.8" rx="80.52" ry="18"/>
<text text-anchor="middle" x="1771" y="-214.6" font-family="Times,serif" font-size="14.00">FacebookStrategy</text>
</g>
<!-- FacebookStrategy&#45;&gt;OauthModule -->
<g id="edge28" class="edge">
<title>FacebookStrategy&#45;&gt;OauthModule</title>
<path fill="none" stroke="black" d="M1771,-236.83C1771,-256.38 1771,-284.8 1771,-284.8 1771,-284.8 1659.8,-284.8 1659.8,-284.8"/>
<polygon fill="black" stroke="black" points="1659.8,-281.3 1649.8,-284.8 1659.8,-288.3 1659.8,-281.3"/>
</g>
<!-- GoogleStrategy -->
<g id="node24" class="node">
<title>GoogleStrategy</title>
<ellipse fill="#fdb462" stroke="black" cx="2086" cy="-218.8" rx="71.79" ry="18"/>
<text text-anchor="middle" x="2086" y="-214.6" font-family="Times,serif" font-size="14.00">GoogleStrategy</text>
</g>
<!-- GoogleStrategy&#45;&gt;OauthModule -->
<g id="edge29" class="edge">
<title>GoogleStrategy&#45;&gt;OauthModule</title>
<path fill="none" stroke="black" d="M2086,-236.95C2086,-260.56 2086,-298.8 2086,-298.8 2086,-298.8 1660.19,-298.8 1660.19,-298.8"/>
<polygon fill="black" stroke="black" points="1660.19,-295.3 1650.19,-298.8 1660.19,-302.3 1660.19,-295.3"/>
</g>
<!-- OauthService -->
<g id="node25" class="node">
<title>OauthService</title>
<ellipse fill="#fdb462" stroke="black" cx="1933" cy="-218.8" rx="63.69" ry="18"/>
<text text-anchor="middle" x="1933" y="-214.6" font-family="Times,serif" font-size="14.00">OauthService</text>
</g>
<!-- OauthService&#45;&gt;OauthModule -->
<g id="edge30" class="edge">
<title>OauthService&#45;&gt;OauthModule</title>
<path fill="none" stroke="black" d="M1933,-236.84C1933,-258.46 1933,-291.8 1933,-291.8 1933,-291.8 1659.93,-291.8 1659.93,-291.8"/>
<polygon fill="black" stroke="black" points="1659.93,-288.3 1649.93,-291.8 1659.93,-295.3 1659.93,-288.3"/>
</g>
<!-- PostsService -->
<g id="node26" class="node">
<title>PostsService</title>
<ellipse fill="#fdb462" stroke="black" cx="832" cy="-142.8" rx="60.28" ry="18"/>
<text text-anchor="middle" x="832" y="-138.6" font-family="Times,serif" font-size="14.00">PostsService</text>
</g>
<!-- PostsService&#45;&gt;PostsModule -->
<g id="edge33" class="edge">
<title>PostsService&#45;&gt;PostsModule</title>
<path fill="none" stroke="black" d="M832,-160.97C832,-164.85 832,-167.8 832,-167.8 832,-167.8 1582.72,-167.8 1582.72,-167.8 1582.72,-167.8 1582.72,-190.68 1582.72,-190.68"/>
<polygon fill="black" stroke="black" points="1579.22,-190.68 1582.72,-200.68 1586.22,-190.68 1579.22,-190.68"/>
</g>
<!-- PrismaService -->
<g id="node28" class="node">
<title>PrismaService</title>
<ellipse fill="#fdb462" stroke="black" cx="2675" cy="-218.8" rx="66.64" ry="18"/>
<text text-anchor="middle" x="2675" y="-214.6" font-family="Times,serif" font-size="14.00">PrismaService</text>
</g>
<!-- PrismaService&#45;&gt;PrismaModule -->
<g id="edge35" class="edge">
<title>PrismaService&#45;&gt;PrismaModule</title>
<path fill="none" stroke="black" d="M2675,-200.79C2675,-178.31 2675,-142.8 2675,-142.8 2675,-142.8 1660.29,-142.8 1660.29,-142.8"/>
<polygon fill="black" stroke="black" points="1660.29,-139.3 1650.29,-142.8 1660.29,-146.3 1660.29,-139.3"/>
</g>
<!-- UsersService -->
<g id="node30" class="node">
<title>UsersService</title>
<ellipse fill="#fdb462" stroke="black" cx="2670" cy="-294.8" rx="61.97" ry="18"/>
<text text-anchor="middle" x="2670" y="-290.6" font-family="Times,serif" font-size="14.00">UsersService</text>
</g>
<!-- UsersService&#45;&gt;UsersModule -->
<g id="edge39" class="edge">
<title>UsersService&#45;&gt;UsersModule</title>
<path fill="none" stroke="black" d="M2611.48,-288.8C2583.62,-288.8 2556.29,-288.8 2556.29,-288.8 2556.29,-288.8 2556.29,-246.83 2556.29,-246.83"/>
<polygon fill="black" stroke="black" points="2559.79,-246.83 2556.29,-236.83 2552.79,-246.83 2559.79,-246.83"/>
</g>
</g>
</svg>
