<?xml version="1.0" encoding="UTF-8" standalone="no"?>
<!DOCTYPE svg PUBLIC "-//W3C//DTD SVG 1.1//EN"
 "http://www.w3.org/Graphics/SVG/1.1/DTD/svg11.dtd">
<!-- Generated by graphviz version 5.0.0 (20220707.1540)
 -->
<!-- Title: dependencies Pages: 1 -->
<svg width="2389pt" height="394pt"
 viewBox="0.00 0.00 2389.00 393.80" xmlns="http://www.w3.org/2000/svg" xmlns:xlink="http://www.w3.org/1999/xlink">
<g id="graph0" class="graph" transform="scale(1 1) rotate(0) translate(4 389.8)">
<title>dependencies</title>
<polygon fill="white" stroke="transparent" points="-4,4 -4,-389.8 2385,-389.8 2385,4 -4,4"/>
<text text-anchor="middle" x="1190.5" y="-8.2" font-family="sans-serif" font-size="14.00">dependencies</text>
<g id="clust43" class="cluster">
<title>cluster_OauthModule</title>
<polygon fill="none" stroke="black" stroke-dasharray="1,5" points="480,-108.8 480,-312.8 931,-312.8 931,-108.8 480,-108.8"/>
</g>
<g id="clust45" class="cluster">
<title>cluster_OauthModule_imports</title>
<polygon fill="none" stroke="black" points="815,-116.8 815,-236.8 923,-236.8 923,-116.8 815,-116.8"/>
</g>
<g id="clust48" class="cluster">
<title>cluster_OauthModule_providers</title>
<polygon fill="none" stroke="black" points="488,-184.8 488,-236.8 793,-236.8 793,-184.8 488,-184.8"/>
</g>
<g id="clust49" class="cluster">
<title>cluster_PostsModule</title>
<polygon fill="none" stroke="black" stroke-dasharray="1,5" points="1479,-108.8 1479,-236.8 1753,-236.8 1753,-108.8 1479,-108.8"/>
</g>
<g id="clust51" class="cluster">
<title>cluster_PostsModule_imports</title>
<polygon fill="none" stroke="black" points="1631,-116.8 1631,-168.8 1745,-168.8 1745,-116.8 1631,-116.8"/>
</g>
<g id="clust54" class="cluster">
<title>cluster_PostsModule_providers</title>
<polygon fill="none" stroke="black" points="1487,-116.8 1487,-168.8 1623,-168.8 1623,-116.8 1487,-116.8"/>
</g>
<g id="clust55" class="cluster">
<title>cluster_PrismaModule</title>
<polygon fill="none" stroke="black" stroke-dasharray="1,5" points="1761,-176.8 1761,-244.8 2051,-244.8 2051,-176.8 1761,-176.8"/>
</g>
<g id="clust58" class="cluster">
<title>cluster_PrismaModule_exports</title>
<polygon fill="none" stroke="black" points="1927,-184.8 1927,-236.8 2043,-236.8 2043,-184.8 1927,-184.8"/>
</g>
<g id="clust60" class="cluster">
<title>cluster_PrismaModule_providers</title>
<polygon fill="none" stroke="black" points="1769,-184.8 1769,-236.8 1919,-236.8 1919,-184.8 1769,-184.8"/>
</g>
<g id="clust61" class="cluster">
<title>cluster_UsersModule</title>
<polygon fill="none" stroke="black" stroke-dasharray="1,5" points="939,-252.8 939,-320.8 1213,-320.8 1213,-252.8 939,-252.8"/>
</g>
<g id="clust64" class="cluster">
<title>cluster_UsersModule_exports</title>
<polygon fill="none" stroke="black" points="1095,-260.8 1095,-312.8 1205,-312.8 1205,-260.8 1095,-260.8"/>
</g>
<g id="clust66" class="cluster">
<title>cluster_UsersModule_providers</title>
<polygon fill="none" stroke="black" points="947,-260.8 947,-312.8 1087,-312.8 1087,-260.8 947,-260.8"/>
</g>
<g id="clust37" class="cluster">
<title>cluster_MessagesModule</title>
<polygon fill="none" stroke="black" stroke-dasharray="1,5" points="2185,-176.8 2185,-312.8 2373,-312.8 2373,-176.8 2185,-176.8"/>
</g>
<g id="clust42" class="cluster">
<title>cluster_MessagesModule_providers</title>
<polygon fill="none" stroke="black" points="2193,-184.8 2193,-236.8 2365,-236.8 2365,-184.8 2193,-184.8"/>
</g>
<g id="clust25" class="cluster">
<title>cluster_FilesModule</title>
<polygon fill="none" stroke="black" stroke-dasharray="1,5" points="2059,-176.8 2059,-312.8 2177,-312.8 2177,-176.8 2059,-176.8"/>
</g>
<g id="clust27" class="cluster">
<title>cluster_FilesModule_imports</title>
<polygon fill="none" stroke="black" points="2067,-184.8 2067,-236.8 2169,-236.8 2169,-184.8 2067,-184.8"/>
</g>
<g id="clust13" class="cluster">
<title>cluster_AuthModule</title>
<polygon fill="none" stroke="black" stroke-dasharray="1,5" points="613,-32.8 613,-100.8 1124,-100.8 1124,-32.8 613,-32.8"/>
</g>
<g id="clust16" class="cluster">
<title>cluster_AuthModule_exports</title>
<polygon fill="none" stroke="black" points="1010,-40.8 1010,-92.8 1116,-92.8 1116,-40.8 1010,-40.8"/>
</g>
<g id="clust18" class="cluster">
<title>cluster_AuthModule_providers</title>
<polygon fill="none" stroke="black" points="621,-40.8 621,-92.8 1002,-92.8 1002,-40.8 621,-40.8"/>
</g>
<g id="clust19" class="cluster">
<title>cluster_ConversationsModule</title>
<polygon fill="none" stroke="black" stroke-dasharray="1,5" points="1221,-176.8 1221,-312.8 1443,-312.8 1443,-176.8 1221,-176.8"/>
</g>
<g id="clust24" class="cluster">
<title>cluster_ConversationsModule_providers</title>
<polygon fill="none" stroke="black" points="1229,-184.8 1229,-236.8 1435,-236.8 1435,-184.8 1229,-184.8"/>
</g>
<g id="clust1" class="cluster">
<title>cluster_AdminModule</title>
<polygon fill="none" stroke="black" stroke-dasharray="1,5" points="306,-176.8 306,-312.8 472,-312.8 472,-176.8 306,-176.8"/>
</g>
<g id="clust6" class="cluster">
<title>cluster_AdminModule_providers</title>
<polygon fill="none" stroke="black" points="314,-184.8 314,-236.8 464,-236.8 464,-184.8 314,-184.8"/>
</g>
<g id="clust7" class="cluster">
<title>cluster_AppModule</title>
<polygon fill="none" stroke="black" stroke-dasharray="1,5" points="8,-252.8 8,-377.8 298,-377.8 298,-252.8 8,-252.8"/>
</g>
<g id="clust12" class="cluster">
<title>cluster_AppModule_providers</title>
<polygon fill="none" stroke="black" points="160,-260.8 160,-312.8 290,-312.8 290,-260.8 160,-260.8"/>
</g>
<g id="clust9" class="cluster">
<title>cluster_AppModule_imports</title>
<polygon fill="none" stroke="black" points="16,-260.8 16,-312.8 152,-312.8 152,-260.8 16,-260.8"/>
</g>
<!-- UsersModule -->
<g id="node1" class="node">
<title>UsersModule</title>
<polygon fill="#8dd3c7" stroke="black" points="914.94,-228.8 911.94,-232.8 890.94,-232.8 887.94,-228.8 823.06,-228.8 823.06,-192.8 914.94,-192.8 914.94,-228.8"/>
<text text-anchor="middle" x="869" y="-206.6" font-family="Times,serif" font-size="14.00">UsersModule</text>
</g>
<!-- AdminModule -->
<g id="node2" class="node">
<title>AdminModule</title>
<polygon fill="#8dd3c7" stroke="black" points="438.44,-304.8 435.44,-308.8 414.44,-308.8 411.44,-304.8 339.56,-304.8 339.56,-268.8 438.44,-268.8 438.44,-304.8"/>
<text text-anchor="middle" x="389" y="-282.6" font-family="Times,serif" font-size="14.00">AdminModule</text>
</g>
<!-- UsersModule&#45;&gt;AdminModule -->
<g id="edge1" class="edge">
<title>UsersModule&#45;&gt;AdminModule</title>
<path fill="none" stroke="black" d="M846.14,-228.91C846.14,-238.7 846.14,-248.8 846.14,-248.8 846.14,-248.8 405.41,-248.8 405.41,-248.8 405.41,-248.8 405.41,-258.69 405.41,-258.69"/>
<polygon fill="black" stroke="black" points="401.91,-258.69 405.41,-268.69 408.91,-258.69 401.91,-258.69"/>
</g>
<!-- ConversationsModule -->
<g id="node5" class="node">
<title>ConversationsModule</title>
<polygon fill="#8dd3c7" stroke="black" points="1384.66,-304.8 1381.66,-308.8 1360.66,-308.8 1357.66,-304.8 1245.34,-304.8 1245.34,-268.8 1384.66,-268.8 1384.66,-304.8"/>
<text text-anchor="middle" x="1315" y="-282.6" font-family="Times,serif" font-size="14.00">ConversationsModule</text>
</g>
<!-- UsersModule&#45;&gt;ConversationsModule -->
<g id="edge20" class="edge">
<title>UsersModule&#45;&gt;ConversationsModule</title>
<path fill="none" stroke="black" d="M914.82,-201.8C1009.24,-201.8 1216.72,-201.8 1216.72,-201.8 1216.72,-201.8 1216.72,-286.8 1216.72,-286.8 1216.72,-286.8 1235.14,-286.8 1235.14,-286.8"/>
<polygon fill="black" stroke="black" points="1235.14,-290.3 1245.14,-286.8 1235.14,-283.3 1235.14,-290.3"/>
</g>
<!-- OauthModule -->
<g id="node9" class="node">
<title>OauthModule</title>
<polygon fill="#8dd3c7" stroke="black" points="759.77,-304.8 756.77,-308.8 735.77,-308.8 732.77,-304.8 666.23,-304.8 666.23,-268.8 759.77,-268.8 759.77,-304.8"/>
<text text-anchor="middle" x="713" y="-282.6" font-family="Times,serif" font-size="14.00">OauthModule</text>
</g>
<!-- UsersModule&#45;&gt;OauthModule -->
<g id="edge25" class="edge">
<title>UsersModule&#45;&gt;OauthModule</title>
<path fill="none" stroke="black" d="M869,-229C869,-253.16 869,-292.8 869,-292.8 869,-292.8 769.81,-292.8 769.81,-292.8"/>
<polygon fill="black" stroke="black" points="769.81,-289.3 759.81,-292.8 769.81,-296.3 769.81,-289.3"/>
</g>
<!-- PostsModule -->
<g id="node10" class="node">
<title>PostsModule</title>
<polygon fill="#8dd3c7" stroke="black" points="1616.62,-228.8 1613.62,-232.8 1592.62,-232.8 1589.62,-228.8 1527.38,-228.8 1527.38,-192.8 1616.62,-192.8 1616.62,-228.8"/>
<text text-anchor="middle" x="1572" y="-206.6" font-family="Times,serif" font-size="14.00">PostsModule</text>
</g>
<!-- UsersModule&#45;&gt;PostsModule -->
<g id="edge29" class="edge">
<title>UsersModule&#45;&gt;PostsModule</title>
<path fill="none" stroke="black" d="M891.89,-192.59C891.89,-187.25 891.89,-182.8 891.89,-182.8 891.89,-182.8 1556.76,-182.8 1556.76,-182.8 1556.76,-182.8 1556.76,-183.78 1556.76,-183.78"/>
<polygon fill="black" stroke="black" points="1553.26,-182.59 1556.76,-192.59 1560.26,-182.59 1553.26,-182.59"/>
</g>
<!-- AppModule -->
<g id="node12" class="node">
<title>AppModule</title>
<polygon fill="#8dd3c7" stroke="black" points="289.66,-369.8 286.66,-373.8 265.66,-373.8 262.66,-369.8 206.34,-369.8 206.34,-333.8 289.66,-333.8 289.66,-369.8"/>
<text text-anchor="middle" x="248" y="-347.6" font-family="Times,serif" font-size="14.00">AppModule</text>
</g>
<!-- UsersModule&#45;&gt;AppModule -->
<g id="edge12" class="edge">
<title>UsersModule&#45;&gt;AppModule</title>
<path fill="none" stroke="black" d="M891.86,-228.88C891.86,-265.03 891.86,-342.8 891.86,-342.8 891.86,-342.8 299.75,-342.8 299.75,-342.8"/>
<polygon fill="black" stroke="black" points="299.75,-339.3 289.75,-342.8 299.75,-346.3 299.75,-339.3"/>
</g>
<!-- UsersService  -->
<g id="node26" class="node">
<title>UsersService </title>
<polygon fill="#fb8072" stroke="black" points="1196.86,-304.8 1103.14,-304.8 1103.14,-268.8 1196.86,-268.8 1196.86,-304.8"/>
<text text-anchor="middle" x="1150" y="-282.6" font-family="Times,serif" font-size="14.00">UsersService </text>
</g>
<!-- UsersModule&#45;&gt;UsersService  -->
<g id="edge35" class="edge">
<title>UsersModule&#45;&gt;UsersService </title>
<path fill="none" stroke="black" stroke-dasharray="5,2" d="M914.82,-210.8C994.97,-210.8 1152.21,-210.8 1152.21,-210.8 1152.21,-210.8 1152.21,-258.79 1152.21,-258.79"/>
<polygon fill="black" stroke="black" points="1148.71,-258.79 1152.21,-268.79 1155.71,-258.79 1148.71,-258.79"/>
</g>
<!-- AdminModule&#45;&gt;AppModule -->
<g id="edge3" class="edge">
<title>AdminModule&#45;&gt;AppModule</title>
<path fill="none" stroke="black" d="M339.54,-286.8C313.58,-286.8 287.1,-286.8 287.1,-286.8 287.1,-286.8 287.1,-323.69 287.1,-323.69"/>
<polygon fill="black" stroke="black" points="283.6,-323.69 287.1,-333.69 290.6,-323.69 283.6,-323.69"/>
</g>
<!-- AdminService -->
<g id="node3" class="node">
<title>AdminService</title>
<ellipse fill="#fdb462" stroke="black" cx="389" cy="-210.8" rx="66.64" ry="18"/>
<text text-anchor="middle" x="389" y="-206.6" font-family="Times,serif" font-size="14.00">AdminService</text>
</g>
<!-- AdminService&#45;&gt;AdminModule -->
<g id="edge2" class="edge">
<title>AdminService&#45;&gt;AdminModule</title>
<path fill="none" stroke="black" d="M372.59,-228.43C372.59,-228.43 372.59,-258.74 372.59,-258.74"/>
<polygon fill="black" stroke="black" points="369.09,-258.74 372.59,-268.74 376.09,-258.74 369.09,-258.74"/>
</g>
<!-- AuthModule -->
<g id="node4" class="node">
<title>AuthModule</title>
<polygon fill="#8dd3c7" stroke="black" points="913.55,-160.8 910.55,-164.8 889.55,-164.8 886.55,-160.8 826.45,-160.8 826.45,-124.8 913.55,-124.8 913.55,-160.8"/>
<text text-anchor="middle" x="870" y="-138.6" font-family="Times,serif" font-size="14.00">AuthModule</text>
</g>
<!-- AuthModule&#45;&gt;UsersModule -->
<g id="edge33" class="edge">
<title>AuthModule&#45;&gt;UsersModule</title>
<path fill="none" stroke="black" d="M848.11,-161.02C848.11,-161.02 848.11,-182.53 848.11,-182.53"/>
<polygon fill="black" stroke="black" points="844.61,-182.53 848.11,-192.53 851.61,-182.53 844.61,-182.53"/>
</g>
<!-- AuthModule&#45;&gt;OauthModule -->
<g id="edge24" class="edge">
<title>AuthModule&#45;&gt;OauthModule</title>
<path fill="none" stroke="black" d="M826.32,-151.8C814.04,-151.8 803.96,-151.8 803.96,-151.8 803.96,-151.8 803.96,-280.8 803.96,-280.8 803.96,-280.8 769.81,-280.8 769.81,-280.8"/>
<polygon fill="black" stroke="black" points="769.81,-277.3 759.81,-280.8 769.81,-284.3 769.81,-277.3"/>
</g>
<!-- AuthModule&#45;&gt;AppModule -->
<g id="edge4" class="edge">
<title>AuthModule&#45;&gt;AppModule</title>
<path fill="none" stroke="black" d="M825.98,-142.8C689.78,-142.8 284.36,-142.8 284.36,-142.8 284.36,-142.8 284.36,-323.62 284.36,-323.62"/>
<polygon fill="black" stroke="black" points="280.86,-323.62 284.36,-333.62 287.86,-323.62 280.86,-323.62"/>
</g>
<!-- AuthService  -->
<g id="node14" class="node">
<title>AuthService </title>
<polygon fill="#fb8072" stroke="black" points="1107.98,-84.8 1018.02,-84.8 1018.02,-48.8 1107.98,-48.8 1107.98,-84.8"/>
<text text-anchor="middle" x="1063" y="-62.6" font-family="Times,serif" font-size="14.00">AuthService </text>
</g>
<!-- AuthModule&#45;&gt;AuthService  -->
<g id="edge15" class="edge">
<title>AuthModule&#45;&gt;AuthService </title>
<path fill="none" stroke="black" stroke-dasharray="5,2" d="M913.7,-142.8C966.58,-142.8 1048.62,-142.8 1048.62,-142.8 1048.62,-142.8 1048.62,-94.81 1048.62,-94.81"/>
<polygon fill="black" stroke="black" points="1052.12,-94.81 1048.62,-84.81 1045.12,-94.81 1052.12,-94.81"/>
</g>
<!-- ConversationsModule&#45;&gt;AppModule -->
<g id="edge5" class="edge">
<title>ConversationsModule&#45;&gt;AppModule</title>
<path fill="none" stroke="black" d="M1315,-305.1C1315,-323.07 1315,-347.8 1315,-347.8 1315,-347.8 299.83,-347.8 299.83,-347.8"/>
<polygon fill="black" stroke="black" points="299.83,-344.3 289.83,-347.8 299.83,-351.3 299.83,-344.3"/>
</g>
<!-- FilesModule -->
<g id="node6" class="node">
<title>FilesModule</title>
<polygon fill="#8dd3c7" stroke="black" points="2157.28,-304.8 2154.28,-308.8 2133.28,-308.8 2130.28,-304.8 2070.72,-304.8 2070.72,-268.8 2157.28,-268.8 2157.28,-304.8"/>
<text text-anchor="middle" x="2114" y="-282.6" font-family="Times,serif" font-size="14.00">FilesModule</text>
</g>
<!-- FilesModule&#45;&gt;AppModule -->
<g id="edge6" class="edge">
<title>FilesModule&#45;&gt;AppModule</title>
<path fill="none" stroke="black" d="M2114,-305.09C2114,-327.01 2114,-360.8 2114,-360.8 2114,-360.8 300.03,-360.8 300.03,-360.8"/>
<polygon fill="black" stroke="black" points="300.03,-357.3 290.03,-360.8 300.03,-364.3 300.03,-357.3"/>
</g>
<!-- InterceptorModule -->
<g id="node7" class="node">
<title>InterceptorModule</title>
<polygon fill="#8dd3c7" stroke="black" points="144.46,-304.8 141.46,-308.8 120.46,-308.8 117.46,-304.8 23.54,-304.8 23.54,-268.8 144.46,-268.8 144.46,-304.8"/>
<text text-anchor="middle" x="84" y="-282.6" font-family="Times,serif" font-size="14.00">InterceptorModule</text>
</g>
<!-- InterceptorModule&#45;&gt;AppModule -->
<g id="edge7" class="edge">
<title>InterceptorModule&#45;&gt;AppModule</title>
<path fill="none" stroke="black" d="M84,-304.91C84,-324.14 84,-351.8 84,-351.8 84,-351.8 196.19,-351.8 196.19,-351.8"/>
<polygon fill="black" stroke="black" points="196.19,-355.3 206.19,-351.8 196.19,-348.3 196.19,-355.3"/>
</g>
<!-- MessagesModule -->
<g id="node8" class="node">
<title>MessagesModule</title>
<polygon fill="#8dd3c7" stroke="black" points="2320.99,-304.8 2317.99,-308.8 2296.99,-308.8 2293.99,-304.8 2207.01,-304.8 2207.01,-268.8 2320.99,-268.8 2320.99,-304.8"/>
<text text-anchor="middle" x="2264" y="-282.6" font-family="Times,serif" font-size="14.00">MessagesModule</text>
</g>
<!-- MessagesModule&#45;&gt;AppModule -->
<g id="edge8" class="edge">
<title>MessagesModule&#45;&gt;AppModule</title>
<path fill="none" stroke="black" d="M2264,-305.12C2264,-328.46 2264,-365.8 2264,-365.8 2264,-365.8 300.11,-365.8 300.11,-365.8"/>
<polygon fill="black" stroke="black" points="300.11,-362.3 290.11,-365.8 300.11,-369.3 300.11,-362.3"/>
</g>
<!-- OauthModule&#45;&gt;AppModule -->
<g id="edge9" class="edge">
<title>OauthModule&#45;&gt;AppModule</title>
<path fill="none" stroke="black" d="M713,-304.99C713,-319.98 713,-338.8 713,-338.8 713,-338.8 299.67,-338.8 299.67,-338.8"/>
<polygon fill="black" stroke="black" points="299.67,-335.3 289.67,-338.8 299.67,-342.3 299.67,-335.3"/>
</g>
<!-- PostsModule&#45;&gt;AppModule -->
<g id="edge10" class="edge">
<title>PostsModule&#45;&gt;AppModule</title>
<path fill="none" stroke="black" d="M1572,-228.94C1572,-267.03 1572,-351.8 1572,-351.8 1572,-351.8 299.81,-351.8 299.81,-351.8"/>
<polygon fill="black" stroke="black" points="299.81,-348.3 289.81,-351.8 299.81,-355.3 299.81,-348.3"/>
</g>
<!-- PrismaModule -->
<g id="node11" class="node">
<title>PrismaModule</title>
<polygon fill="#8dd3c7" stroke="black" points="1737.44,-160.8 1734.44,-164.8 1713.44,-164.8 1710.44,-160.8 1638.56,-160.8 1638.56,-124.8 1737.44,-124.8 1737.44,-160.8"/>
<text text-anchor="middle" x="1688" y="-138.6" font-family="Times,serif" font-size="14.00">PrismaModule</text>
</g>
<!-- PrismaModule&#45;&gt;UsersModule -->
<g id="edge34" class="edge">
<title>PrismaModule&#45;&gt;UsersModule</title>
<path fill="none" stroke="black" d="M1655.19,-161C1655.19,-166.83 1655.19,-171.8 1655.19,-171.8 1655.19,-171.8 870,-171.8 870,-171.8 870,-171.8 870,-182.67 870,-182.67"/>
<polygon fill="black" stroke="black" points="866.5,-182.67 870,-192.67 873.5,-182.67 866.5,-182.67"/>
</g>
<!-- PrismaModule&#45;&gt;AuthModule -->
<g id="edge14" class="edge">
<title>PrismaModule&#45;&gt;AuthModule</title>
<path fill="none" stroke="black" d="M1688,-124.69C1688,-114.9 1688,-104.8 1688,-104.8 1688,-104.8 901.08,-104.8 901.08,-104.8 901.08,-104.8 901.08,-114.69 901.08,-114.69"/>
<polygon fill="black" stroke="black" points="897.58,-114.69 901.08,-124.69 904.58,-114.69 897.58,-114.69"/>
</g>
<!-- PrismaModule&#45;&gt;ConversationsModule -->
<g id="edge19" class="edge">
<title>PrismaModule&#45;&gt;ConversationsModule</title>
<path fill="none" stroke="black" d="M1688,-161.04C1688,-199.79 1688,-286.8 1688,-286.8 1688,-286.8 1394.72,-286.8 1394.72,-286.8"/>
<polygon fill="black" stroke="black" points="1394.72,-283.3 1384.72,-286.8 1394.72,-290.3 1394.72,-283.3"/>
</g>
<!-- PrismaModule&#45;&gt;PostsModule -->
<g id="edge28" class="edge">
<title>PrismaModule&#45;&gt;PostsModule</title>
<path fill="none" stroke="black" d="M1671.59,-161.09C1671.59,-183.01 1671.59,-216.8 1671.59,-216.8 1671.59,-216.8 1626.84,-216.8 1626.84,-216.8"/>
<polygon fill="black" stroke="black" points="1626.84,-213.3 1616.84,-216.8 1626.84,-220.3 1626.84,-213.3"/>
</g>
<!-- PrismaModule&#45;&gt;AppModule -->
<g id="edge11" class="edge">
<title>PrismaModule&#45;&gt;AppModule</title>
<path fill="none" stroke="black" d="M1704.41,-161.05C1704.41,-212.8 1704.41,-356.8 1704.41,-356.8 1704.41,-356.8 300.02,-356.8 300.02,-356.8"/>
<polygon fill="black" stroke="black" points="300.02,-353.3 290.02,-356.8 300.02,-360.3 300.02,-353.3"/>
</g>
<!-- PrismaService  -->
<g id="node24" class="node">
<title>PrismaService </title>
<polygon fill="#fb8072" stroke="black" points="2035.37,-228.8 1934.63,-228.8 1934.63,-192.8 2035.37,-192.8 2035.37,-228.8"/>
<text text-anchor="middle" x="1985" y="-206.6" font-family="Times,serif" font-size="14.00">PrismaService </text>
</g>
<!-- PrismaModule&#45;&gt;PrismaService  -->
<g id="edge31" class="edge">
<title>PrismaModule&#45;&gt;PrismaService </title>
<path fill="none" stroke="black" stroke-dasharray="5,2" d="M1737.38,-142.8C1821.83,-142.8 1985,-142.8 1985,-142.8 1985,-142.8 1985,-182.58 1985,-182.58"/>
<polygon fill="black" stroke="black" points="1981.5,-182.58 1985,-192.58 1988.5,-182.58 1981.5,-182.58"/>
</g>
<!-- AppService -->
<g id="node13" class="node">
<title>AppService</title>
<ellipse fill="#fdb462" stroke="black" cx="225" cy="-286.8" rx="56.75" ry="18"/>
<text text-anchor="middle" x="225" y="-282.6" font-family="Times,serif" font-size="14.00">AppService</text>
</g>
<!-- AppService&#45;&gt;AppModule -->
<g id="edge13" class="edge">
<title>AppService&#45;&gt;AppModule</title>
<path fill="none" stroke="black" d="M243.9,-303.88C243.9,-303.88 243.9,-323.7 243.9,-323.7"/>
<polygon fill="black" stroke="black" points="240.4,-323.7 243.9,-333.7 247.4,-323.7 240.4,-323.7"/>
</g>
<!-- AtStrategy -->
<g id="node15" class="node">
<title>AtStrategy</title>
<ellipse fill="#fdb462" stroke="black" cx="682" cy="-66.8" rx="52.75" ry="18"/>
<text text-anchor="middle" x="682" y="-62.6" font-family="Times,serif" font-size="14.00">AtStrategy</text>
</g>
<!-- AtStrategy&#45;&gt;AuthModule -->
<g id="edge16" class="edge">
<title>AtStrategy&#45;&gt;AuthModule</title>
<path fill="none" stroke="black" d="M688.11,-84.75C688.11,-104.6 688.11,-133.8 688.11,-133.8 688.11,-133.8 816.43,-133.8 816.43,-133.8"/>
<polygon fill="black" stroke="black" points="816.43,-137.3 826.43,-133.8 816.43,-130.3 816.43,-137.3"/>
</g>
<!-- AuthService -->
<g id="node16" class="node">
<title>AuthService</title>
<ellipse fill="#fdb462" stroke="black" cx="935" cy="-66.8" rx="59.11" ry="18"/>
<text text-anchor="middle" x="935" y="-62.6" font-family="Times,serif" font-size="14.00">AuthService</text>
</g>
<!-- AuthService&#45;&gt;AuthModule -->
<g id="edge17" class="edge">
<title>AuthService&#45;&gt;AuthModule</title>
<path fill="none" stroke="black" d="M888.39,-78.01C888.39,-78.01 888.39,-114.76 888.39,-114.76"/>
<polygon fill="black" stroke="black" points="884.89,-114.76 888.39,-124.76 891.89,-114.76 884.89,-114.76"/>
</g>
<!-- RtStrategy -->
<g id="node17" class="node">
<title>RtStrategy</title>
<ellipse fill="#fdb462" stroke="black" cx="805" cy="-66.8" rx="52.19" ry="18"/>
<text text-anchor="middle" x="805" y="-62.6" font-family="Times,serif" font-size="14.00">RtStrategy</text>
</g>
<!-- RtStrategy&#45;&gt;AuthModule -->
<g id="edge18" class="edge">
<title>RtStrategy&#45;&gt;AuthModule</title>
<path fill="none" stroke="black" d="M841.78,-79.69C841.78,-79.69 841.78,-114.71 841.78,-114.71"/>
<polygon fill="black" stroke="black" points="838.28,-114.71 841.78,-124.71 845.28,-114.71 838.28,-114.71"/>
</g>
<!-- ConversationsService -->
<g id="node18" class="node">
<title>ConversationsService</title>
<ellipse fill="#fdb462" stroke="black" cx="1332" cy="-210.8" rx="95.49" ry="18"/>
<text text-anchor="middle" x="1332" y="-206.6" font-family="Times,serif" font-size="14.00">ConversationsService</text>
</g>
<!-- ConversationsService&#45;&gt;ConversationsModule -->
<g id="edge21" class="edge">
<title>ConversationsService&#45;&gt;ConversationsModule</title>
<path fill="none" stroke="black" d="M1315,-228.81C1315,-228.81 1315,-258.65 1315,-258.65"/>
<polygon fill="black" stroke="black" points="1311.5,-258.65 1315,-268.65 1318.5,-258.65 1311.5,-258.65"/>
</g>
<!-- FilesService -->
<g id="node19" class="node">
<title>FilesService</title>
<polygon fill="#8dd3c7" stroke="black" points="2160.71,-228.8 2157.71,-232.8 2136.71,-232.8 2133.71,-228.8 2075.29,-228.8 2075.29,-192.8 2160.71,-192.8 2160.71,-228.8"/>
<text text-anchor="middle" x="2118" y="-206.6" font-family="Times,serif" font-size="14.00">FilesService</text>
</g>
<!-- FilesService&#45;&gt;FilesModule -->
<g id="edge22" class="edge">
<title>FilesService&#45;&gt;FilesModule</title>
<path fill="none" stroke="black" d="M2116.39,-228.81C2116.39,-228.81 2116.39,-258.65 2116.39,-258.65"/>
<polygon fill="black" stroke="black" points="2112.89,-258.65 2116.39,-268.65 2119.89,-258.65 2112.89,-258.65"/>
</g>
<!-- MessagesService -->
<g id="node20" class="node">
<title>MessagesService</title>
<ellipse fill="#fdb462" stroke="black" cx="2279" cy="-210.8" rx="77.58" ry="18"/>
<text text-anchor="middle" x="2279" y="-206.6" font-family="Times,serif" font-size="14.00">MessagesService</text>
</g>
<!-- MessagesService&#45;&gt;MessagesModule -->
<g id="edge23" class="edge">
<title>MessagesService&#45;&gt;MessagesModule</title>
<path fill="none" stroke="black" d="M2264,-228.81C2264,-228.81 2264,-258.65 2264,-258.65"/>
<polygon fill="black" stroke="black" points="2260.5,-258.65 2264,-268.65 2267.5,-258.65 2260.5,-258.65"/>
</g>
<!-- GoogleStrategy -->
<g id="node21" class="node">
<title>GoogleStrategy</title>
<ellipse fill="#fdb462" stroke="black" cx="713" cy="-210.8" rx="71.79" ry="18"/>
<text text-anchor="middle" x="713" y="-206.6" font-family="Times,serif" font-size="14.00">GoogleStrategy</text>
</g>
<!-- GoogleStrategy&#45;&gt;OauthModule -->
<g id="edge26" class="edge">
<title>GoogleStrategy&#45;&gt;OauthModule</title>
<path fill="none" stroke="black" d="M713,-228.81C713,-228.81 713,-258.65 713,-258.65"/>
<polygon fill="black" stroke="black" points="709.5,-258.65 713,-268.65 716.5,-258.65 709.5,-258.65"/>
</g>
<!-- OauthService -->
<g id="node22" class="node">
<title>OauthService</title>
<ellipse fill="#fdb462" stroke="black" cx="560" cy="-210.8" rx="63.69" ry="18"/>
<text text-anchor="middle" x="560" y="-206.6" font-family="Times,serif" font-size="14.00">OauthService</text>
</g>
<!-- OauthService&#45;&gt;OauthModule -->
<g id="edge27" class="edge">
<title>OauthService&#45;&gt;OauthModule</title>
<path fill="none" stroke="black" d="M560,-228.81C560,-251.29 560,-286.8 560,-286.8 560,-286.8 655.85,-286.8 655.85,-286.8"/>
<polygon fill="black" stroke="black" points="655.85,-290.3 665.85,-286.8 655.85,-283.3 655.85,-290.3"/>
</g>
<!-- PostsService -->
<g id="node23" class="node">
<title>PostsService</title>
<ellipse fill="#fdb462" stroke="black" cx="1555" cy="-142.8" rx="60.28" ry="18"/>
<text text-anchor="middle" x="1555" y="-138.6" font-family="Times,serif" font-size="14.00">PostsService</text>
</g>
<!-- PostsService&#45;&gt;PostsModule -->
<g id="edge30" class="edge">
<title>PostsService&#45;&gt;PostsModule</title>
<path fill="none" stroke="black" d="M1586.07,-158.57C1586.07,-158.57 1586.07,-182.71 1586.07,-182.71"/>
<polygon fill="black" stroke="black" points="1582.57,-182.71 1586.07,-192.71 1589.57,-182.71 1582.57,-182.71"/>
</g>
<!-- PrismaService -->
<g id="node25" class="node">
<title>PrismaService</title>
<ellipse fill="#fdb462" stroke="black" cx="1844" cy="-210.8" rx="66.64" ry="18"/>
<text text-anchor="middle" x="1844" y="-206.6" font-family="Times,serif" font-size="14.00">PrismaService</text>
</g>
<!-- PrismaService&#45;&gt;PrismaModule -->
<g id="edge32" class="edge">
<title>PrismaService&#45;&gt;PrismaModule</title>
<path fill="none" stroke="black" d="M1780.96,-204.8C1750.66,-204.8 1720.81,-204.8 1720.81,-204.8 1720.81,-204.8 1720.81,-171.07 1720.81,-171.07"/>
<polygon fill="black" stroke="black" points="1724.31,-171.07 1720.81,-161.07 1717.31,-171.07 1724.31,-171.07"/>
</g>
<!-- UsersService -->
<g id="node27" class="node">
<title>UsersService</title>
<ellipse fill="#fdb462" stroke="black" cx="1017" cy="-286.8" rx="61.97" ry="18"/>
<text text-anchor="middle" x="1017" y="-282.6" font-family="Times,serif" font-size="14.00">UsersService</text>
</g>
<!-- UsersService&#45;&gt;UsersModule -->
<g id="edge36" class="edge">
<title>UsersService&#45;&gt;UsersModule</title>
<path fill="none" stroke="black" d="M974.66,-273.56C974.66,-254.04 974.66,-219.8 974.66,-219.8 974.66,-219.8 924.73,-219.8 924.73,-219.8"/>
<polygon fill="black" stroke="black" points="924.73,-216.3 914.73,-219.8 924.73,-223.3 924.73,-216.3"/>
</g>
</g>
</svg>
