<?xml version="1.0" encoding="UTF-8" standalone="no"?>
<!DOCTYPE svg PUBLIC "-//W3C//DTD SVG 1.1//EN"
 "http://www.w3.org/Graphics/SVG/1.1/DTD/svg11.dtd">
<!-- Generated by graphviz version 5.0.0 (20220707.1540)
 -->
<!-- Title: dependencies Pages: 1 -->
<svg width="2967pt" height="394pt"
 viewBox="0.00 0.00 2967.00 393.80" xmlns="http://www.w3.org/2000/svg" xmlns:xlink="http://www.w3.org/1999/xlink">
<g id="graph0" class="graph" transform="scale(1 1) rotate(0) translate(4 389.8)">
<title>dependencies</title>
<polygon fill="white" stroke="transparent" points="-4,4 -4,-389.8 2963,-389.8 2963,4 -4,4"/>
<text text-anchor="middle" x="1479.5" y="-8.2" font-family="sans-serif" font-size="14.00">dependencies</text>
<g id="clust1" class="cluster">
<title>cluster_AdminModule</title>
<polygon fill="none" stroke="black" stroke-dasharray="1,5" points="2602,-184.8 2602,-312.8 2884,-312.8 2884,-184.8 2602,-184.8"/>
</g>
<g id="clust3" class="cluster">
<title>cluster_AdminModule_imports</title>
<polygon fill="none" stroke="black" points="2768,-192.8 2768,-244.8 2876,-244.8 2876,-192.8 2768,-192.8"/>
</g>
<g id="clust6" class="cluster">
<title>cluster_AdminModule_providers</title>
<polygon fill="none" stroke="black" points="2610,-192.8 2610,-244.8 2760,-244.8 2760,-192.8 2610,-192.8"/>
</g>
<g id="clust7" class="cluster">
<title>cluster_AppModule</title>
<polygon fill="none" stroke="black" stroke-dasharray="1,5" points="917,-108.8 917,-377.8 1668,-377.8 1668,-108.8 917,-108.8"/>
</g>
<g id="clust9" class="cluster">
<title>cluster_AppModule_imports</title>
<polygon fill="none" stroke="black" points="1063,-116.8 1063,-312.8 1660,-312.8 1660,-116.8 1063,-116.8"/>
</g>
<g id="clust12" class="cluster">
<title>cluster_AppModule_providers</title>
<polygon fill="none" stroke="black" points="925,-260.8 925,-312.8 1055,-312.8 1055,-260.8 925,-260.8"/>
</g>
<g id="clust13" class="cluster">
<title>cluster_AuthModule</title>
<polygon fill="none" stroke="black" stroke-dasharray="1,5" points="8,-108.8 8,-176.8 519,-176.8 519,-108.8 8,-108.8"/>
</g>
<g id="clust16" class="cluster">
<title>cluster_AuthModule_exports</title>
<polygon fill="none" stroke="black" points="405,-116.8 405,-168.8 511,-168.8 511,-116.8 405,-116.8"/>
</g>
<g id="clust18" class="cluster">
<title>cluster_AuthModule_providers</title>
<polygon fill="none" stroke="black" points="16,-116.8 16,-168.8 397,-168.8 397,-116.8 16,-116.8"/>
</g>
<g id="clust19" class="cluster">
<title>cluster_ConversationsModule</title>
<polygon fill="none" stroke="black" stroke-dasharray="1,5" points="527,-108.8 527,-176.8 749,-176.8 749,-108.8 527,-108.8"/>
</g>
<g id="clust24" class="cluster">
<title>cluster_ConversationsModule_providers</title>
<polygon fill="none" stroke="black" points="535,-116.8 535,-168.8 741,-168.8 741,-116.8 535,-116.8"/>
</g>
<g id="clust25" class="cluster">
<title>cluster_FilesModule</title>
<polygon fill="none" stroke="black" stroke-dasharray="1,5" points="1033,-32.8 1033,-100.8 1151,-100.8 1151,-32.8 1033,-32.8"/>
</g>
<g id="clust27" class="cluster">
<title>cluster_FilesModule_imports</title>
<polygon fill="none" stroke="black" points="1041,-40.8 1041,-92.8 1143,-92.8 1143,-40.8 1041,-40.8"/>
</g>
<g id="clust43" class="cluster">
<title>cluster_MessagesModule</title>
<polygon fill="none" stroke="black" stroke-dasharray="1,5" points="1159,-32.8 1159,-100.8 1347,-100.8 1347,-32.8 1159,-32.8"/>
</g>
<g id="clust48" class="cluster">
<title>cluster_MessagesModule_providers</title>
<polygon fill="none" stroke="black" points="1167,-40.8 1167,-92.8 1339,-92.8 1339,-40.8 1167,-40.8"/>
</g>
<g id="clust49" class="cluster">
<title>cluster_OauthModule</title>
<polygon fill="none" stroke="black" stroke-dasharray="1,5" points="1974,-184.8 1974,-252.8 2594,-252.8 2594,-184.8 1974,-184.8"/>
</g>
<g id="clust52" class="cluster">
<title>cluster_OauthModule_exports</title>
<polygon fill="none" stroke="black" points="2474,-192.8 2474,-244.8 2586,-244.8 2586,-192.8 2474,-192.8"/>
</g>
<g id="clust54" class="cluster">
<title>cluster_OauthModule_providers</title>
<polygon fill="none" stroke="black" points="1982,-192.8 1982,-244.8 2466,-244.8 2466,-192.8 1982,-192.8"/>
</g>
<g id="clust55" class="cluster">
<title>cluster_PostsModule</title>
<polygon fill="none" stroke="black" stroke-dasharray="1,5" points="757,-108.8 757,-176.8 909,-176.8 909,-108.8 757,-108.8"/>
</g>
<g id="clust60" class="cluster">
<title>cluster_PostsModule_providers</title>
<polygon fill="none" stroke="black" points="765,-116.8 765,-168.8 901,-168.8 901,-116.8 765,-116.8"/>
</g>
<g id="clust61" class="cluster">
<title>cluster_PrismaModule</title>
<polygon fill="none" stroke="black" stroke-dasharray="1,5" points="1676,-184.8 1676,-252.8 1966,-252.8 1966,-184.8 1676,-184.8"/>
</g>
<g id="clust64" class="cluster">
<title>cluster_PrismaModule_exports</title>
<polygon fill="none" stroke="black" points="1842,-192.8 1842,-244.8 1958,-244.8 1958,-192.8 1842,-192.8"/>
</g>
<g id="clust66" class="cluster">
<title>cluster_PrismaModule_providers</title>
<polygon fill="none" stroke="black" points="1684,-192.8 1684,-244.8 1834,-244.8 1834,-192.8 1684,-192.8"/>
</g>
<g id="clust67" class="cluster">
<title>cluster_UsersModule</title>
<polygon fill="none" stroke="black" stroke-dasharray="1,5" points="2677,-108.8 2677,-176.8 2951,-176.8 2951,-108.8 2677,-108.8"/>
</g>
<g id="clust70" class="cluster">
<title>cluster_UsersModule_exports</title>
<polygon fill="none" stroke="black" points="2833,-116.8 2833,-168.8 2943,-168.8 2943,-116.8 2833,-116.8"/>
</g>
<g id="clust72" class="cluster">
<title>cluster_UsersModule_providers</title>
<polygon fill="none" stroke="black" points="2685,-116.8 2685,-168.8 2825,-168.8 2825,-116.8 2685,-116.8"/>
</g>
<!-- UsersModule -->
<g id="node1" class="node">
<title>UsersModule</title>
<polygon fill="#8dd3c7" stroke="black" points="2867.94,-236.8 2864.94,-240.8 2843.94,-240.8 2840.94,-236.8 2776.06,-236.8 2776.06,-200.8 2867.94,-200.8 2867.94,-236.8"/>
<text text-anchor="middle" x="2822" y="-214.6" font-family="Times,serif" font-size="14.00">UsersModule</text>
</g>
<!-- AdminModule -->
<g id="node2" class="node">
<title>AdminModule</title>
<polygon fill="#8dd3c7" stroke="black" points="2734.44,-304.8 2731.44,-308.8 2710.44,-308.8 2707.44,-304.8 2635.56,-304.8 2635.56,-268.8 2734.44,-268.8 2734.44,-304.8"/>
<text text-anchor="middle" x="2685" y="-282.6" font-family="Times,serif" font-size="14.00">AdminModule</text>
</g>
<!-- UsersModule&#45;&gt;AdminModule -->
<g id="edge1" class="edge">
<title>UsersModule&#45;&gt;AdminModule</title>
<path fill="none" stroke="black" d="M2806.76,-237.02C2806.76,-257.17 2806.76,-286.8 2806.76,-286.8 2806.76,-286.8 2744.52,-286.8 2744.52,-286.8"/>
<polygon fill="black" stroke="black" points="2744.52,-283.3 2734.52,-286.8 2744.52,-290.3 2744.52,-283.3"/>
</g>
<!-- ConversationsModule -->
<g id="node5" class="node">
<title>ConversationsModule</title>
<polygon fill="#8dd3c7" stroke="black" points="1486.66,-236.8 1483.66,-240.8 1462.66,-240.8 1459.66,-236.8 1347.34,-236.8 1347.34,-200.8 1486.66,-200.8 1486.66,-236.8"/>
<text text-anchor="middle" x="1417" y="-214.6" font-family="Times,serif" font-size="14.00">ConversationsModule</text>
</g>
<!-- UsersModule&#45;&gt;ConversationsModule -->
<g id="edge21" class="edge">
<title>UsersModule&#45;&gt;ConversationsModule</title>
<path fill="none" stroke="black" d="M2803.42,-200.62C2803.42,-187.76 2803.42,-172.8 2803.42,-172.8 2803.42,-172.8 1455.17,-172.8 1455.17,-172.8 1455.17,-172.8 1455.17,-190.62 1455.17,-190.62"/>
<polygon fill="black" stroke="black" points="1451.67,-190.62 1455.17,-200.62 1458.67,-190.62 1451.67,-190.62"/>
</g>
<!-- PostsModule -->
<g id="node11" class="node">
<title>PostsModule</title>
<polygon fill="#8dd3c7" stroke="black" points="1593.62,-236.8 1590.62,-240.8 1569.62,-240.8 1566.62,-236.8 1504.38,-236.8 1504.38,-200.8 1593.62,-200.8 1593.62,-236.8"/>
<text text-anchor="middle" x="1549" y="-214.6" font-family="Times,serif" font-size="14.00">PostsModule</text>
</g>
<!-- UsersModule&#45;&gt;PostsModule -->
<g id="edge31" class="edge">
<title>UsersModule&#45;&gt;PostsModule</title>
<path fill="none" stroke="black" d="M2796.63,-200.74C2796.63,-189.36 2796.63,-176.8 2796.63,-176.8 2796.63,-176.8 1578.01,-176.8 1578.01,-176.8 1578.01,-176.8 1578.01,-190.74 1578.01,-190.74"/>
<polygon fill="black" stroke="black" points="1574.51,-190.74 1578.01,-200.74 1581.51,-190.74 1574.51,-190.74"/>
</g>
<!-- AppModule -->
<g id="node13" class="node">
<title>AppModule</title>
<polygon fill="#8dd3c7" stroke="black" points="1484.66,-369.8 1481.66,-373.8 1460.66,-373.8 1457.66,-369.8 1401.34,-369.8 1401.34,-333.8 1484.66,-333.8 1484.66,-369.8"/>
<text text-anchor="middle" x="1443" y="-347.6" font-family="Times,serif" font-size="14.00">AppModule</text>
</g>
<!-- UsersModule&#45;&gt;AppModule -->
<g id="edge13" class="edge">
<title>UsersModule&#45;&gt;AppModule</title>
<path fill="none" stroke="black" d="M2837.24,-237C2837.24,-276.13 2837.24,-364.8 2837.24,-364.8 2837.24,-364.8 1494.73,-364.8 1494.73,-364.8"/>
<polygon fill="black" stroke="black" points="1494.73,-361.3 1484.73,-364.8 1494.73,-368.3 1494.73,-361.3"/>
</g>
<!-- UsersService  -->
<g id="node29" class="node">
<title>UsersService </title>
<polygon fill="#fb8072" stroke="black" points="2934.86,-160.8 2841.14,-160.8 2841.14,-124.8 2934.86,-124.8 2934.86,-160.8"/>
<text text-anchor="middle" x="2888" y="-138.6" font-family="Times,serif" font-size="14.00">UsersService </text>
</g>
<!-- UsersModule&#45;&gt;UsersService  -->
<g id="edge37" class="edge">
<title>UsersModule&#45;&gt;UsersService </title>
<path fill="none" stroke="black" stroke-dasharray="5,2" d="M2854.52,-200.79C2854.52,-200.79 2854.52,-170.95 2854.52,-170.95"/>
<polygon fill="black" stroke="black" points="2858.02,-170.95 2854.52,-160.95 2851.02,-170.95 2858.02,-170.95"/>
</g>
<!-- AdminModule&#45;&gt;AppModule -->
<g id="edge3" class="edge">
<title>AdminModule&#45;&gt;AppModule</title>
<path fill="none" stroke="black" d="M2685,-305.08C2685,-326.12 2685,-357.8 2685,-357.8 2685,-357.8 1494.68,-357.8 1494.68,-357.8"/>
<polygon fill="black" stroke="black" points="1494.68,-354.3 1484.68,-357.8 1494.68,-361.3 1494.68,-354.3"/>
</g>
<!-- AdminService -->
<g id="node3" class="node">
<title>AdminService</title>
<ellipse fill="#fdb462" stroke="black" cx="2685" cy="-218.8" rx="66.64" ry="18"/>
<text text-anchor="middle" x="2685" y="-214.6" font-family="Times,serif" font-size="14.00">AdminService</text>
</g>
<!-- AdminService&#45;&gt;AdminModule -->
<g id="edge2" class="edge">
<title>AdminService&#45;&gt;AdminModule</title>
<path fill="none" stroke="black" d="M2685,-237.02C2685,-237.02 2685,-258.53 2685,-258.53"/>
<polygon fill="black" stroke="black" points="2681.5,-258.53 2685,-268.53 2688.5,-258.53 2681.5,-258.53"/>
</g>
<!-- AuthModule -->
<g id="node4" class="node">
<title>AuthModule</title>
<polygon fill="#8dd3c7" stroke="black" points="1328.55,-236.8 1325.55,-240.8 1304.55,-240.8 1301.55,-236.8 1241.45,-236.8 1241.45,-200.8 1328.55,-200.8 1328.55,-236.8"/>
<text text-anchor="middle" x="1285" y="-214.6" font-family="Times,serif" font-size="14.00">AuthModule</text>
</g>
<!-- AuthModule&#45;&gt;UsersModule -->
<g id="edge35" class="edge">
<title>AuthModule&#45;&gt;UsersModule</title>
<path fill="none" stroke="black" d="M1321.44,-200.75C1321.44,-186.43 1321.44,-168.8 1321.44,-168.8 1321.44,-168.8 2783.07,-168.8 2783.07,-168.8 2783.07,-168.8 2783.07,-190.75 2783.07,-190.75"/>
<polygon fill="black" stroke="black" points="2779.57,-190.75 2783.07,-200.75 2786.57,-190.75 2779.57,-190.75"/>
</g>
<!-- OauthModule -->
<g id="node10" class="node">
<title>OauthModule</title>
<polygon fill="#8dd3c7" stroke="black" points="1593.77,-304.8 1590.77,-308.8 1569.77,-308.8 1566.77,-304.8 1500.23,-304.8 1500.23,-268.8 1593.77,-268.8 1593.77,-304.8"/>
<text text-anchor="middle" x="1547" y="-282.6" font-family="Times,serif" font-size="14.00">OauthModule</text>
</g>
<!-- AuthModule&#45;&gt;OauthModule -->
<g id="edge25" class="edge">
<title>AuthModule&#45;&gt;OauthModule</title>
<path fill="none" stroke="black" d="M1299.59,-236.82C1299.59,-254.17 1299.59,-277.8 1299.59,-277.8 1299.59,-277.8 1490.17,-277.8 1490.17,-277.8"/>
<polygon fill="black" stroke="black" points="1490.17,-281.3 1500.17,-277.8 1490.17,-274.3 1490.17,-281.3"/>
</g>
<!-- AuthModule&#45;&gt;AppModule -->
<g id="edge4" class="edge">
<title>AuthModule&#45;&gt;AppModule</title>
<path fill="none" stroke="black" d="M1270.41,-236.88C1270.41,-272.6 1270.41,-348.8 1270.41,-348.8 1270.41,-348.8 1391.22,-348.8 1391.22,-348.8"/>
<polygon fill="black" stroke="black" points="1391.22,-352.3 1401.22,-348.8 1391.22,-345.3 1391.22,-352.3"/>
</g>
<!-- AuthService  -->
<g id="node15" class="node">
<title>AuthService </title>
<polygon fill="#fb8072" stroke="black" points="502.98,-160.8 413.02,-160.8 413.02,-124.8 502.98,-124.8 502.98,-160.8"/>
<text text-anchor="middle" x="458" y="-138.6" font-family="Times,serif" font-size="14.00">AuthService </text>
</g>
<!-- AuthModule&#45;&gt;AuthService  -->
<g id="edge16" class="edge">
<title>AuthModule&#45;&gt;AuthService </title>
<path fill="none" stroke="black" stroke-dasharray="5,2" d="M1241.41,-208.8C1070.84,-208.8 458,-208.8 458,-208.8 458,-208.8 458,-170.83 458,-170.83"/>
<polygon fill="black" stroke="black" points="461.5,-170.83 458,-160.83 454.5,-170.83 461.5,-170.83"/>
</g>
<!-- ConversationsModule&#45;&gt;AppModule -->
<g id="edge5" class="edge">
<title>ConversationsModule&#45;&gt;AppModule</title>
<path fill="none" stroke="black" d="M1443,-237.01C1443,-237.01 1443,-323.38 1443,-323.38"/>
<polygon fill="black" stroke="black" points="1439.5,-323.38 1443,-333.38 1446.5,-323.38 1439.5,-323.38"/>
</g>
<!-- FilesModule -->
<g id="node6" class="node">
<title>FilesModule</title>
<polygon fill="#8dd3c7" stroke="black" points="1157.28,-160.8 1154.28,-164.8 1133.28,-164.8 1130.28,-160.8 1070.72,-160.8 1070.72,-124.8 1157.28,-124.8 1157.28,-160.8"/>
<text text-anchor="middle" x="1114" y="-138.6" font-family="Times,serif" font-size="14.00">FilesModule</text>
</g>
<!-- FilesModule&#45;&gt;AppModule -->
<g id="edge6" class="edge">
<title>FilesModule&#45;&gt;AppModule</title>
<path fill="none" stroke="black" d="M1114,-160.8C1114,-213.35 1114,-362.8 1114,-362.8 1114,-362.8 1391.33,-362.8 1391.33,-362.8"/>
<polygon fill="black" stroke="black" points="1391.33,-366.3 1401.33,-362.8 1391.33,-359.3 1391.33,-366.3"/>
</g>
<!-- InterceptorModule -->
<g id="node7" class="node">
<title>InterceptorModule</title>
<polygon fill="#8dd3c7" stroke="black" points="1544.46,-160.8 1541.46,-164.8 1520.46,-164.8 1517.46,-160.8 1423.54,-160.8 1423.54,-124.8 1544.46,-124.8 1544.46,-160.8"/>
<text text-anchor="middle" x="1484" y="-138.6" font-family="Times,serif" font-size="14.00">InterceptorModule</text>
</g>
<!-- InterceptorModule&#45;&gt;AppModule -->
<g id="edge7" class="edge">
<title>InterceptorModule&#45;&gt;AppModule</title>
<path fill="none" stroke="black" d="M1491.26,-160.98C1491.26,-209.75 1491.26,-339.8 1491.26,-339.8 1491.26,-339.8 1490.63,-339.8 1490.63,-339.8"/>
<polygon fill="black" stroke="black" points="1494.95,-336.3 1484.95,-339.8 1494.95,-343.3 1494.95,-336.3"/>
</g>
<!-- MathModule -->
<g id="node8" class="node">
<title>MathModule</title>
<polygon fill="#8dd3c7" stroke="black" points="1651.6,-160.8 1648.6,-164.8 1627.6,-164.8 1624.6,-160.8 1562.4,-160.8 1562.4,-124.8 1651.6,-124.8 1651.6,-160.8"/>
<text text-anchor="middle" x="1607" y="-138.6" font-family="Times,serif" font-size="14.00">MathModule</text>
</g>
<!-- MathModule&#45;&gt;AppModule -->
<g id="edge8" class="edge">
<title>MathModule&#45;&gt;AppModule</title>
<path fill="none" stroke="black" d="M1622.72,-160.98C1622.72,-211.83 1622.72,-351.8 1622.72,-351.8 1622.72,-351.8 1494.68,-351.8 1494.68,-351.8"/>
<polygon fill="black" stroke="black" points="1494.68,-348.3 1484.68,-351.8 1494.68,-355.3 1494.68,-348.3"/>
</g>
<!-- MessagesModule -->
<g id="node9" class="node">
<title>MessagesModule</title>
<polygon fill="#8dd3c7" stroke="black" points="1288.99,-160.8 1285.99,-164.8 1264.99,-164.8 1261.99,-160.8 1175.01,-160.8 1175.01,-124.8 1288.99,-124.8 1288.99,-160.8"/>
<text text-anchor="middle" x="1232" y="-138.6" font-family="Times,serif" font-size="14.00">MessagesModule</text>
</g>
<!-- MessagesModule&#45;&gt;AppModule -->
<g id="edge9" class="edge">
<title>MessagesModule&#45;&gt;AppModule</title>
<path fill="none" stroke="black" d="M1208.12,-160.96C1208.12,-212.47 1208.12,-355.8 1208.12,-355.8 1208.12,-355.8 1391.28,-355.8 1391.28,-355.8"/>
<polygon fill="black" stroke="black" points="1391.28,-359.3 1401.28,-355.8 1391.28,-352.3 1391.28,-359.3"/>
</g>
<!-- OauthModule&#45;&gt;AppModule -->
<g id="edge10" class="edge">
<title>OauthModule&#45;&gt;AppModule</title>
<path fill="none" stroke="black" d="M1500.12,-295.8C1481.27,-295.8 1463.92,-295.8 1463.92,-295.8 1463.92,-295.8 1463.92,-323.77 1463.92,-323.77"/>
<polygon fill="black" stroke="black" points="1460.42,-323.77 1463.92,-333.77 1467.42,-323.77 1460.42,-323.77"/>
</g>
<!-- OauthService  -->
<g id="node22" class="node">
<title>OauthService </title>
<polygon fill="#fb8072" stroke="black" points="2577.69,-236.8 2482.31,-236.8 2482.31,-200.8 2577.69,-200.8 2577.69,-236.8"/>
<text text-anchor="middle" x="2530" y="-214.6" font-family="Times,serif" font-size="14.00">OauthService </text>
</g>
<!-- OauthModule&#45;&gt;OauthService  -->
<g id="edge26" class="edge">
<title>OauthModule&#45;&gt;OauthService </title>
<path fill="none" stroke="black" stroke-dasharray="5,2" d="M1594.08,-297.8C1789.94,-297.8 2530,-297.8 2530,-297.8 2530,-297.8 2530,-247.12 2530,-247.12"/>
<polygon fill="black" stroke="black" points="2533.5,-247.12 2530,-237.12 2526.5,-247.12 2533.5,-247.12"/>
</g>
<!-- PostsModule&#45;&gt;AppModule -->
<g id="edge11" class="edge">
<title>PostsModule&#45;&gt;AppModule</title>
<path fill="none" stroke="black" d="M1504.02,-218.8C1499.02,-218.8 1495.69,-218.8 1495.69,-218.8 1495.69,-218.8 1495.69,-345.8 1495.69,-345.8 1495.69,-345.8 1494.6,-345.8 1494.6,-345.8"/>
<polygon fill="black" stroke="black" points="1494.77,-342.3 1484.77,-345.8 1494.77,-349.3 1494.77,-342.3"/>
</g>
<!-- PrismaModule -->
<g id="node12" class="node">
<title>PrismaModule</title>
<polygon fill="#8dd3c7" stroke="black" points="1405.44,-160.8 1402.44,-164.8 1381.44,-164.8 1378.44,-160.8 1306.56,-160.8 1306.56,-124.8 1405.44,-124.8 1405.44,-160.8"/>
<text text-anchor="middle" x="1356" y="-138.6" font-family="Times,serif" font-size="14.00">PrismaModule</text>
</g>
<!-- PrismaModule&#45;&gt;UsersModule -->
<g id="edge36" class="edge">
<title>PrismaModule&#45;&gt;UsersModule</title>
<path fill="none" stroke="black" d="M1396.93,-160.97C1396.93,-163.25 1396.93,-164.8 1396.93,-164.8 1396.93,-164.8 2789.85,-164.8 2789.85,-164.8 2789.85,-164.8 2789.85,-190.52 2789.85,-190.52"/>
<polygon fill="black" stroke="black" points="2786.35,-190.52 2789.85,-200.52 2793.35,-190.52 2786.35,-190.52"/>
</g>
<!-- PrismaModule&#45;&gt;AuthModule -->
<g id="edge15" class="edge">
<title>PrismaModule&#45;&gt;AuthModule</title>
<path fill="none" stroke="black" d="M1314.11,-160.81C1314.11,-160.81 1314.11,-190.65 1314.11,-190.65"/>
<polygon fill="black" stroke="black" points="1310.61,-190.65 1314.11,-200.65 1317.61,-190.65 1310.61,-190.65"/>
</g>
<!-- PrismaModule&#45;&gt;ConversationsModule -->
<g id="edge20" class="edge">
<title>PrismaModule&#45;&gt;ConversationsModule</title>
<path fill="none" stroke="black" d="M1363.76,-160.81C1363.76,-160.81 1363.76,-190.65 1363.76,-190.65"/>
<polygon fill="black" stroke="black" points="1360.26,-190.65 1363.76,-200.65 1367.26,-190.65 1360.26,-190.65"/>
</g>
<!-- PrismaModule&#45;&gt;PostsModule -->
<g id="edge30" class="edge">
<title>PrismaModule&#45;&gt;PostsModule</title>
<path fill="none" stroke="black" d="M1380.34,-160.98C1380.34,-173.84 1380.34,-188.8 1380.34,-188.8 1380.34,-188.8 1531.13,-188.8 1531.13,-188.8 1531.13,-188.8 1531.13,-190.66 1531.13,-190.66"/>
<polygon fill="black" stroke="black" points="1527.63,-190.66 1531.13,-200.66 1534.63,-190.66 1527.63,-190.66"/>
</g>
<!-- PrismaModule&#45;&gt;AppModule -->
<g id="edge12" class="edge">
<title>PrismaModule&#45;&gt;AppModule</title>
<path fill="none" stroke="black" d="M1337.97,-160.81C1337.97,-209.8 1337.97,-341.8 1337.97,-341.8 1337.97,-341.8 1391.19,-341.8 1391.19,-341.8"/>
<polygon fill="black" stroke="black" points="1391.19,-345.3 1401.19,-341.8 1391.19,-338.3 1391.19,-345.3"/>
</g>
<!-- PrismaService  -->
<g id="node27" class="node">
<title>PrismaService </title>
<polygon fill="#fb8072" stroke="black" points="1950.37,-236.8 1849.63,-236.8 1849.63,-200.8 1950.37,-200.8 1950.37,-236.8"/>
<text text-anchor="middle" x="1900" y="-214.6" font-family="Times,serif" font-size="14.00">PrismaService </text>
</g>
<!-- PrismaModule&#45;&gt;PrismaService  -->
<g id="edge33" class="edge">
<title>PrismaModule&#45;&gt;PrismaService </title>
<path fill="none" stroke="black" stroke-dasharray="5,2" d="M1388.64,-160.91C1388.64,-170.7 1388.64,-180.8 1388.64,-180.8 1388.64,-180.8 1900,-180.8 1900,-180.8 1900,-180.8 1900,-190.69 1900,-190.69"/>
<polygon fill="black" stroke="black" points="1896.5,-190.69 1900,-200.69 1903.5,-190.69 1896.5,-190.69"/>
</g>
<!-- AppService -->
<g id="node14" class="node">
<title>AppService</title>
<ellipse fill="#fdb462" stroke="black" cx="990" cy="-286.8" rx="56.75" ry="18"/>
<text text-anchor="middle" x="990" y="-282.6" font-family="Times,serif" font-size="14.00">AppService</text>
</g>
<!-- AppService&#45;&gt;AppModule -->
<g id="edge14" class="edge">
<title>AppService&#45;&gt;AppModule</title>
<path fill="none" stroke="black" d="M1046.93,-286.8C1164.26,-286.8 1422.08,-286.8 1422.08,-286.8 1422.08,-286.8 1422.08,-323.69 1422.08,-323.69"/>
<polygon fill="black" stroke="black" points="1418.58,-323.69 1422.08,-333.69 1425.58,-323.69 1418.58,-323.69"/>
</g>
<!-- AtStrategy -->
<g id="node16" class="node">
<title>AtStrategy</title>
<ellipse fill="#fdb462" stroke="black" cx="77" cy="-142.8" rx="52.75" ry="18"/>
<text text-anchor="middle" x="77" y="-138.6" font-family="Times,serif" font-size="14.00">AtStrategy</text>
</g>
<!-- AtStrategy&#45;&gt;AuthModule -->
<g id="edge17" class="edge">
<title>AtStrategy&#45;&gt;AuthModule</title>
<path fill="none" stroke="black" d="M77,-160.83C77,-186.31 77,-229.8 77,-229.8 77,-229.8 1231.29,-229.8 1231.29,-229.8"/>
<polygon fill="black" stroke="black" points="1231.29,-233.3 1241.29,-229.8 1231.29,-226.3 1231.29,-233.3"/>
</g>
<!-- AuthService -->
<g id="node17" class="node">
<title>AuthService</title>
<ellipse fill="#fdb462" stroke="black" cx="330" cy="-142.8" rx="59.11" ry="18"/>
<text text-anchor="middle" x="330" y="-138.6" font-family="Times,serif" font-size="14.00">AuthService</text>
</g>
<!-- AuthService&#45;&gt;AuthModule -->
<g id="edge18" class="edge">
<title>AuthService&#45;&gt;AuthModule</title>
<path fill="none" stroke="black" d="M330,-160.84C330,-182.46 330,-215.8 330,-215.8 330,-215.8 1231.17,-215.8 1231.17,-215.8"/>
<polygon fill="black" stroke="black" points="1231.17,-219.3 1241.17,-215.8 1231.17,-212.3 1231.17,-219.3"/>
</g>
<!-- RtStrategy -->
<g id="node18" class="node">
<title>RtStrategy</title>
<ellipse fill="#fdb462" stroke="black" cx="200" cy="-142.8" rx="52.19" ry="18"/>
<text text-anchor="middle" x="200" y="-138.6" font-family="Times,serif" font-size="14.00">RtStrategy</text>
</g>
<!-- RtStrategy&#45;&gt;AuthModule -->
<g id="edge19" class="edge">
<title>RtStrategy&#45;&gt;AuthModule</title>
<path fill="none" stroke="black" d="M200,-160.95C200,-184.56 200,-222.8 200,-222.8 200,-222.8 1231.12,-222.8 1231.12,-222.8"/>
<polygon fill="black" stroke="black" points="1231.12,-226.3 1241.12,-222.8 1231.12,-219.3 1231.12,-226.3"/>
</g>
<!-- ConversationsService -->
<g id="node19" class="node">
<title>ConversationsService</title>
<ellipse fill="#fdb462" stroke="black" cx="638" cy="-142.8" rx="95.49" ry="18"/>
<text text-anchor="middle" x="638" y="-138.6" font-family="Times,serif" font-size="14.00">ConversationsService</text>
</g>
<!-- ConversationsService&#45;&gt;ConversationsModule -->
<g id="edge22" class="edge">
<title>ConversationsService&#45;&gt;ConversationsModule</title>
<path fill="none" stroke="black" d="M638,-161.08C638,-176.75 638,-196.8 638,-196.8 638,-196.8 1355.46,-196.8 1355.46,-196.8 1355.46,-196.8 1355.46,-197.18 1355.46,-197.18"/>
<polygon fill="black" stroke="black" points="1351.97,-190.63 1355.46,-200.63 1358.97,-190.63 1351.97,-190.63"/>
</g>
<!-- FilesService -->
<g id="node20" class="node">
<title>FilesService</title>
<polygon fill="#8dd3c7" stroke="black" points="1134.71,-84.8 1131.71,-88.8 1110.71,-88.8 1107.71,-84.8 1049.29,-84.8 1049.29,-48.8 1134.71,-48.8 1134.71,-84.8"/>
<text text-anchor="middle" x="1092" y="-62.6" font-family="Times,serif" font-size="14.00">FilesService</text>
</g>
<!-- FilesService&#45;&gt;FilesModule -->
<g id="edge23" class="edge">
<title>FilesService&#45;&gt;FilesModule</title>
<path fill="none" stroke="black" d="M1102.61,-84.81C1102.61,-84.81 1102.61,-114.65 1102.61,-114.65"/>
<polygon fill="black" stroke="black" points="1099.11,-114.65 1102.61,-124.65 1106.11,-114.65 1099.11,-114.65"/>
</g>
<!-- MessagesService -->
<g id="node21" class="node">
<title>MessagesService</title>
<ellipse fill="#fdb462" stroke="black" cx="1253" cy="-66.8" rx="77.58" ry="18"/>
<text text-anchor="middle" x="1253" y="-62.6" font-family="Times,serif" font-size="14.00">MessagesService</text>
</g>
<!-- MessagesService&#45;&gt;MessagesModule -->
<g id="edge24" class="edge">
<title>MessagesService&#45;&gt;MessagesModule</title>
<path fill="none" stroke="black" d="M1232.23,-84.43C1232.23,-84.43 1232.23,-114.74 1232.23,-114.74"/>
<polygon fill="black" stroke="black" points="1228.73,-114.74 1232.23,-124.74 1235.73,-114.74 1228.73,-114.74"/>
</g>
<!-- FacebookStrategy -->
<g id="node23" class="node">
<title>FacebookStrategy</title>
<ellipse fill="#fdb462" stroke="black" cx="2071" cy="-218.8" rx="80.52" ry="18"/>
<text text-anchor="middle" x="2071" y="-214.6" font-family="Times,serif" font-size="14.00">FacebookStrategy</text>
</g>
<!-- FacebookStrategy&#45;&gt;OauthModule -->
<g id="edge27" class="edge">
<title>FacebookStrategy&#45;&gt;OauthModule</title>
<path fill="none" stroke="black" d="M2071,-236.83C2071,-253.86 2071,-276.8 2071,-276.8 2071,-276.8 1603.96,-276.8 1603.96,-276.8"/>
<polygon fill="black" stroke="black" points="1603.96,-273.3 1593.96,-276.8 1603.96,-280.3 1603.96,-273.3"/>
</g>
<!-- GoogleStrategy -->
<g id="node24" class="node">
<title>GoogleStrategy</title>
<ellipse fill="#fdb462" stroke="black" cx="2386" cy="-218.8" rx="71.79" ry="18"/>
<text text-anchor="middle" x="2386" y="-214.6" font-family="Times,serif" font-size="14.00">GoogleStrategy</text>
</g>
<!-- GoogleStrategy&#45;&gt;OauthModule -->
<g id="edge28" class="edge">
<title>GoogleStrategy&#45;&gt;OauthModule</title>
<path fill="none" stroke="black" d="M2386,-236.97C2386,-258.3 2386,-290.8 2386,-290.8 2386,-290.8 1603.91,-290.8 1603.91,-290.8"/>
<polygon fill="black" stroke="black" points="1603.91,-287.3 1593.91,-290.8 1603.91,-294.3 1603.91,-287.3"/>
</g>
<!-- OauthService -->
<g id="node25" class="node">
<title>OauthService</title>
<ellipse fill="#fdb462" stroke="black" cx="2233" cy="-218.8" rx="63.69" ry="18"/>
<text text-anchor="middle" x="2233" y="-214.6" font-family="Times,serif" font-size="14.00">OauthService</text>
</g>
<!-- OauthService&#45;&gt;OauthModule -->
<g id="edge29" class="edge">
<title>OauthService&#45;&gt;OauthModule</title>
<path fill="none" stroke="black" d="M2233,-236.91C2233,-256.14 2233,-283.8 2233,-283.8 2233,-283.8 1603.88,-283.8 1603.88,-283.8"/>
<polygon fill="black" stroke="black" points="1603.88,-280.3 1593.88,-283.8 1603.88,-287.3 1603.88,-280.3"/>
</g>
<!-- PostsService -->
<g id="node26" class="node">
<title>PostsService</title>
<ellipse fill="#fdb462" stroke="black" cx="833" cy="-142.8" rx="60.28" ry="18"/>
<text text-anchor="middle" x="833" y="-138.6" font-family="Times,serif" font-size="14.00">PostsService</text>
</g>
<!-- PostsService&#45;&gt;PostsModule -->
<g id="edge32" class="edge">
<title>PostsService&#45;&gt;PostsModule</title>
<path fill="none" stroke="black" d="M833,-160.85C833,-175.17 833,-192.8 833,-192.8 833,-192.8 1517.79,-192.8 1517.79,-192.8 1517.79,-192.8 1517.79,-193.59 1517.79,-193.59"/>
<polygon fill="black" stroke="black" points="1514.29,-190.74 1517.79,-200.74 1521.29,-190.74 1514.29,-190.74"/>
</g>
<!-- PrismaService -->
<g id="node28" class="node">
<title>PrismaService</title>
<ellipse fill="#fdb462" stroke="black" cx="1759" cy="-218.8" rx="66.64" ry="18"/>
<text text-anchor="middle" x="1759" y="-214.6" font-family="Times,serif" font-size="14.00">PrismaService</text>
</g>
<!-- PrismaService&#45;&gt;PrismaModule -->
<g id="edge34" class="edge">
<title>PrismaService&#45;&gt;PrismaModule</title>
<path fill="none" stroke="black" d="M1759,-200.61C1759,-192.52 1759,-184.8 1759,-184.8 1759,-184.8 1372.05,-184.8 1372.05,-184.8 1372.05,-184.8 1372.05,-170.86 1372.05,-170.86"/>
<polygon fill="black" stroke="black" points="1375.55,-170.86 1372.05,-160.86 1368.55,-170.86 1375.55,-170.86"/>
</g>
<!-- UsersService -->
<g id="node30" class="node">
<title>UsersService</title>
<ellipse fill="#fdb462" stroke="black" cx="2755" cy="-142.8" rx="61.97" ry="18"/>
<text text-anchor="middle" x="2755" y="-138.6" font-family="Times,serif" font-size="14.00">UsersService</text>
</g>
<!-- UsersService&#45;&gt;UsersModule -->
<g id="edge38" class="edge">
<title>UsersService&#45;&gt;UsersModule</title>
<path fill="none" stroke="black" d="M2810.2,-151.22C2810.2,-151.22 2810.2,-190.53 2810.2,-190.53"/>
<polygon fill="black" stroke="black" points="2806.7,-190.53 2810.2,-200.53 2813.7,-190.53 2806.7,-190.53"/>
</g>
</g>
</svg>
