<svg xmlns="http://www.w3.org/2000/svg" xmlns:xlink="http://www.w3.org/1999/xlink" width="544" height="247pt" viewBox="0 0 408 246.8"><g id="graph0" class="graph" transform="scale(1 1) rotate(0) translate(4 242.8)"><title>dependencies</title><polygon fill="#fff" stroke="transparent" points="-4 4 -4 -242.8 404 -242.8 404 4 -4 4"/><text x="200" y="-8.2" font-family="sans-serif" font-size="14" text-anchor="middle">dependencies</text><g id="clust1" class="cluster"><title>cluster_UsersModule</title><polygon fill="none" stroke="#000" stroke-dasharray="1 5" points="8 -32.8 8 -230.8 392 -230.8 392 -32.8 8 -32.8"/></g><g id="clust6" class="cluster"><title>cluster_UsersModule_providers</title><polygon fill="none" stroke="#000" points="244 -40.8 244 -92.8 384 -92.8 384 -40.8 244 -40.8"/></g><g id="clust3" class="cluster"><title>cluster_UsersModule_imports</title><polygon fill="none" stroke="#000" points="16 -40.8 16 -92.8 236 -92.8 236 -40.8 16 -40.8"/></g><g id="clust4" class="cluster"><title>cluster_UsersModule_exports</title><polygon fill="none" stroke="#000" points="129 -170.8 129 -222.8 239 -222.8 239 -170.8 129 -170.8"/></g><g id="node1" class="node"><title>AuthModule</title><polygon fill="#8dd3c7" stroke="#000" points="227.55 -84.8 224.55 -88.8 203.55 -88.8 200.55 -84.8 140.45 -84.8 140.45 -48.8 227.55 -48.8 227.55 -84.8"/><text x="184" y="-62.6" font-family="Times,serif" font-size="14" text-anchor="middle">AuthModule</text></g><g id="node3" class="node"><title>UsersModule</title><polygon fill="#8dd3c7" stroke="#000" points="229.94 -149.8 226.94 -153.8 205.94 -153.8 202.94 -149.8 138.06 -149.8 138.06 -113.8 229.94 -113.8 229.94 -149.8"/><text x="184" y="-127.6" font-family="Times,serif" font-size="14" text-anchor="middle">UsersModule</text></g><g id="edge1" class="edge"><title>AuthModule-&gt;UsersModule</title><path fill="none" stroke="#000" d="M184,-84.91C184,-84.91 184,-103.79 184,-103.79"/><polygon fill="#000" stroke="#000" points="180.5 -103.79 184 -113.79 187.5 -103.79 180.5 -103.79"/></g><g id="node2" class="node"><title>PrismaModule</title><polygon fill="#8dd3c7" stroke="#000" points="122.44 -84.8 119.44 -88.8 98.44 -88.8 95.44 -84.8 23.56 -84.8 23.56 -48.8 122.44 -48.8 122.44 -84.8"/><text x="73" y="-62.6" font-family="Times,serif" font-size="14" text-anchor="middle">PrismaModule</text></g><g id="edge2" class="edge"><title>PrismaModule-&gt;UsersModule</title><path fill="none" stroke="#000" d="M73,-84.91C73,-104.14 73,-131.8 73,-131.8 73,-131.8 128.21,-131.8 128.21,-131.8"/><polygon fill="#000" stroke="#000" points="128.21 -135.3 138.21 -131.8 128.21 -128.3 128.21 -135.3"/></g><g id="node4" class="node"><title>UsersService</title><polygon fill="#fb8072" stroke="#000" points="230.86 -214.8 137.14 -214.8 137.14 -178.8 230.86 -178.8 230.86 -214.8"/><text x="184" y="-192.6" font-family="Times,serif" font-size="14" text-anchor="middle">UsersService</text></g><g id="edge3" class="edge"><title>UsersModule-&gt;UsersService</title><path fill="none" stroke="#000" stroke-dasharray="5 2" d="M184,-149.91C184,-149.91 184,-168.79 184,-168.79"/><polygon fill="#000" stroke="#000" points="180.5 -168.79 184 -178.79 187.5 -168.79 180.5 -168.79"/></g><g id="node5" class="node"><title>UsersService</title><ellipse cx="314" cy="-66.8" fill="#fdb462" stroke="#000" rx="61.97" ry="18"/><text x="314" y="-62.6" font-family="Times,serif" font-size="14" text-anchor="middle">UsersService</text></g><g id="edge4" class="edge"><title>UsersService-&gt;UsersModule</title><path fill="none" stroke="#000" d="M314,-84.91C314,-104.14 314,-131.8 314,-131.8 314,-131.8 239.83,-131.8 239.83,-131.8"/><polygon fill="#000" stroke="#000" points="239.83 -128.3 229.83 -131.8 239.83 -135.3 239.83 -128.3"/></g></g></svg>