<?xml version="1.0" encoding="UTF-8" standalone="no"?>
<!DOCTYPE svg PUBLIC "-//W3C//DTD SVG 1.1//EN"
 "http://www.w3.org/Graphics/SVG/1.1/DTD/svg11.dtd">
<!-- Generated by graphviz version 5.0.0 (20220707.1540)
 -->
<!-- Title: dependencies Pages: 1 -->
<svg width="306pt" height="174pt"
 viewBox="0.00 0.00 306.00 173.80" xmlns="http://www.w3.org/2000/svg" xmlns:xlink="http://www.w3.org/1999/xlink">
<g id="graph0" class="graph" transform="scale(1 1) rotate(0) translate(4 169.8)">
<title>dependencies</title>
<polygon fill="white" stroke="transparent" points="-4,4 -4,-169.8 302,-169.8 302,4 -4,4"/>
<text text-anchor="middle" x="149" y="-8.2" font-family="sans-serif" font-size="14.00">dependencies</text>
<g id="clust1" class="cluster">
<title>cluster_AdminModule</title>
<polygon fill="none" stroke="black" stroke-dasharray="1,5" points="8,-32.8 8,-157.8 290,-157.8 290,-32.8 8,-32.8"/>
</g>
<g id="clust6" class="cluster">
<title>cluster_AdminModule_providers</title>
<polygon fill="none" stroke="black" points="132,-40.8 132,-92.8 282,-92.8 282,-40.8 132,-40.8"/>
</g>
<g id="clust3" class="cluster">
<title>cluster_AdminModule_imports</title>
<polygon fill="none" stroke="black" points="16,-40.8 16,-92.8 124,-92.8 124,-40.8 16,-40.8"/>
</g>
<!-- UsersModule -->
<g id="node1" class="node">
<title>UsersModule</title>
<polygon fill="#8dd3c7" stroke="black" points="115.94,-84.8 112.94,-88.8 91.94,-88.8 88.94,-84.8 24.06,-84.8 24.06,-48.8 115.94,-48.8 115.94,-84.8"/>
<text text-anchor="middle" x="70" y="-62.6" font-family="Times,serif" font-size="14.00">UsersModule</text>
</g>
<!-- AdminModule -->
<g id="node2" class="node">
<title>AdminModule</title>
<polygon fill="#8dd3c7" stroke="black" points="187.44,-149.8 184.44,-153.8 163.44,-153.8 160.44,-149.8 88.56,-149.8 88.56,-113.8 187.44,-113.8 187.44,-149.8"/>
<text text-anchor="middle" x="138" y="-127.6" font-family="Times,serif" font-size="14.00">AdminModule</text>
</g>
<!-- UsersModule&#45;&gt;AdminModule -->
<g id="edge1" class="edge">
<title>UsersModule&#45;&gt;AdminModule</title>
<path fill="none" stroke="black" d="M102.25,-84.91C102.25,-84.91 102.25,-103.79 102.25,-103.79"/>
<polygon fill="black" stroke="black" points="98.75,-103.79 102.25,-113.79 105.75,-103.79 98.75,-103.79"/>
</g>
<!-- AdminService -->
<g id="node3" class="node">
<title>AdminService</title>
<ellipse fill="#fdb462" stroke="black" cx="207" cy="-66.8" rx="66.64" ry="18"/>
<text text-anchor="middle" x="207" y="-62.6" font-family="Times,serif" font-size="14.00">AdminService</text>
</g>
<!-- AdminService&#45;&gt;AdminModule -->
<g id="edge2" class="edge">
<title>AdminService&#45;&gt;AdminModule</title>
<path fill="none" stroke="black" d="M163.7,-80.58C163.7,-80.58 163.7,-103.35 163.7,-103.35"/>
<polygon fill="black" stroke="black" points="160.2,-103.35 163.7,-113.35 167.2,-103.35 160.2,-103.35"/>
</g>
</g>
</svg>
