<svg xmlns="http://www.w3.org/2000/svg" xmlns:xlink="http://www.w3.org/1999/xlink" width="408" height="232" viewBox="0 0 306 173.8"><g id="graph0" class="graph" transform="scale(1 1) rotate(0) translate(4 169.8)"><title>dependencies</title><polygon fill="#fff" stroke="transparent" points="-4 4 -4 -169.8 302 -169.8 302 4 -4 4"/><text x="149" y="-8.2" font-family="sans-serif" font-size="14" text-anchor="middle">dependencies</text><g id="clust1" class="cluster"><title>cluster_AdminModule</title><polygon fill="none" stroke="#000" stroke-dasharray="1 5" points="8 -32.8 8 -157.8 290 -157.8 290 -32.8 8 -32.8"/></g><g id="clust3" class="cluster"><title>cluster_AdminModule_imports</title><polygon fill="none" stroke="#000" points="174 -40.8 174 -92.8 282 -92.8 282 -40.8 174 -40.8"/></g><g id="clust6" class="cluster"><title>cluster_AdminModule_providers</title><polygon fill="none" stroke="#000" points="16 -40.8 16 -92.8 166 -92.8 166 -40.8 16 -40.8"/></g><g id="node1" class="node"><title>UsersModule</title><polygon fill="#8dd3c7" stroke="#000" points="273.94 -84.8 270.94 -88.8 249.94 -88.8 246.94 -84.8 182.06 -84.8 182.06 -48.8 273.94 -48.8 273.94 -84.8"/><text x="228" y="-62.6" font-family="Times,serif" font-size="14" text-anchor="middle">UsersModule</text></g><g id="node2" class="node"><title>AdminModule</title><polygon fill="#8dd3c7" stroke="#000" points="208.44 -149.8 205.44 -153.8 184.44 -153.8 181.44 -149.8 109.56 -149.8 109.56 -113.8 208.44 -113.8 208.44 -149.8"/><text x="159" y="-127.6" font-family="Times,serif" font-size="14" text-anchor="middle">AdminModule</text></g><g id="edge1" class="edge"><title>UsersModule-&gt;AdminModule</title><path fill="none" stroke="#000" d="M195.25,-84.91C195.25,-84.91 195.25,-103.79 195.25,-103.79"/><polygon fill="#000" stroke="#000" points="191.75 -103.79 195.25 -113.79 198.75 -103.79 191.75 -103.79"/></g><g id="node3" class="node"><title>AdminService</title><ellipse cx="91" cy="-66.8" fill="#fdb462" stroke="#000" rx="66.64" ry="18"/><text x="91" y="-62.6" font-family="Times,serif" font-size="14" text-anchor="middle">AdminService</text></g><g id="edge2" class="edge"><title>AdminService-&gt;AdminModule</title><path fill="none" stroke="#000" d="M133.8,-80.9C133.8,-80.9 133.8,-103.52 133.8,-103.52"/><polygon fill="#000" stroke="#000" points="130.3 -103.52 133.8 -113.52 137.3 -103.52 130.3 -103.52"/></g></g></svg>