<?xml version="1.0" encoding="UTF-8" standalone="no"?>
<!DOCTYPE svg PUBLIC "-//W3C//DTD SVG 1.1//EN"
 "http://www.w3.org/Graphics/SVG/1.1/DTD/svg11.dtd">
<!-- Generated by graphviz version 5.0.0 (20220707.1540)
 -->
<!-- Title: dependencies Pages: 1 -->
<svg width="1376pt" height="174pt"
 viewBox="0.00 0.00 1376.00 173.80" xmlns="http://www.w3.org/2000/svg" xmlns:xlink="http://www.w3.org/1999/xlink">
<g id="graph0" class="graph" transform="scale(1 1) rotate(0) translate(4 169.8)">
<title>dependencies</title>
<polygon fill="white" stroke="transparent" points="-4,4 -4,-169.8 1372,-169.8 1372,4 -4,4"/>
<text text-anchor="middle" x="684" y="-8.2" font-family="sans-serif" font-size="14.00">dependencies</text>
<g id="clust1" class="cluster">
<title>cluster_AppModule</title>
<polygon fill="none" stroke="black" stroke-dasharray="1,5" points="8,-32.8 8,-157.8 1360,-157.8 1360,-32.8 8,-32.8"/>
</g>
<g id="clust6" class="cluster">
<title>cluster_AppModule_providers</title>
<polygon fill="none" stroke="black" points="1222,-40.8 1222,-92.8 1352,-92.8 1352,-40.8 1222,-40.8"/>
</g>
<g id="clust3" class="cluster">
<title>cluster_AppModule_imports</title>
<polygon fill="none" stroke="black" points="16,-40.8 16,-92.8 1214,-92.8 1214,-40.8 16,-40.8"/>
</g>
<!-- AdminModule -->
<g id="node1" class="node">
<title>AdminModule</title>
<polygon fill="#8dd3c7" stroke="black" points="1206.44,-84.8 1203.44,-88.8 1182.44,-88.8 1179.44,-84.8 1107.56,-84.8 1107.56,-48.8 1206.44,-48.8 1206.44,-84.8"/>
<text text-anchor="middle" x="1157" y="-62.6" font-family="Times,serif" font-size="14.00">AdminModule</text>
</g>
<!-- AppModule -->
<g id="node11" class="node">
<title>AppModule</title>
<polygon fill="#8dd3c7" stroke="black" points="702.66,-149.8 699.66,-153.8 678.66,-153.8 675.66,-149.8 619.34,-149.8 619.34,-113.8 702.66,-113.8 702.66,-149.8"/>
<text text-anchor="middle" x="661" y="-127.6" font-family="Times,serif" font-size="14.00">AppModule</text>
</g>
<!-- AdminModule&#45;&gt;AppModule -->
<g id="edge1" class="edge">
<title>AdminModule&#45;&gt;AppModule</title>
<path fill="none" stroke="black" d="M1157,-85.08C1157,-106.12 1157,-137.8 1157,-137.8 1157,-137.8 712.86,-137.8 712.86,-137.8"/>
<polygon fill="black" stroke="black" points="712.86,-134.3 702.86,-137.8 712.86,-141.3 712.86,-134.3"/>
</g>
<!-- AuthModule -->
<g id="node2" class="node">
<title>AuthModule</title>
<polygon fill="#8dd3c7" stroke="black" points="1089.55,-84.8 1086.55,-88.8 1065.55,-88.8 1062.55,-84.8 1002.45,-84.8 1002.45,-48.8 1089.55,-48.8 1089.55,-84.8"/>
<text text-anchor="middle" x="1046" y="-62.6" font-family="Times,serif" font-size="14.00">AuthModule</text>
</g>
<!-- AuthModule&#45;&gt;AppModule -->
<g id="edge2" class="edge">
<title>AuthModule&#45;&gt;AppModule</title>
<path fill="none" stroke="black" d="M1046,-84.91C1046,-104.14 1046,-131.8 1046,-131.8 1046,-131.8 712.93,-131.8 712.93,-131.8"/>
<polygon fill="black" stroke="black" points="712.93,-128.3 702.93,-131.8 712.93,-135.3 712.93,-128.3"/>
</g>
<!-- ConversationsModule -->
<g id="node3" class="node">
<title>ConversationsModule</title>
<polygon fill="#8dd3c7" stroke="black" points="983.66,-84.8 980.66,-88.8 959.66,-88.8 956.66,-84.8 844.34,-84.8 844.34,-48.8 983.66,-48.8 983.66,-84.8"/>
<text text-anchor="middle" x="914" y="-62.6" font-family="Times,serif" font-size="14.00">ConversationsModule</text>
</g>
<!-- ConversationsModule&#45;&gt;AppModule -->
<g id="edge3" class="edge">
<title>ConversationsModule&#45;&gt;AppModule</title>
<path fill="none" stroke="black" d="M914,-84.82C914,-102.17 914,-125.8 914,-125.8 914,-125.8 712.78,-125.8 712.78,-125.8"/>
<polygon fill="black" stroke="black" points="712.78,-122.3 702.78,-125.8 712.78,-129.3 712.78,-122.3"/>
</g>
<!-- FilesModule -->
<g id="node4" class="node">
<title>FilesModule</title>
<polygon fill="#8dd3c7" stroke="black" points="826.28,-84.8 823.28,-88.8 802.28,-88.8 799.28,-84.8 739.72,-84.8 739.72,-48.8 826.28,-48.8 826.28,-84.8"/>
<text text-anchor="middle" x="783" y="-62.6" font-family="Times,serif" font-size="14.00">FilesModule</text>
</g>
<!-- FilesModule&#45;&gt;AppModule -->
<g id="edge4" class="edge">
<title>FilesModule&#45;&gt;AppModule</title>
<path fill="none" stroke="black" d="M783,-85.04C783,-100.37 783,-119.8 783,-119.8 783,-119.8 712.99,-119.8 712.99,-119.8"/>
<polygon fill="black" stroke="black" points="712.99,-116.3 702.99,-119.8 712.99,-123.3 712.99,-116.3"/>
</g>
<!-- InterceptorModule -->
<g id="node5" class="node">
<title>InterceptorModule</title>
<polygon fill="#8dd3c7" stroke="black" points="721.46,-84.8 718.46,-88.8 697.46,-88.8 694.46,-84.8 600.54,-84.8 600.54,-48.8 721.46,-48.8 721.46,-84.8"/>
<text text-anchor="middle" x="661" y="-62.6" font-family="Times,serif" font-size="14.00">InterceptorModule</text>
</g>
<!-- InterceptorModule&#45;&gt;AppModule -->
<g id="edge5" class="edge">
<title>InterceptorModule&#45;&gt;AppModule</title>
<path fill="none" stroke="black" d="M661,-84.91C661,-84.91 661,-103.79 661,-103.79"/>
<polygon fill="black" stroke="black" points="657.5,-103.79 661,-113.79 664.5,-103.79 657.5,-103.79"/>
</g>
<!-- MessagesModule -->
<g id="node6" class="node">
<title>MessagesModule</title>
<polygon fill="#8dd3c7" stroke="black" points="582.99,-84.8 579.99,-88.8 558.99,-88.8 555.99,-84.8 469.01,-84.8 469.01,-48.8 582.99,-48.8 582.99,-84.8"/>
<text text-anchor="middle" x="526" y="-62.6" font-family="Times,serif" font-size="14.00">MessagesModule</text>
</g>
<!-- MessagesModule&#45;&gt;AppModule -->
<g id="edge6" class="edge">
<title>MessagesModule&#45;&gt;AppModule</title>
<path fill="none" stroke="black" d="M526,-85.04C526,-100.37 526,-119.8 526,-119.8 526,-119.8 609.03,-119.8 609.03,-119.8"/>
<polygon fill="black" stroke="black" points="609.03,-123.3 619.03,-119.8 609.03,-116.3 609.03,-123.3"/>
</g>
<!-- OauthModule -->
<g id="node7" class="node">
<title>OauthModule</title>
<polygon fill="#8dd3c7" stroke="black" points="450.77,-84.8 447.77,-88.8 426.77,-88.8 423.77,-84.8 357.23,-84.8 357.23,-48.8 450.77,-48.8 450.77,-84.8"/>
<text text-anchor="middle" x="404" y="-62.6" font-family="Times,serif" font-size="14.00">OauthModule</text>
</g>
<!-- OauthModule&#45;&gt;AppModule -->
<g id="edge7" class="edge">
<title>OauthModule&#45;&gt;AppModule</title>
<path fill="none" stroke="black" d="M404,-84.82C404,-102.17 404,-125.8 404,-125.8 404,-125.8 609.14,-125.8 609.14,-125.8"/>
<polygon fill="black" stroke="black" points="609.14,-129.3 619.14,-125.8 609.14,-122.3 609.14,-129.3"/>
</g>
<!-- PostsModule -->
<g id="node8" class="node">
<title>PostsModule</title>
<polygon fill="#8dd3c7" stroke="black" points="339.62,-84.8 336.62,-88.8 315.62,-88.8 312.62,-84.8 250.38,-84.8 250.38,-48.8 339.62,-48.8 339.62,-84.8"/>
<text text-anchor="middle" x="295" y="-62.6" font-family="Times,serif" font-size="14.00">PostsModule</text>
</g>
<!-- PostsModule&#45;&gt;AppModule -->
<g id="edge8" class="edge">
<title>PostsModule&#45;&gt;AppModule</title>
<path fill="none" stroke="black" d="M295,-84.91C295,-104.14 295,-131.8 295,-131.8 295,-131.8 609.02,-131.8 609.02,-131.8"/>
<polygon fill="black" stroke="black" points="609.02,-135.3 619.02,-131.8 609.02,-128.3 609.02,-135.3"/>
</g>
<!-- PrismaModule -->
<g id="node9" class="node">
<title>PrismaModule</title>
<polygon fill="#8dd3c7" stroke="black" points="232.44,-84.8 229.44,-88.8 208.44,-88.8 205.44,-84.8 133.56,-84.8 133.56,-48.8 232.44,-48.8 232.44,-84.8"/>
<text text-anchor="middle" x="183" y="-62.6" font-family="Times,serif" font-size="14.00">PrismaModule</text>
</g>
<!-- PrismaModule&#45;&gt;AppModule -->
<g id="edge9" class="edge">
<title>PrismaModule&#45;&gt;AppModule</title>
<path fill="none" stroke="black" d="M183,-85.08C183,-106.12 183,-137.8 183,-137.8 183,-137.8 609,-137.8 609,-137.8"/>
<polygon fill="black" stroke="black" points="609,-141.3 619,-137.8 609,-134.3 609,-141.3"/>
</g>
<!-- UsersModule -->
<g id="node10" class="node">
<title>UsersModule</title>
<polygon fill="#8dd3c7" stroke="black" points="115.94,-84.8 112.94,-88.8 91.94,-88.8 88.94,-84.8 24.06,-84.8 24.06,-48.8 115.94,-48.8 115.94,-84.8"/>
<text text-anchor="middle" x="70" y="-62.6" font-family="Times,serif" font-size="14.00">UsersModule</text>
</g>
<!-- UsersModule&#45;&gt;AppModule -->
<g id="edge10" class="edge">
<title>UsersModule&#45;&gt;AppModule</title>
<path fill="none" stroke="black" d="M70,-84.89C70,-107.93 70,-144.8 70,-144.8 70,-144.8 608.97,-144.8 608.97,-144.8"/>
<polygon fill="black" stroke="black" points="608.97,-148.3 618.97,-144.8 608.97,-141.3 608.97,-148.3"/>
</g>
<!-- AppService -->
<g id="node12" class="node">
<title>AppService</title>
<ellipse fill="#fdb462" stroke="black" cx="1287" cy="-66.8" rx="56.75" ry="18"/>
<text text-anchor="middle" x="1287" y="-62.6" font-family="Times,serif" font-size="14.00">AppService</text>
</g>
<!-- AppService&#45;&gt;AppModule -->
<g id="edge11" class="edge">
<title>AppService&#45;&gt;AppModule</title>
<path fill="none" stroke="black" d="M1287,-84.89C1287,-107.93 1287,-144.8 1287,-144.8 1287,-144.8 713.05,-144.8 713.05,-144.8"/>
<polygon fill="black" stroke="black" points="713.05,-141.3 703.05,-144.8 713.05,-148.3 713.05,-141.3"/>
</g>
</g>
</svg>
