<?xml version="1.0" encoding="UTF-8" standalone="no"?>
<!DOCTYPE svg PUBLIC "-//W3C//DTD SVG 1.1//EN"
 "http://www.w3.org/Graphics/SVG/1.1/DTD/svg11.dtd">
<!-- Generated by graphviz version 5.0.0 (20220707.1540)
 -->
<!-- Title: dependencies Pages: 1 -->
<svg width="1484pt" height="174pt"
 viewBox="0.00 0.00 1484.00 173.80" xmlns="http://www.w3.org/2000/svg" xmlns:xlink="http://www.w3.org/1999/xlink">
<g id="graph0" class="graph" transform="scale(1 1) rotate(0) translate(4 169.8)">
<title>dependencies</title>
<polygon fill="white" stroke="transparent" points="-4,4 -4,-169.8 1480,-169.8 1480,4 -4,4"/>
<text text-anchor="middle" x="738" y="-8.2" font-family="sans-serif" font-size="14.00">dependencies</text>
<g id="clust1" class="cluster">
<title>cluster_AppModule</title>
<polygon fill="none" stroke="black" stroke-dasharray="1,5" points="8,-32.8 8,-157.8 1468,-157.8 1468,-32.8 8,-32.8"/>
</g>
<g id="clust6" class="cluster">
<title>cluster_AppModule_providers</title>
<polygon fill="none" stroke="black" points="1330,-40.8 1330,-92.8 1460,-92.8 1460,-40.8 1330,-40.8"/>
</g>
<g id="clust3" class="cluster">
<title>cluster_AppModule_imports</title>
<polygon fill="none" stroke="black" points="16,-40.8 16,-92.8 1322,-92.8 1322,-40.8 16,-40.8"/>
</g>
<!-- AdminModule -->
<g id="node1" class="node">
<title>AdminModule</title>
<polygon fill="#8dd3c7" stroke="black" points="1314.44,-84.8 1311.44,-88.8 1290.44,-88.8 1287.44,-84.8 1215.56,-84.8 1215.56,-48.8 1314.44,-48.8 1314.44,-84.8"/>
<text text-anchor="middle" x="1265" y="-62.6" font-family="Times,serif" font-size="14.00">AdminModule</text>
</g>
<!-- AppModule -->
<g id="node12" class="node">
<title>AppModule</title>
<polygon fill="#8dd3c7" stroke="black" points="748.66,-149.8 745.66,-153.8 724.66,-153.8 721.66,-149.8 665.34,-149.8 665.34,-113.8 748.66,-113.8 748.66,-149.8"/>
<text text-anchor="middle" x="707" y="-127.6" font-family="Times,serif" font-size="14.00">AppModule</text>
</g>
<!-- AdminModule&#45;&gt;AppModule -->
<g id="edge1" class="edge">
<title>AdminModule&#45;&gt;AppModule</title>
<path fill="none" stroke="black" d="M1265,-85.08C1265,-106.12 1265,-137.8 1265,-137.8 1265,-137.8 758.94,-137.8 758.94,-137.8"/>
<polygon fill="black" stroke="black" points="758.94,-134.3 748.94,-137.8 758.94,-141.3 758.94,-134.3"/>
</g>
<!-- AuthModule -->
<g id="node2" class="node">
<title>AuthModule</title>
<polygon fill="#8dd3c7" stroke="black" points="1197.55,-84.8 1194.55,-88.8 1173.55,-88.8 1170.55,-84.8 1110.45,-84.8 1110.45,-48.8 1197.55,-48.8 1197.55,-84.8"/>
<text text-anchor="middle" x="1154" y="-62.6" font-family="Times,serif" font-size="14.00">AuthModule</text>
</g>
<!-- AuthModule&#45;&gt;AppModule -->
<g id="edge2" class="edge">
<title>AuthModule&#45;&gt;AppModule</title>
<path fill="none" stroke="black" d="M1154,-84.91C1154,-104.14 1154,-131.8 1154,-131.8 1154,-131.8 759.05,-131.8 759.05,-131.8"/>
<polygon fill="black" stroke="black" points="759.05,-128.3 749.05,-131.8 759.05,-135.3 759.05,-128.3"/>
</g>
<!-- ConversationsModule -->
<g id="node3" class="node">
<title>ConversationsModule</title>
<polygon fill="#8dd3c7" stroke="black" points="1091.66,-84.8 1088.66,-88.8 1067.66,-88.8 1064.66,-84.8 952.34,-84.8 952.34,-48.8 1091.66,-48.8 1091.66,-84.8"/>
<text text-anchor="middle" x="1022" y="-62.6" font-family="Times,serif" font-size="14.00">ConversationsModule</text>
</g>
<!-- ConversationsModule&#45;&gt;AppModule -->
<g id="edge3" class="edge">
<title>ConversationsModule&#45;&gt;AppModule</title>
<path fill="none" stroke="black" d="M1022,-84.82C1022,-102.17 1022,-125.8 1022,-125.8 1022,-125.8 758.83,-125.8 758.83,-125.8"/>
<polygon fill="black" stroke="black" points="758.83,-122.3 748.83,-125.8 758.83,-129.3 758.83,-122.3"/>
</g>
<!-- FilesModule -->
<g id="node4" class="node">
<title>FilesModule</title>
<polygon fill="#8dd3c7" stroke="black" points="934.28,-84.8 931.28,-88.8 910.28,-88.8 907.28,-84.8 847.72,-84.8 847.72,-48.8 934.28,-48.8 934.28,-84.8"/>
<text text-anchor="middle" x="891" y="-62.6" font-family="Times,serif" font-size="14.00">FilesModule</text>
</g>
<!-- FilesModule&#45;&gt;AppModule -->
<g id="edge4" class="edge">
<title>FilesModule&#45;&gt;AppModule</title>
<path fill="none" stroke="black" d="M891,-85.04C891,-100.37 891,-119.8 891,-119.8 891,-119.8 758.75,-119.8 758.75,-119.8"/>
<polygon fill="black" stroke="black" points="758.75,-116.3 748.75,-119.8 758.75,-123.3 758.75,-116.3"/>
</g>
<!-- InterceptorModule -->
<g id="node5" class="node">
<title>InterceptorModule</title>
<polygon fill="#8dd3c7" stroke="black" points="829.46,-84.8 826.46,-88.8 805.46,-88.8 802.46,-84.8 708.54,-84.8 708.54,-48.8 829.46,-48.8 829.46,-84.8"/>
<text text-anchor="middle" x="769" y="-62.6" font-family="Times,serif" font-size="14.00">InterceptorModule</text>
</g>
<!-- InterceptorModule&#45;&gt;AppModule -->
<g id="edge5" class="edge">
<title>InterceptorModule&#45;&gt;AppModule</title>
<path fill="none" stroke="black" d="M728.68,-84.91C728.68,-84.91 728.68,-103.79 728.68,-103.79"/>
<polygon fill="black" stroke="black" points="725.18,-103.79 728.68,-113.79 732.18,-103.79 725.18,-103.79"/>
</g>
<!-- MathModule -->
<g id="node6" class="node">
<title>MathModule</title>
<polygon fill="#8dd3c7" stroke="black" points="690.6,-84.8 687.6,-88.8 666.6,-88.8 663.6,-84.8 601.4,-84.8 601.4,-48.8 690.6,-48.8 690.6,-84.8"/>
<text text-anchor="middle" x="646" y="-62.6" font-family="Times,serif" font-size="14.00">MathModule</text>
</g>
<!-- MathModule&#45;&gt;AppModule -->
<g id="edge6" class="edge">
<title>MathModule&#45;&gt;AppModule</title>
<path fill="none" stroke="black" d="M677.86,-84.91C677.86,-84.91 677.86,-103.79 677.86,-103.79"/>
<polygon fill="black" stroke="black" points="674.36,-103.79 677.86,-113.79 681.36,-103.79 674.36,-103.79"/>
</g>
<!-- MessagesModule -->
<g id="node7" class="node">
<title>MessagesModule</title>
<polygon fill="#8dd3c7" stroke="black" points="582.99,-84.8 579.99,-88.8 558.99,-88.8 555.99,-84.8 469.01,-84.8 469.01,-48.8 582.99,-48.8 582.99,-84.8"/>
<text text-anchor="middle" x="526" y="-62.6" font-family="Times,serif" font-size="14.00">MessagesModule</text>
</g>
<!-- MessagesModule&#45;&gt;AppModule -->
<g id="edge7" class="edge">
<title>MessagesModule&#45;&gt;AppModule</title>
<path fill="none" stroke="black" d="M526,-85.04C526,-100.37 526,-119.8 526,-119.8 526,-119.8 655.02,-119.8 655.02,-119.8"/>
<polygon fill="black" stroke="black" points="655.02,-123.3 665.02,-119.8 655.02,-116.3 655.02,-123.3"/>
</g>
<!-- OauthModule -->
<g id="node8" class="node">
<title>OauthModule</title>
<polygon fill="#8dd3c7" stroke="black" points="450.77,-84.8 447.77,-88.8 426.77,-88.8 423.77,-84.8 357.23,-84.8 357.23,-48.8 450.77,-48.8 450.77,-84.8"/>
<text text-anchor="middle" x="404" y="-62.6" font-family="Times,serif" font-size="14.00">OauthModule</text>
</g>
<!-- OauthModule&#45;&gt;AppModule -->
<g id="edge8" class="edge">
<title>OauthModule&#45;&gt;AppModule</title>
<path fill="none" stroke="black" d="M404,-84.82C404,-102.17 404,-125.8 404,-125.8 404,-125.8 655.19,-125.8 655.19,-125.8"/>
<polygon fill="black" stroke="black" points="655.19,-129.3 665.19,-125.8 655.19,-122.3 655.19,-129.3"/>
</g>
<!-- PostsModule -->
<g id="node9" class="node">
<title>PostsModule</title>
<polygon fill="#8dd3c7" stroke="black" points="339.62,-84.8 336.62,-88.8 315.62,-88.8 312.62,-84.8 250.38,-84.8 250.38,-48.8 339.62,-48.8 339.62,-84.8"/>
<text text-anchor="middle" x="295" y="-62.6" font-family="Times,serif" font-size="14.00">PostsModule</text>
</g>
<!-- PostsModule&#45;&gt;AppModule -->
<g id="edge9" class="edge">
<title>PostsModule&#45;&gt;AppModule</title>
<path fill="none" stroke="black" d="M295,-84.91C295,-104.14 295,-131.8 295,-131.8 295,-131.8 655.23,-131.8 655.23,-131.8"/>
<polygon fill="black" stroke="black" points="655.23,-135.3 665.23,-131.8 655.23,-128.3 655.23,-135.3"/>
</g>
<!-- PrismaModule -->
<g id="node10" class="node">
<title>PrismaModule</title>
<polygon fill="#8dd3c7" stroke="black" points="232.44,-84.8 229.44,-88.8 208.44,-88.8 205.44,-84.8 133.56,-84.8 133.56,-48.8 232.44,-48.8 232.44,-84.8"/>
<text text-anchor="middle" x="183" y="-62.6" font-family="Times,serif" font-size="14.00">PrismaModule</text>
</g>
<!-- PrismaModule&#45;&gt;AppModule -->
<g id="edge10" class="edge">
<title>PrismaModule&#45;&gt;AppModule</title>
<path fill="none" stroke="black" d="M183,-85.08C183,-106.12 183,-137.8 183,-137.8 183,-137.8 655,-137.8 655,-137.8"/>
<polygon fill="black" stroke="black" points="655,-141.3 665,-137.8 655,-134.3 655,-141.3"/>
</g>
<!-- UsersModule -->
<g id="node11" class="node">
<title>UsersModule</title>
<polygon fill="#8dd3c7" stroke="black" points="115.94,-84.8 112.94,-88.8 91.94,-88.8 88.94,-84.8 24.06,-84.8 24.06,-48.8 115.94,-48.8 115.94,-84.8"/>
<text text-anchor="middle" x="70" y="-62.6" font-family="Times,serif" font-size="14.00">UsersModule</text>
</g>
<!-- UsersModule&#45;&gt;AppModule -->
<g id="edge11" class="edge">
<title>UsersModule&#45;&gt;AppModule</title>
<path fill="none" stroke="black" d="M70,-84.89C70,-107.93 70,-144.8 70,-144.8 70,-144.8 655.2,-144.8 655.2,-144.8"/>
<polygon fill="black" stroke="black" points="655.2,-148.3 665.2,-144.8 655.2,-141.3 655.2,-148.3"/>
</g>
<!-- AppService -->
<g id="node13" class="node">
<title>AppService</title>
<ellipse fill="#fdb462" stroke="black" cx="1395" cy="-66.8" rx="56.75" ry="18"/>
<text text-anchor="middle" x="1395" y="-62.6" font-family="Times,serif" font-size="14.00">AppService</text>
</g>
<!-- AppService&#45;&gt;AppModule -->
<g id="edge12" class="edge">
<title>AppService&#45;&gt;AppModule</title>
<path fill="none" stroke="black" d="M1395,-84.89C1395,-107.93 1395,-144.8 1395,-144.8 1395,-144.8 758.74,-144.8 758.74,-144.8"/>
<polygon fill="black" stroke="black" points="758.74,-141.3 748.74,-144.8 758.74,-148.3 758.74,-141.3"/>
</g>
</g>
</svg>
