<svg xmlns="http://www.w3.org/2000/svg" xmlns:xlink="http://www.w3.org/1999/xlink" width="1265pt" height="232" viewBox="0 0 1265 173.8"><g id="graph0" class="graph" transform="scale(1 1) rotate(0) translate(4 169.8)"><title>dependencies</title><polygon fill="#fff" stroke="transparent" points="-4 4 -4 -169.8 1261 -169.8 1261 4 -4 4"/><text x="628.5" y="-8.2" font-family="sans-serif" font-size="14" text-anchor="middle">dependencies</text><g id="clust1" class="cluster"><title>cluster_AppModule</title><polygon fill="none" stroke="#000" stroke-dasharray="1 5" points="8 -32.8 8 -157.8 1249 -157.8 1249 -32.8 8 -32.8"/></g><g id="clust3" class="cluster"><title>cluster_AppModule_imports</title><polygon fill="none" stroke="#000" points="154 -40.8 154 -92.8 1241 -92.8 1241 -40.8 154 -40.8"/></g><g id="clust6" class="cluster"><title>cluster_AppModule_providers</title><polygon fill="none" stroke="#000" points="16 -40.8 16 -92.8 146 -92.8 146 -40.8 16 -40.8"/></g><g id="node1" class="node"><title>AdminModule</title><polygon fill="#8dd3c7" stroke="#000" points="1233.44 -84.8 1230.44 -88.8 1209.44 -88.8 1206.44 -84.8 1134.56 -84.8 1134.56 -48.8 1233.44 -48.8 1233.44 -84.8"/><text x="1184" y="-62.6" font-family="Times,serif" font-size="14" text-anchor="middle">AdminModule</text></g><g id="node10" class="node"><title>AppModule</title><polygon fill="#8dd3c7" stroke="#000" points="661.66 -149.8 658.66 -153.8 637.66 -153.8 634.66 -149.8 578.34 -149.8 578.34 -113.8 661.66 -113.8 661.66 -149.8"/><text x="620" y="-127.6" font-family="Times,serif" font-size="14" text-anchor="middle">AppModule</text></g><g id="edge1" class="edge"><title>AdminModule-&gt;AppModule</title><path fill="none" stroke="#000" d="M1184,-84.81C1184,-107.29 1184,-142.8 1184,-142.8 1184,-142.8 671.93,-142.8 671.93,-142.8"/><polygon fill="#000" stroke="#000" points="671.93 -139.3 661.93 -142.8 671.93 -146.3 671.93 -139.3"/></g><g id="node2" class="node"><title>AuthModule</title><polygon fill="#8dd3c7" stroke="#000" points="1116.55 -84.8 1113.55 -88.8 1092.55 -88.8 1089.55 -84.8 1029.45 -84.8 1029.45 -48.8 1116.55 -48.8 1116.55 -84.8"/><text x="1073" y="-62.6" font-family="Times,serif" font-size="14" text-anchor="middle">AuthModule</text></g><g id="edge2" class="edge"><title>AuthModule-&gt;AppModule</title><path fill="none" stroke="#000" d="M1073,-84.93C1073,-105.37 1073,-135.8 1073,-135.8 1073,-135.8 671.81,-135.8 671.81,-135.8"/><polygon fill="#000" stroke="#000" points="671.81 -132.3 661.81 -135.8 671.81 -139.3 671.81 -132.3"/></g><g id="node3" class="node"><title>ConversationsModule</title><polygon fill="#8dd3c7" stroke="#000" points="1010.66 -84.8 1007.66 -88.8 986.66 -88.8 983.66 -84.8 871.34 -84.8 871.34 -48.8 1010.66 -48.8 1010.66 -84.8"/><text x="941" y="-62.6" font-family="Times,serif" font-size="14" text-anchor="middle">ConversationsModule</text></g><g id="edge3" class="edge"><title>ConversationsModule-&gt;AppModule</title><path fill="none" stroke="#000" d="M941,-85.07C941,-103.36 941,-128.8 941,-128.8 941,-128.8 671.97,-128.8 671.97,-128.8"/><polygon fill="#000" stroke="#000" points="671.97 -125.3 661.97 -128.8 671.97 -132.3 671.97 -125.3"/></g><g id="node4" class="node"><title>FilesModule</title><polygon fill="#8dd3c7" stroke="#000" points="853.28 -84.8 850.28 -88.8 829.28 -88.8 826.28 -84.8 766.72 -84.8 766.72 -48.8 853.28 -48.8 853.28 -84.8"/><text x="810" y="-62.6" font-family="Times,serif" font-size="14" text-anchor="middle">FilesModule</text></g><g id="edge4" class="edge"><title>FilesModule-&gt;AppModule</title><path fill="none" stroke="#000" d="M810,-84.81C810,-100.85 810,-121.8 810,-121.8 810,-121.8 671.7,-121.8 671.7,-121.8"/><polygon fill="#000" stroke="#000" points="671.7 -118.3 661.7 -121.8 671.7 -125.3 671.7 -118.3"/></g><g id="node5" class="node"><title>InterceptorModule</title><polygon fill="#8dd3c7" stroke="#000" points="748.46 -84.8 745.46 -88.8 724.46 -88.8 721.46 -84.8 627.54 -84.8 627.54 -48.8 748.46 -48.8 748.46 -84.8"/><text x="688" y="-62.6" font-family="Times,serif" font-size="14" text-anchor="middle">InterceptorModule</text></g><g id="edge5" class="edge"><title>InterceptorModule-&gt;AppModule</title><path fill="none" stroke="#000" d="M644.68,-84.91C644.68,-84.91 644.68,-103.79 644.68,-103.79"/><polygon fill="#000" stroke="#000" points="641.18 -103.79 644.68 -113.79 648.18 -103.79 641.18 -103.79"/></g><g id="node6" class="node"><title>MessagesModule</title><polygon fill="#8dd3c7" stroke="#000" points="609.99 -84.8 606.99 -88.8 585.99 -88.8 582.99 -84.8 496.01 -84.8 496.01 -48.8 609.99 -48.8 609.99 -84.8"/><text x="553" y="-62.6" font-family="Times,serif" font-size="14" text-anchor="middle">MessagesModule</text></g><g id="edge6" class="edge"><title>MessagesModule-&gt;AppModule</title><path fill="none" stroke="#000" d="M594.08,-84.91C594.08,-84.91 594.08,-103.79 594.08,-103.79"/><polygon fill="#000" stroke="#000" points="590.58 -103.79 594.08 -113.79 597.58 -103.79 590.58 -103.79"/></g><g id="node7" class="node"><title>PostsModule</title><polygon fill="#8dd3c7" stroke="#000" points="477.62 -84.8 474.62 -88.8 453.62 -88.8 450.62 -84.8 388.38 -84.8 388.38 -48.8 477.62 -48.8 477.62 -84.8"/><text x="433" y="-62.6" font-family="Times,serif" font-size="14" text-anchor="middle">PostsModule</text></g><g id="edge7" class="edge"><title>PostsModule-&gt;AppModule</title><path fill="none" stroke="#000" d="M433,-84.81C433,-100.85 433,-121.8 433,-121.8 433,-121.8 568.03,-121.8 568.03,-121.8"/><polygon fill="#000" stroke="#000" points="568.03 -125.3 578.03 -121.8 568.03 -118.3 568.03 -125.3"/></g><g id="node8" class="node"><title>PrismaModule</title><polygon fill="#8dd3c7" stroke="#000" points="370.44 -84.8 367.44 -88.8 346.44 -88.8 343.44 -84.8 271.56 -84.8 271.56 -48.8 370.44 -48.8 370.44 -84.8"/><text x="321" y="-62.6" font-family="Times,serif" font-size="14" text-anchor="middle">PrismaModule</text></g><g id="edge8" class="edge"><title>PrismaModule-&gt;AppModule</title><path fill="none" stroke="#000" d="M321,-85.07C321,-103.36 321,-128.8 321,-128.8 321,-128.8 568.11,-128.8 568.11,-128.8"/><polygon fill="#000" stroke="#000" points="568.11 -132.3 578.11 -128.8 568.11 -125.3 568.11 -132.3"/></g><g id="node9" class="node"><title>UsersModule</title><polygon fill="#8dd3c7" stroke="#000" points="253.94 -84.8 250.94 -88.8 229.94 -88.8 226.94 -84.8 162.06 -84.8 162.06 -48.8 253.94 -48.8 253.94 -84.8"/><text x="208" y="-62.6" font-family="Times,serif" font-size="14" text-anchor="middle">UsersModule</text></g><g id="edge9" class="edge"><title>UsersModule-&gt;AppModule</title><path fill="none" stroke="#000" d="M208,-84.93C208,-105.37 208,-135.8 208,-135.8 208,-135.8 568.23,-135.8 568.23,-135.8"/><polygon fill="#000" stroke="#000" points="568.23 -139.3 578.23 -135.8 568.23 -132.3 568.23 -139.3"/></g><g id="node11" class="node"><title>AppService</title><ellipse cx="81" cy="-66.8" fill="#fdb462" stroke="#000" rx="56.75" ry="18"/><text x="81" y="-62.6" font-family="Times,serif" font-size="14" text-anchor="middle">AppService</text></g><g id="edge10" class="edge"><title>AppService-&gt;AppModule</title><path fill="none" stroke="#000" d="M81,-84.81C81,-107.29 81,-142.8 81,-142.8 81,-142.8 568.15,-142.8 568.15,-142.8"/><polygon fill="#000" stroke="#000" points="568.15 -146.3 578.15 -142.8 568.15 -139.3 568.15 -146.3"/></g></g></svg>