<?xml version="1.0" encoding="UTF-8" standalone="no"?>
<!DOCTYPE svg PUBLIC "-//W3C//DTD SVG 1.1//EN"
 "http://www.w3.org/Graphics/SVG/1.1/DTD/svg11.dtd">
<!-- Generated by graphviz version 5.0.0 (20220707.1540)
 -->
<!-- Title: dependencies Pages: 1 -->
<svg width="1149pt" height="174pt"
 viewBox="0.00 0.00 1149.00 173.80" xmlns="http://www.w3.org/2000/svg" xmlns:xlink="http://www.w3.org/1999/xlink">
<g id="graph0" class="graph" transform="scale(1 1) rotate(0) translate(4 169.8)">
<title>dependencies</title>
<polygon fill="white" stroke="transparent" points="-4,4 -4,-169.8 1145,-169.8 1145,4 -4,4"/>
<text text-anchor="middle" x="570.5" y="-8.2" font-family="sans-serif" font-size="14.00">dependencies</text>
<g id="clust1" class="cluster">
<title>cluster_AppModule</title>
<polygon fill="none" stroke="black" stroke-dasharray="1,5" points="8,-32.8 8,-157.8 1133,-157.8 1133,-32.8 8,-32.8"/>
</g>
<g id="clust6" class="cluster">
<title>cluster_AppModule_providers</title>
<polygon fill="none" stroke="black" points="995,-40.8 995,-92.8 1125,-92.8 1125,-40.8 995,-40.8"/>
</g>
<g id="clust3" class="cluster">
<title>cluster_AppModule_imports</title>
<polygon fill="none" stroke="black" points="16,-40.8 16,-92.8 987,-92.8 987,-40.8 16,-40.8"/>
</g>
<!-- AuthModule -->
<g id="node1" class="node">
<title>AuthModule</title>
<polygon fill="#8dd3c7" stroke="black" points="978.55,-84.8 975.55,-88.8 954.55,-88.8 951.55,-84.8 891.45,-84.8 891.45,-48.8 978.55,-48.8 978.55,-84.8"/>
<text text-anchor="middle" x="935" y="-62.6" font-family="Times,serif" font-size="14.00">AuthModule</text>
</g>
<!-- AppModule -->
<g id="node9" class="node">
<title>AppModule</title>
<polygon fill="#8dd3c7" stroke="black" points="591.66,-149.8 588.66,-153.8 567.66,-153.8 564.66,-149.8 508.34,-149.8 508.34,-113.8 591.66,-113.8 591.66,-149.8"/>
<text text-anchor="middle" x="550" y="-127.6" font-family="Times,serif" font-size="14.00">AppModule</text>
</g>
<!-- AuthModule&#45;&gt;AppModule -->
<g id="edge1" class="edge">
<title>AuthModule&#45;&gt;AppModule</title>
<path fill="none" stroke="black" d="M935,-84.93C935,-105.37 935,-135.8 935,-135.8 935,-135.8 601.93,-135.8 601.93,-135.8"/>
<polygon fill="black" stroke="black" points="601.93,-132.3 591.93,-135.8 601.93,-139.3 601.93,-132.3"/>
</g>
<!-- ConversationsModule -->
<g id="node2" class="node">
<title>ConversationsModule</title>
<polygon fill="#8dd3c7" stroke="black" points="872.66,-84.8 869.66,-88.8 848.66,-88.8 845.66,-84.8 733.34,-84.8 733.34,-48.8 872.66,-48.8 872.66,-84.8"/>
<text text-anchor="middle" x="803" y="-62.6" font-family="Times,serif" font-size="14.00">ConversationsModule</text>
</g>
<!-- ConversationsModule&#45;&gt;AppModule -->
<g id="edge2" class="edge">
<title>ConversationsModule&#45;&gt;AppModule</title>
<path fill="none" stroke="black" d="M803,-85.07C803,-103.36 803,-128.8 803,-128.8 803,-128.8 601.78,-128.8 601.78,-128.8"/>
<polygon fill="black" stroke="black" points="601.78,-125.3 591.78,-128.8 601.78,-132.3 601.78,-125.3"/>
</g>
<!-- FilesModule -->
<g id="node3" class="node">
<title>FilesModule</title>
<polygon fill="#8dd3c7" stroke="black" points="715.28,-84.8 712.28,-88.8 691.28,-88.8 688.28,-84.8 628.72,-84.8 628.72,-48.8 715.28,-48.8 715.28,-84.8"/>
<text text-anchor="middle" x="672" y="-62.6" font-family="Times,serif" font-size="14.00">FilesModule</text>
</g>
<!-- FilesModule&#45;&gt;AppModule -->
<g id="edge3" class="edge">
<title>FilesModule&#45;&gt;AppModule</title>
<path fill="none" stroke="black" d="M672,-84.81C672,-100.85 672,-121.8 672,-121.8 672,-121.8 601.99,-121.8 601.99,-121.8"/>
<polygon fill="black" stroke="black" points="601.99,-118.3 591.99,-121.8 601.99,-125.3 601.99,-118.3"/>
</g>
<!-- InterceptorModule -->
<g id="node4" class="node">
<title>InterceptorModule</title>
<polygon fill="#8dd3c7" stroke="black" points="610.46,-84.8 607.46,-88.8 586.46,-88.8 583.46,-84.8 489.54,-84.8 489.54,-48.8 610.46,-48.8 610.46,-84.8"/>
<text text-anchor="middle" x="550" y="-62.6" font-family="Times,serif" font-size="14.00">InterceptorModule</text>
</g>
<!-- InterceptorModule&#45;&gt;AppModule -->
<g id="edge4" class="edge">
<title>InterceptorModule&#45;&gt;AppModule</title>
<path fill="none" stroke="black" d="M550,-84.91C550,-84.91 550,-103.79 550,-103.79"/>
<polygon fill="black" stroke="black" points="546.5,-103.79 550,-113.79 553.5,-103.79 546.5,-103.79"/>
</g>
<!-- MessagesModule -->
<g id="node5" class="node">
<title>MessagesModule</title>
<polygon fill="#8dd3c7" stroke="black" points="471.99,-84.8 468.99,-88.8 447.99,-88.8 444.99,-84.8 358.01,-84.8 358.01,-48.8 471.99,-48.8 471.99,-84.8"/>
<text text-anchor="middle" x="415" y="-62.6" font-family="Times,serif" font-size="14.00">MessagesModule</text>
</g>
<!-- MessagesModule&#45;&gt;AppModule -->
<g id="edge5" class="edge">
<title>MessagesModule&#45;&gt;AppModule</title>
<path fill="none" stroke="black" d="M415,-84.81C415,-100.85 415,-121.8 415,-121.8 415,-121.8 498.03,-121.8 498.03,-121.8"/>
<polygon fill="black" stroke="black" points="498.03,-125.3 508.03,-121.8 498.03,-118.3 498.03,-125.3"/>
</g>
<!-- PostsModule -->
<g id="node6" class="node">
<title>PostsModule</title>
<polygon fill="#8dd3c7" stroke="black" points="339.62,-84.8 336.62,-88.8 315.62,-88.8 312.62,-84.8 250.38,-84.8 250.38,-48.8 339.62,-48.8 339.62,-84.8"/>
<text text-anchor="middle" x="295" y="-62.6" font-family="Times,serif" font-size="14.00">PostsModule</text>
</g>
<!-- PostsModule&#45;&gt;AppModule -->
<g id="edge6" class="edge">
<title>PostsModule&#45;&gt;AppModule</title>
<path fill="none" stroke="black" d="M295,-85.07C295,-103.36 295,-128.8 295,-128.8 295,-128.8 498.18,-128.8 498.18,-128.8"/>
<polygon fill="black" stroke="black" points="498.18,-132.3 508.18,-128.8 498.18,-125.3 498.18,-132.3"/>
</g>
<!-- PrismaModule -->
<g id="node7" class="node">
<title>PrismaModule</title>
<polygon fill="#8dd3c7" stroke="black" points="232.44,-84.8 229.44,-88.8 208.44,-88.8 205.44,-84.8 133.56,-84.8 133.56,-48.8 232.44,-48.8 232.44,-84.8"/>
<text text-anchor="middle" x="183" y="-62.6" font-family="Times,serif" font-size="14.00">PrismaModule</text>
</g>
<!-- PrismaModule&#45;&gt;AppModule -->
<g id="edge7" class="edge">
<title>PrismaModule&#45;&gt;AppModule</title>
<path fill="none" stroke="black" d="M183,-84.93C183,-105.37 183,-135.8 183,-135.8 183,-135.8 498.26,-135.8 498.26,-135.8"/>
<polygon fill="black" stroke="black" points="498.26,-139.3 508.26,-135.8 498.26,-132.3 498.26,-139.3"/>
</g>
<!-- UsersModule -->
<g id="node8" class="node">
<title>UsersModule</title>
<polygon fill="#8dd3c7" stroke="black" points="115.94,-84.8 112.94,-88.8 91.94,-88.8 88.94,-84.8 24.06,-84.8 24.06,-48.8 115.94,-48.8 115.94,-84.8"/>
<text text-anchor="middle" x="70" y="-62.6" font-family="Times,serif" font-size="14.00">UsersModule</text>
</g>
<!-- UsersModule&#45;&gt;AppModule -->
<g id="edge8" class="edge">
<title>UsersModule&#45;&gt;AppModule</title>
<path fill="none" stroke="black" d="M70,-84.81C70,-107.29 70,-142.8 70,-142.8 70,-142.8 498.24,-142.8 498.24,-142.8"/>
<polygon fill="black" stroke="black" points="498.24,-146.3 508.24,-142.8 498.24,-139.3 498.24,-146.3"/>
</g>
<!-- AppService -->
<g id="node10" class="node">
<title>AppService</title>
<ellipse fill="#fdb462" stroke="black" cx="1060" cy="-66.8" rx="56.75" ry="18"/>
<text text-anchor="middle" x="1060" y="-62.6" font-family="Times,serif" font-size="14.00">AppService</text>
</g>
<!-- AppService&#45;&gt;AppModule -->
<g id="edge9" class="edge">
<title>AppService&#45;&gt;AppModule</title>
<path fill="none" stroke="black" d="M1060,-84.81C1060,-107.29 1060,-142.8 1060,-142.8 1060,-142.8 601.74,-142.8 601.74,-142.8"/>
<polygon fill="black" stroke="black" points="601.74,-139.3 591.74,-142.8 601.74,-146.3 601.74,-139.3"/>
</g>
</g>
</svg>
