<svg xmlns="http://www.w3.org/2000/svg" xmlns:xlink="http://www.w3.org/1999/xlink" width="212pt" height="232" viewBox="0 0 212 173.8"><g id="graph0" class="graph" transform="scale(1 1) rotate(0) translate(4 169.8)"><title>dependencies</title><polygon fill="#fff" stroke="transparent" points="-4 4 -4 -169.8 208 -169.8 208 4 -4 4"/><text x="102" y="-8.2" font-family="sans-serif" font-size="14" text-anchor="middle">dependencies</text><g id="clust1" class="cluster"><title>cluster_MessagesModule</title><polygon fill="none" stroke="#000" stroke-dasharray="1 5" points="8 -32.8 8 -157.8 196 -157.8 196 -32.8 8 -32.8"/></g><g id="clust6" class="cluster"><title>cluster_MessagesModule_providers</title><polygon fill="none" stroke="#000" points="16 -40.8 16 -92.8 188 -92.8 188 -40.8 16 -40.8"/></g><g id="node1" class="node"><title>MessagesService</title><ellipse cx="102" cy="-66.8" fill="#fdb462" stroke="#000" rx="77.58" ry="18"/><text x="102" y="-62.6" font-family="Times,serif" font-size="14" text-anchor="middle">MessagesService</text></g><g id="node2" class="node"><title>MessagesModule</title><polygon fill="#8dd3c7" stroke="#000" points="158.99 -149.8 155.99 -153.8 134.99 -153.8 131.99 -149.8 45.01 -149.8 45.01 -113.8 158.99 -113.8 158.99 -149.8"/><text x="102" y="-127.6" font-family="Times,serif" font-size="14" text-anchor="middle">MessagesModule</text></g><g id="edge1" class="edge"><title>MessagesService-&gt;MessagesModule</title><path fill="none" stroke="#000" d="M102,-84.91C102,-84.91 102,-103.79 102,-103.79"/><polygon fill="#000" stroke="#000" points="98.5 -103.79 102 -113.79 105.5 -103.79 98.5 -103.79"/></g></g></svg>