<svg xmlns="http://www.w3.org/2000/svg" xmlns:xlink="http://www.w3.org/1999/xlink" width="2732" height="326pt" viewBox="0 0 2049 325.8"><g id="graph0" class="graph" transform="scale(1 1) rotate(0) translate(4 321.8)"><title>dependencies</title><polygon fill="#fff" stroke="transparent" points="-4 4 -4 -321.8 2045 -321.8 2045 4 -4 4"/><text x="1020.5" y="-8.2" font-family="sans-serif" font-size="14" text-anchor="middle">dependencies</text><g id="clust1" class="cluster"><title>cluster_AdminModule</title><polygon fill="none" stroke="#000" stroke-dasharray="1 5" points="8 -108.8 8 -244.8 290 -244.8 290 -108.8 8 -108.8"/></g><g id="clust3" class="cluster"><title>cluster_AdminModule_imports</title><polygon fill="none" stroke="#000" points="174 -116.8 174 -168.8 282 -168.8 282 -116.8 174 -116.8"/></g><g id="clust6" class="cluster"><title>cluster_AdminModule_providers</title><polygon fill="none" stroke="#000" points="16 -116.8 16 -168.8 166 -168.8 166 -116.8 16 -116.8"/></g><g id="clust7" class="cluster"><title>cluster_AppModule</title><polygon fill="none" stroke="#000" stroke-dasharray="1 5" points="1092 -108.8 1092 -309.8 1735 -309.8 1735 -108.8 1092 -108.8"/></g><g id="clust9" class="cluster"><title>cluster_AppModule_imports</title><polygon fill="none" stroke="#000" points="1238 -116.8 1238 -244.8 1727 -244.8 1727 -116.8 1238 -116.8"/></g><g id="clust12" class="cluster"><title>cluster_AppModule_providers</title><polygon fill="none" stroke="#000" points="1100 -192.8 1100 -244.8 1230 -244.8 1230 -192.8 1100 -192.8"/></g><g id="clust13" class="cluster"><title>cluster_AuthModule</title><polygon fill="none" stroke="#000" stroke-dasharray="1 5" points="298 -108.8 298 -176.8 694 -176.8 694 -108.8 298 -108.8"/></g><g id="clust18" class="cluster"><title>cluster_AuthModule_providers</title><polygon fill="none" stroke="#000" points="306 -116.8 306 -168.8 686 -168.8 686 -116.8 306 -116.8"/></g><g id="clust19" class="cluster"><title>cluster_ConversationsModule</title><polygon fill="none" stroke="#000" stroke-dasharray="1 5" points="702 -108.8 702 -176.8 924 -176.8 924 -108.8 702 -108.8"/></g><g id="clust24" class="cluster"><title>cluster_ConversationsModule_providers</title><polygon fill="none" stroke="#000" points="710 -116.8 710 -168.8 916 -168.8 916 -116.8 710 -116.8"/></g><g id="clust25" class="cluster"><title>cluster_FilesModule</title><polygon fill="none" stroke="#000" stroke-dasharray="1 5" points="1325 -32.8 1325 -100.8 1443 -100.8 1443 -32.8 1325 -32.8"/></g><g id="clust27" class="cluster"><title>cluster_FilesModule_imports</title><polygon fill="none" stroke="#000" points="1333 -40.8 1333 -92.8 1435 -92.8 1435 -40.8 1333 -40.8"/></g><g id="clust37" class="cluster"><title>cluster_MessagesModule</title><polygon fill="none" stroke="#000" stroke-dasharray="1 5" points="1451 -32.8 1451 -100.8 1639 -100.8 1639 -32.8 1451 -32.8"/></g><g id="clust42" class="cluster"><title>cluster_MessagesModule_providers</title><polygon fill="none" stroke="#000" points="1459 -40.8 1459 -92.8 1631 -92.8 1631 -40.8 1459 -40.8"/></g><g id="clust43" class="cluster"><title>cluster_PostsModule</title><polygon fill="none" stroke="#000" stroke-dasharray="1 5" points="932 -108.8 932 -176.8 1084 -176.8 1084 -108.8 932 -108.8"/></g><g id="clust48" class="cluster"><title>cluster_PostsModule_providers</title><polygon fill="none" stroke="#000" points="940 -116.8 940 -168.8 1076 -168.8 1076 -116.8 940 -116.8"/></g><g id="clust49" class="cluster"><title>cluster_PrismaModule</title><polygon fill="none" stroke="#000" stroke-dasharray="1 5" points="1743 -184.8 1743 -252.8 2033 -252.8 2033 -184.8 1743 -184.8"/></g><g id="clust52" class="cluster"><title>cluster_PrismaModule_exports</title><polygon fill="none" stroke="#000" points="1909 -192.8 1909 -244.8 2025 -244.8 2025 -192.8 1909 -192.8"/></g><g id="clust54" class="cluster"><title>cluster_PrismaModule_providers</title><polygon fill="none" stroke="#000" points="1751 -192.8 1751 -244.8 1901 -244.8 1901 -192.8 1751 -192.8"/></g><g id="clust55" class="cluster"><title>cluster_UsersModule</title><polygon fill="none" stroke="#000" stroke-dasharray="1 5" points="298 -184.8 298 -252.8 572 -252.8 572 -184.8 298 -184.8"/></g><g id="clust58" class="cluster"><title>cluster_UsersModule_exports</title><polygon fill="none" stroke="#000" points="454 -192.8 454 -244.8 564 -244.8 564 -192.8 454 -192.8"/></g><g id="clust60" class="cluster"><title>cluster_UsersModule_providers</title><polygon fill="none" stroke="#000" points="306 -192.8 306 -244.8 446 -244.8 446 -192.8 306 -192.8"/></g><g id="node1" class="node"><title>UsersModule</title><polygon fill="#8dd3c7" stroke="#000" points="273.94 -160.8 270.94 -164.8 249.94 -164.8 246.94 -160.8 182.06 -160.8 182.06 -124.8 273.94 -124.8 273.94 -160.8"/><text x="228" y="-138.6" font-family="Times,serif" font-size="14" text-anchor="middle">UsersModule</text></g><g id="node2" class="node"><title>AdminModule</title><polygon fill="#8dd3c7" stroke="#000" points="252.44 -236.8 249.44 -240.8 228.44 -240.8 225.44 -236.8 153.56 -236.8 153.56 -200.8 252.44 -200.8 252.44 -236.8"/><text x="203" y="-214.6" font-family="Times,serif" font-size="14" text-anchor="middle">AdminModule</text></g><g id="edge1" class="edge"><title>UsersModule-&gt;AdminModule</title><path fill="none" stroke="#000" d="M217.25,-160.81C217.25,-160.81 217.25,-190.65 217.25,-190.65"/><polygon fill="#000" stroke="#000" points="213.75 -190.65 217.25 -200.65 220.75 -190.65 213.75 -190.65"/></g><g id="node5" class="node"><title>ConversationsModule</title><polygon fill="#8dd3c7" stroke="#000" points="1491.66 -236.8 1488.66 -240.8 1467.66 -240.8 1464.66 -236.8 1352.34 -236.8 1352.34 -200.8 1491.66 -200.8 1491.66 -236.8"/><text x="1422" y="-214.6" font-family="Times,serif" font-size="14" text-anchor="middle">ConversationsModule</text></g><g id="edge18" class="edge"><title>UsersModule-&gt;ConversationsModule</title><path fill="none" stroke="#000" d="M262.97,-160.86C262.97,-172.24 262.97,-184.8 262.97,-184.8 262.97,-184.8 1384.31,-184.8 1384.31,-184.8 1384.31,-184.8 1384.31,-190.61 1384.31,-190.61"/><polygon fill="#000" stroke="#000" points="1380.81 -190.61 1384.31 -200.61 1387.81 -190.61 1380.81 -190.61"/></g><g id="node9" class="node"><title>PostsModule</title><polygon fill="#8dd3c7" stroke="#000" points="1598.62 -236.8 1595.62 -240.8 1574.62 -240.8 1571.62 -236.8 1509.38 -236.8 1509.38 -200.8 1598.62 -200.8 1598.62 -236.8"/><text x="1554" y="-214.6" font-family="Times,serif" font-size="14" text-anchor="middle">PostsModule</text></g><g id="edge23" class="edge"><title>UsersModule-&gt;PostsModule</title><path fill="none" stroke="#000" d="M265.66,-160.99C265.66,-169.08 265.66,-176.8 265.66,-176.8 265.66,-176.8 1527.33,-176.8 1527.33,-176.8 1527.33,-176.8 1527.33,-190.74 1527.33,-190.74"/><polygon fill="#000" stroke="#000" points="1523.83 -190.74 1527.33 -200.74 1530.83 -190.74 1523.83 -190.74"/></g><g id="node11" class="node"><title>AppModule</title><polygon fill="#8dd3c7" stroke="#000" points="1529.66 -301.8 1526.66 -305.8 1505.66 -305.8 1502.66 -301.8 1446.34 -301.8 1446.34 -265.8 1529.66 -265.8 1529.66 -301.8"/><text x="1488" y="-279.6" font-family="Times,serif" font-size="14" text-anchor="middle">AppModule</text></g><g id="edge11" class="edge"><title>UsersModule-&gt;AppModule</title><path fill="none" stroke="#000" d="M268.34,-160.83C268.34,-200.08 268.34,-289.8 268.34,-289.8 268.34,-289.8 1436.02,-289.8 1436.02,-289.8"/><polygon fill="#000" stroke="#000" points="1436.02 -293.3 1446.02 -289.8 1436.02 -286.3 1436.02 -293.3"/></g><g id="node22" class="node"><title>UsersService</title><polygon fill="#fb8072" stroke="#000" points="555.86 -236.8 462.14 -236.8 462.14 -200.8 555.86 -200.8 555.86 -236.8"/><text x="509" y="-214.6" font-family="Times,serif" font-size="14" text-anchor="middle">UsersService</text></g><g id="edge29" class="edge"><title>UsersModule-&gt;UsersService</title><path fill="none" stroke="#000" stroke-dasharray="5 2" d="M260.28,-160.83C260.28,-177.2 260.28,-198.8 260.28,-198.8 260.28,-198.8 493.44,-198.8 493.44,-198.8 493.44,-198.8 493.44,-198.98 493.44,-198.98"/><polygon fill="#000" stroke="#000" points="489.94 -190.65 493.44 -200.65 496.94 -190.65 489.94 -190.65"/></g><g id="edge3" class="edge"><title>AdminModule-&gt;AppModule</title><path fill="none" stroke="#000" d="M203,-236.89C203,-259.93 203,-296.8 203,-296.8 203,-296.8 1435.98,-296.8 1435.98,-296.8"/><polygon fill="#000" stroke="#000" points="1435.98 -300.3 1445.98 -296.8 1435.98 -293.3 1435.98 -300.3"/></g><g id="node3" class="node"><title>AdminService</title><ellipse cx="91" cy="-142.8" fill="#fdb462" stroke="#000" rx="66.64" ry="18"/><text x="91" y="-138.6" font-family="Times,serif" font-size="14" text-anchor="middle">AdminService</text></g><g id="edge2" class="edge"><title>AdminService-&gt;AdminModule</title><path fill="none" stroke="#000" d="M158.04,-142.8C165.26,-142.8 170.05,-142.8 170.05,-142.8 170.05,-142.8 170.05,-190.79 170.05,-190.79"/><polygon fill="#000" stroke="#000" points="166.55 -190.79 170.05 -200.79 173.55 -190.79 166.55 -190.79"/></g><g id="node4" class="node"><title>AuthModule</title><polygon fill="#8dd3c7" stroke="#000" points="1333.55 -236.8 1330.55 -240.8 1309.55 -240.8 1306.55 -236.8 1246.45 -236.8 1246.45 -200.8 1333.55 -200.8 1333.55 -236.8"/><text x="1290" y="-214.6" font-family="Times,serif" font-size="14" text-anchor="middle">AuthModule</text></g><g id="edge27" class="edge"><title>AuthModule-&gt;UsersModule</title><path fill="none" stroke="#000" d="M1257.17,-200.68C1257.17,-197.83 1257.17,-195.8 1257.17,-195.8 1257.17,-195.8 254.91,-195.8 254.91,-195.8 254.91,-195.8 254.91,-171.04 254.91,-171.04"/><polygon fill="#000" stroke="#000" points="258.41 -171.04 254.91 -161.04 251.41 -171.04 258.41 -171.04"/></g><g id="edge4" class="edge"><title>AuthModule-&gt;AppModule</title><path fill="none" stroke="#000" d="M1290,-236.82C1290,-254.17 1290,-277.8 1290,-277.8 1290,-277.8 1436.01,-277.8 1436.01,-277.8"/><polygon fill="#000" stroke="#000" points="1436.01 -281.3 1446.01 -277.8 1436.01 -274.3 1436.01 -281.3"/></g><g id="edge5" class="edge"><title>ConversationsModule-&gt;AppModule</title><path fill="none" stroke="#000" d="M1469,-236.91C1469,-236.91 1469,-255.79 1469,-255.79"/><polygon fill="#000" stroke="#000" points="1465.5 -255.79 1469 -265.79 1472.5 -255.79 1465.5 -255.79"/></g><g id="node6" class="node"><title>FilesModule</title><polygon fill="#8dd3c7" stroke="#000" points="1449.28 -160.8 1446.28 -164.8 1425.28 -164.8 1422.28 -160.8 1362.72 -160.8 1362.72 -124.8 1449.28 -124.8 1449.28 -160.8"/><text x="1406" y="-138.6" font-family="Times,serif" font-size="14" text-anchor="middle">FilesModule</text></g><g id="edge6" class="edge"><title>FilesModule-&gt;AppModule</title><path fill="none" stroke="#000" d="M1427.69,-160.87C1427.69,-170.26 1427.69,-179.8 1427.69,-179.8 1427.69,-179.8 1497.7,-179.8 1497.7,-179.8 1497.7,-179.8 1497.7,-255.68 1497.7,-255.68"/><polygon fill="#000" stroke="#000" points="1494.2 -255.68 1497.7 -265.68 1501.2 -255.68 1494.2 -255.68"/></g><g id="node7" class="node"><title>InterceptorModule</title><polygon fill="#8dd3c7" stroke="#000" points="1719.46 -160.8 1716.46 -164.8 1695.46 -164.8 1692.46 -160.8 1598.54 -160.8 1598.54 -124.8 1719.46 -124.8 1719.46 -160.8"/><text x="1659" y="-138.6" font-family="Times,serif" font-size="14" text-anchor="middle">InterceptorModule</text></g><g id="edge7" class="edge"><title>InterceptorModule-&gt;AppModule</title><path fill="none" stroke="#000" d="M1659.02,-160.94C1659.02,-199.03 1659.02,-283.8 1659.02,-283.8 1659.02,-283.8 1539.84,-283.8 1539.84,-283.8"/><polygon fill="#000" stroke="#000" points="1539.84 -280.3 1529.84 -283.8 1539.84 -287.3 1539.84 -280.3"/></g><g id="node8" class="node"><title>MessagesModule</title><polygon fill="#8dd3c7" stroke="#000" points="1580.99 -160.8 1577.99 -164.8 1556.99 -164.8 1553.99 -160.8 1467.01 -160.8 1467.01 -124.8 1580.99 -124.8 1580.99 -160.8"/><text x="1524" y="-138.6" font-family="Times,serif" font-size="14" text-anchor="middle">MessagesModule</text></g><g id="edge8" class="edge"><title>MessagesModule-&gt;AppModule</title><path fill="none" stroke="#000" d="M1503.57,-160.94C1503.57,-160.94 1503.57,-255.73 1503.57,-255.73"/><polygon fill="#000" stroke="#000" points="1500.07 -255.72 1503.57 -265.73 1507.07 -255.73 1500.07 -255.72"/></g><g id="edge9" class="edge"><title>PostsModule-&gt;AppModule</title><path fill="none" stroke="#000" d="M1519.63,-236.91C1519.63,-236.91 1519.63,-255.79 1519.63,-255.79"/><polygon fill="#000" stroke="#000" points="1516.13 -255.79 1519.63 -265.79 1523.13 -255.79 1516.13 -255.79"/></g><g id="node10" class="node"><title>PrismaModule</title><polygon fill="#8dd3c7" stroke="#000" points="1344.44 -160.8 1341.44 -164.8 1320.44 -164.8 1317.44 -160.8 1245.56 -160.8 1245.56 -124.8 1344.44 -124.8 1344.44 -160.8"/><text x="1295" y="-138.6" font-family="Times,serif" font-size="14" text-anchor="middle">PrismaModule</text></g><g id="edge28" class="edge"><title>PrismaModule-&gt;UsersModule</title><path fill="none" stroke="#000" d="M1268.11,-160.88C1268.11,-162.65 1268.11,-163.8 1268.11,-163.8 1268.11,-163.8 257.59,-163.8 257.59,-163.8 257.59,-163.8 257.59,-163.51 257.59,-163.51"/><polygon fill="#000" stroke="#000" points="261.1 -170.88 257.59 -160.88 254.1 -170.88 261.1 -170.88"/></g><g id="edge13" class="edge"><title>PrismaModule-&gt;AuthModule</title><path fill="none" stroke="#000" d="M1311.89,-160.81C1311.89,-160.81 1311.89,-190.65 1311.89,-190.65"/><polygon fill="#000" stroke="#000" points="1308.39 -190.65 1311.89 -200.65 1315.39 -190.65 1308.39 -190.65"/></g><g id="edge17" class="edge"><title>PrismaModule-&gt;ConversationsModule</title><path fill="none" stroke="#000" d="M1344.46,-142.8C1352.04,-142.8 1357.39,-142.8 1357.39,-142.8 1357.39,-142.8 1357.39,-190.79 1357.39,-190.79"/><polygon fill="#000" stroke="#000" points="1353.89 -190.79 1357.39 -200.79 1360.89 -190.79 1353.89 -190.79"/></g><g id="edge22" class="edge"><title>PrismaModule-&gt;PostsModule</title><path fill="none" stroke="#000" d="M1339,-161C1339,-166.83 1339,-171.8 1339,-171.8 1339,-171.8 1563.1,-171.8 1563.1,-171.8 1563.1,-171.8 1563.1,-190.76 1563.1,-190.76"/><polygon fill="#000" stroke="#000" points="1559.6 -190.76 1563.1 -200.76 1566.6 -190.76 1559.6 -190.76"/></g><g id="edge10" class="edge"><title>PrismaModule-&gt;AppModule</title><path fill="none" stroke="#000" d="M1341.61,-161.01C1341.61,-196.57 1341.61,-271.8 1341.61,-271.8 1341.61,-271.8 1436.05,-271.8 1436.05,-271.8"/><polygon fill="#000" stroke="#000" points="1436.05 -275.3 1446.05 -271.8 1436.05 -268.3 1436.05 -275.3"/></g><g id="node20" class="node"><title>PrismaService</title><polygon fill="#fb8072" stroke="#000" points="2017.37 -236.8 1916.63 -236.8 1916.63 -200.8 2017.37 -200.8 2017.37 -236.8"/><text x="1967" y="-214.6" font-family="Times,serif" font-size="14" text-anchor="middle">PrismaService</text></g><g id="edge25" class="edge"><title>PrismaModule-&gt;PrismaService</title><path fill="none" stroke="#000" stroke-dasharray="5 2" d="M1322.83,-160.99C1322.83,-164.34 1322.83,-166.8 1322.83,-166.8 1322.83,-166.8 1967,-166.8 1967,-166.8 1967,-166.8 1967,-190.61 1967,-190.61"/><polygon fill="#000" stroke="#000" points="1963.5 -190.61 1967 -200.61 1970.5 -190.61 1963.5 -190.61"/></g><g id="node12" class="node"><title>AppService</title><ellipse cx="1165" cy="-218.8" fill="#fdb462" stroke="#000" rx="56.75" ry="18"/><text x="1165" y="-214.6" font-family="Times,serif" font-size="14" text-anchor="middle">AppService</text></g><g id="edge12" class="edge"><title>AppService-&gt;AppModule</title><path fill="none" stroke="#000" d="M1165,-236.91C1165,-256.14 1165,-283.8 1165,-283.8 1165,-283.8 1436.1,-283.8 1436.1,-283.8"/><polygon fill="#000" stroke="#000" points="1436.1 -287.3 1446.1 -283.8 1436.1 -280.3 1436.1 -287.3"/></g><g id="node13" class="node"><title>AtStrategy</title><ellipse cx="503" cy="-142.8" fill="#fdb462" stroke="#000" rx="52.75" ry="18"/><text x="503" y="-138.6" font-family="Times,serif" font-size="14" text-anchor="middle">AtStrategy</text></g><g id="edge14" class="edge"><title>AtStrategy-&gt;AuthModule</title><path fill="none" stroke="#000" d="M524.56,-159.32C524.56,-173.2 524.56,-190.8 524.56,-190.8 524.56,-190.8 1290,-190.8 1290,-190.8 1290,-190.8 1290,-191.78 1290,-191.78"/><polygon fill="#000" stroke="#000" points="1286.5 -190.59 1290 -200.59 1293.5 -190.59 1286.5 -190.59"/></g><g id="node14" class="node"><title>AuthService</title><ellipse cx="373" cy="-142.8" fill="#fdb462" stroke="#000" rx="59.11" ry="18"/><text x="373" y="-138.6" font-family="Times,serif" font-size="14" text-anchor="middle">AuthService</text></g><g id="edge15" class="edge"><title>AuthService-&gt;AuthModule</title><path fill="none" stroke="#000" d="M373.16,-160.85C373.16,-175.17 373.16,-192.8 373.16,-192.8 373.16,-192.8 1279.06,-192.8 1279.06,-192.8 1279.06,-192.8 1279.06,-193.59 1279.06,-193.59"/><polygon fill="#000" stroke="#000" points="1275.56 -190.74 1279.06 -200.74 1282.56 -190.74 1275.56 -190.74"/></g><g id="node15" class="node"><title>RtStrategy</title><ellipse cx="626" cy="-142.8" fill="#fdb462" stroke="#000" rx="52.19" ry="18"/><text x="626" y="-138.6" font-family="Times,serif" font-size="14" text-anchor="middle">RtStrategy</text></g><g id="edge16" class="edge"><title>RtStrategy-&gt;AuthModule</title><path fill="none" stroke="#000" d="M626,-160.84C626,-173.36 626,-187.8 626,-187.8 626,-187.8 1300.94,-187.8 1300.94,-187.8 1300.94,-187.8 1300.94,-190.77 1300.94,-190.77"/><polygon fill="#000" stroke="#000" points="1297.44 -190.77 1300.94 -200.77 1304.44 -190.77 1297.44 -190.77"/></g><g id="node16" class="node"><title>ConversationsService</title><ellipse cx="813" cy="-142.8" fill="#fdb462" stroke="#000" rx="95.49" ry="18"/><text x="813" y="-138.6" font-family="Times,serif" font-size="14" text-anchor="middle">ConversationsService</text></g><g id="edge19" class="edge"><title>ConversationsService-&gt;ConversationsModule</title><path fill="none" stroke="#000" d="M813,-160.93C813,-171.51 813,-182.8 813,-182.8 813,-182.8 1406,-182.8 1406,-182.8 1406,-182.8 1406,-190.38 1406,-190.38"/><polygon fill="#000" stroke="#000" points="1402.5 -190.38 1406 -200.38 1409.5 -190.38 1402.5 -190.38"/></g><g id="node17" class="node"><title>FilesService</title><polygon fill="#8dd3c7" stroke="#000" points="1426.71 -84.8 1423.71 -88.8 1402.71 -88.8 1399.71 -84.8 1341.29 -84.8 1341.29 -48.8 1426.71 -48.8 1426.71 -84.8"/><text x="1384" y="-62.6" font-family="Times,serif" font-size="14" text-anchor="middle">FilesService</text></g><g id="edge20" class="edge"><title>FilesService-&gt;FilesModule</title><path fill="none" stroke="#000" d="M1394.61,-84.81C1394.61,-84.81 1394.61,-114.65 1394.61,-114.65"/><polygon fill="#000" stroke="#000" points="1391.11 -114.65 1394.61 -124.65 1398.11 -114.65 1391.11 -114.65"/></g><g id="node18" class="node"><title>MessagesService</title><ellipse cx="1545" cy="-66.8" fill="#fdb462" stroke="#000" rx="77.58" ry="18"/><text x="1545" y="-62.6" font-family="Times,serif" font-size="14" text-anchor="middle">MessagesService</text></g><g id="edge21" class="edge"><title>MessagesService-&gt;MessagesModule</title><path fill="none" stroke="#000" d="M1524.23,-84.43C1524.23,-84.43 1524.23,-114.74 1524.23,-114.74"/><polygon fill="#000" stroke="#000" points="1520.73 -114.74 1524.23 -124.74 1527.73 -114.74 1520.73 -114.74"/></g><g id="node19" class="node"><title>PostsService</title><ellipse cx="1008" cy="-142.8" fill="#fdb462" stroke="#000" rx="60.28" ry="18"/><text x="1008" y="-138.6" font-family="Times,serif" font-size="14" text-anchor="middle">PostsService</text></g><g id="edge24" class="edge"><title>PostsService-&gt;PostsModule</title><path fill="none" stroke="#000" d="M1008,-161.04C1008,-168.23 1008,-174.8 1008,-174.8 1008,-174.8 1545.22,-174.8 1545.22,-174.8 1545.22,-174.8 1545.22,-190.65 1545.22,-190.65"/><polygon fill="#000" stroke="#000" points="1541.72 -190.65 1545.22 -200.65 1548.72 -190.65 1541.72 -190.65"/></g><g id="node21" class="node"><title>PrismaService</title><ellipse cx="1826" cy="-218.8" fill="#fdb462" stroke="#000" rx="66.64" ry="18"/><text x="1826" y="-214.6" font-family="Times,serif" font-size="14" text-anchor="middle">PrismaService</text></g><g id="edge26" class="edge"><title>PrismaService-&gt;PrismaModule</title><path fill="none" stroke="#000" d="M1826,-200.75C1826,-186.43 1826,-168.8 1826,-168.8 1826,-168.8 1336.39,-168.8 1336.39,-168.8 1336.39,-168.8 1336.39,-168.01 1336.39,-168.01"/><polygon fill="#000" stroke="#000" points="1339.89 -170.86 1336.39 -160.86 1332.89 -170.86 1339.89 -170.86"/></g><g id="node23" class="node"><title>UsersService</title><ellipse cx="376" cy="-218.8" fill="#fdb462" stroke="#000" rx="61.97" ry="18"/><text x="376" y="-214.6" font-family="Times,serif" font-size="14" text-anchor="middle">UsersService</text></g><g id="edge30" class="edge"><title>UsersService-&gt;UsersModule</title><path fill="none" stroke="#000" d="M313.73,-218.8C291.12,-218.8 271.03,-218.8 271.03,-218.8 271.03,-218.8 271.03,-170.81 271.03,-170.81"/><polygon fill="#000" stroke="#000" points="274.53 -170.81 271.03 -160.81 267.53 -170.81 274.53 -170.81"/></g></g></svg>